<svg width="296" height="350" viewBox="0 0 296 350" fill="none" xmlns="http://www.w3.org/2000/svg">
<rect width="296" height="350" rx="8" fill="#CCCCCC"/>
<rect opacity="0.5" width="296" height="350" rx="8" fill="black"/>
<path d="M95.448 302C95.288 302 95.152 301.944 95.04 301.832C94.928 301.72 94.872 301.584 94.872 301.424V285.8C94.872 285.624 94.92 285.48 95.016 285.368C95.128 285.256 95.272 285.2 95.448 285.2H102.408C104.28 285.2 105.672 285.616 106.584 286.448C107.512 287.264 107.976 288.384 107.976 289.808C107.976 290.64 107.768 291.352 107.352 291.944C106.952 292.52 106.48 292.936 105.936 293.192C106.608 293.496 107.168 293.992 107.616 294.68C108.08 295.368 108.312 296.152 108.312 297.032C108.312 298.52 107.808 299.72 106.8 300.632C105.808 301.544 104.408 302 102.6 302H95.448ZM101.976 292.088C102.808 292.088 103.44 291.888 103.872 291.488C104.304 291.088 104.52 290.552 104.52 289.88C104.52 289.192 104.304 288.664 103.872 288.296C103.44 287.912 102.808 287.72 101.976 287.72H98.208V292.088H101.976ZM102.216 299.456C103.048 299.456 103.696 299.232 104.16 298.784C104.624 298.32 104.856 297.736 104.856 297.032C104.856 296.312 104.624 295.728 104.16 295.28C103.696 294.816 103.048 294.584 102.216 294.584H98.208V299.456H102.216ZM115.669 302.24C114.197 302.24 113.037 301.76 112.189 300.8C111.341 299.824 110.917 298.504 110.917 296.84V290.096C110.917 289.936 110.973 289.8 111.085 289.688C111.197 289.576 111.333 289.52 111.493 289.52H113.605C113.781 289.52 113.917 289.576 114.013 289.688C114.125 289.784 114.181 289.92 114.181 290.096V296.696C114.181 298.68 115.053 299.672 116.797 299.672C117.629 299.672 118.285 299.408 118.765 298.88C119.261 298.352 119.509 297.624 119.509 296.696V290.096C119.509 289.936 119.565 289.8 119.677 289.688C119.789 289.576 119.925 289.52 120.085 289.52H122.197C122.373 289.52 122.509 289.576 122.605 289.688C122.717 289.784 122.773 289.92 122.773 290.096V301.424C122.773 301.584 122.717 301.72 122.605 301.832C122.509 301.944 122.373 302 122.197 302H120.253C120.093 302 119.957 301.944 119.845 301.832C119.733 301.72 119.677 301.584 119.677 301.424V300.44C118.781 301.64 117.445 302.24 115.669 302.24ZM130.671 302.24C129.471 302.24 128.463 302.064 127.647 301.712C126.831 301.344 126.223 300.92 125.823 300.44C125.439 299.944 125.247 299.52 125.247 299.168C125.247 299.008 125.303 298.88 125.415 298.784C125.527 298.688 125.655 298.64 125.799 298.64H127.695C127.839 298.64 127.959 298.696 128.055 298.808C128.119 298.856 128.287 299 128.559 299.24C128.831 299.496 129.151 299.696 129.519 299.84C129.887 299.984 130.295 300.056 130.743 300.056C131.383 300.056 131.911 299.928 132.327 299.672C132.743 299.416 132.951 299.064 132.951 298.616C132.951 298.28 132.855 298.008 132.663 297.8C132.487 297.592 132.159 297.408 131.679 297.248C131.199 297.072 130.487 296.888 129.543 296.696C128.183 296.408 127.175 295.968 126.519 295.376C125.879 294.784 125.559 294 125.559 293.024C125.559 292.384 125.751 291.784 126.135 291.224C126.519 290.648 127.087 290.184 127.839 289.832C128.607 289.464 129.519 289.28 130.575 289.28C131.647 289.28 132.575 289.456 133.359 289.808C134.143 290.144 134.735 290.552 135.135 291.032C135.551 291.496 135.759 291.912 135.759 292.28C135.759 292.424 135.703 292.552 135.591 292.664C135.495 292.76 135.375 292.808 135.231 292.808H133.455C133.327 292.808 133.191 292.752 133.047 292.64C132.935 292.56 132.759 292.408 132.519 292.184C132.279 291.96 131.999 291.784 131.679 291.656C131.359 291.528 130.983 291.464 130.551 291.464C129.959 291.464 129.495 291.592 129.159 291.848C128.839 292.104 128.679 292.44 128.679 292.856C128.679 293.16 128.759 293.408 128.919 293.6C129.079 293.792 129.391 293.976 129.855 294.152C130.319 294.328 131.015 294.504 131.943 294.68C133.479 294.984 134.575 295.456 135.231 296.096C135.903 296.736 136.239 297.52 136.239 298.448C136.239 299.568 135.751 300.48 134.775 301.184C133.799 301.888 132.431 302.24 130.671 302.24ZM139.197 287.456C139.037 287.456 138.901 287.4 138.789 287.288C138.677 287.176 138.621 287.04 138.621 286.88V285.152C138.621 284.992 138.677 284.856 138.789 284.744C138.901 284.632 139.037 284.576 139.197 284.576H141.381C141.541 284.576 141.677 284.632 141.789 284.744C141.917 284.856 141.981 284.992 141.981 285.152V286.88C141.981 287.04 141.925 287.176 141.813 287.288C141.701 287.4 141.557 287.456 141.381 287.456H139.197ZM139.293 302C139.133 302 138.997 301.944 138.885 301.832C138.773 301.72 138.717 301.584 138.717 301.424V290.096C138.717 289.936 138.773 289.8 138.885 289.688C138.997 289.576 139.133 289.52 139.293 289.52H141.285C141.461 289.52 141.597 289.576 141.693 289.688C141.805 289.784 141.861 289.92 141.861 290.096V301.424C141.861 301.584 141.805 301.72 141.693 301.832C141.597 301.944 141.461 302 141.285 302H139.293ZM145.621 302C145.461 302 145.325 301.944 145.213 301.832C145.101 301.72 145.045 301.584 145.045 301.424V290.096C145.045 289.936 145.101 289.8 145.213 289.688C145.325 289.576 145.461 289.52 145.621 289.52H147.589C147.749 289.52 147.885 289.576 147.997 289.688C148.109 289.8 148.165 289.936 148.165 290.096V291.08C149.109 289.88 150.445 289.28 152.173 289.28C153.645 289.28 154.813 289.768 155.677 290.744C156.541 291.704 156.973 293.016 156.973 294.68V301.424C156.973 301.584 156.917 301.72 156.805 301.832C156.709 301.944 156.573 302 156.397 302H154.285C154.125 302 153.989 301.944 153.877 301.832C153.765 301.72 153.709 301.584 153.709 301.424V294.824C153.709 293.88 153.477 293.152 153.013 292.64C152.565 292.112 151.909 291.848 151.045 291.848C150.197 291.848 149.525 292.112 149.029 292.64C148.549 293.168 148.309 293.896 148.309 294.824V301.424C148.309 301.584 148.253 301.72 148.141 301.832C148.045 301.944 147.909 302 147.733 302H145.621ZM165.398 302.24C163.622 302.24 162.206 301.728 161.15 300.704C160.11 299.664 159.558 298.208 159.494 296.336L159.47 295.736L159.494 295.136C159.574 293.312 160.134 291.88 161.174 290.84C162.23 289.8 163.638 289.28 165.398 289.28C167.286 289.28 168.742 289.856 169.766 291.008C170.806 292.16 171.326 293.696 171.326 295.616V296.12C171.326 296.28 171.27 296.416 171.158 296.528C171.046 296.64 170.902 296.696 170.726 296.696H162.758V296.888C162.79 297.768 163.03 298.512 163.478 299.12C163.942 299.712 164.574 300.008 165.374 300.008C166.318 300.008 167.078 299.64 167.654 298.904C167.798 298.728 167.91 298.616 167.99 298.568C168.086 298.52 168.222 298.496 168.398 298.496H170.462C170.606 298.496 170.726 298.544 170.822 298.64C170.934 298.72 170.99 298.824 170.99 298.952C170.99 299.336 170.758 299.792 170.294 300.32C169.846 300.832 169.198 301.28 168.35 301.664C167.502 302.048 166.518 302.24 165.398 302.24ZM168.062 294.68V294.608C168.062 293.664 167.822 292.904 167.342 292.328C166.878 291.752 166.23 291.464 165.398 291.464C164.566 291.464 163.918 291.752 163.454 292.328C162.99 292.904 162.758 293.664 162.758 294.608V294.68H168.062ZM178.601 302.24C177.401 302.24 176.393 302.064 175.577 301.712C174.761 301.344 174.153 300.92 173.753 300.44C173.369 299.944 173.177 299.52 173.177 299.168C173.177 299.008 173.233 298.88 173.345 298.784C173.457 298.688 173.585 298.64 173.729 298.64H175.625C175.769 298.64 175.889 298.696 175.985 298.808C176.049 298.856 176.217 299 176.489 299.24C176.761 299.496 177.081 299.696 177.449 299.84C177.817 299.984 178.225 300.056 178.673 300.056C179.313 300.056 179.841 299.928 180.257 299.672C180.673 299.416 180.881 299.064 180.881 298.616C180.881 298.28 180.785 298.008 180.593 297.8C180.417 297.592 180.089 297.408 179.609 297.248C179.129 297.072 178.417 296.888 177.473 296.696C176.113 296.408 175.105 295.968 174.449 295.376C173.809 294.784 173.489 294 173.489 293.024C173.489 292.384 173.681 291.784 174.065 291.224C174.449 290.648 175.017 290.184 175.769 289.832C176.537 289.464 177.449 289.28 178.505 289.28C179.577 289.28 180.505 289.456 181.289 289.808C182.073 290.144 182.665 290.552 183.065 291.032C183.481 291.496 183.689 291.912 183.689 292.28C183.689 292.424 183.633 292.552 183.521 292.664C183.425 292.76 183.305 292.808 183.161 292.808H181.385C181.257 292.808 181.121 292.752 180.977 292.64C180.865 292.56 180.689 292.408 180.449 292.184C180.209 291.96 179.929 291.784 179.609 291.656C179.289 291.528 178.913 291.464 178.481 291.464C177.889 291.464 177.425 291.592 177.089 291.848C176.769 292.104 176.609 292.44 176.609 292.856C176.609 293.16 176.689 293.408 176.849 293.6C177.009 293.792 177.321 293.976 177.785 294.152C178.249 294.328 178.945 294.504 179.873 294.68C181.409 294.984 182.505 295.456 183.161 296.096C183.833 296.736 184.169 297.52 184.169 298.448C184.169 299.568 183.681 300.48 182.705 301.184C181.729 301.888 180.361 302.24 178.601 302.24ZM191.375 302.24C190.175 302.24 189.167 302.064 188.351 301.712C187.535 301.344 186.927 300.92 186.527 300.44C186.143 299.944 185.951 299.52 185.951 299.168C185.951 299.008 186.007 298.88 186.119 298.784C186.231 298.688 186.359 298.64 186.503 298.64H188.399C188.543 298.64 188.663 298.696 188.759 298.808C188.823 298.856 188.991 299 189.263 299.24C189.535 299.496 189.855 299.696 190.223 299.84C190.591 299.984 190.999 300.056 191.447 300.056C192.087 300.056 192.615 299.928 193.031 299.672C193.447 299.416 193.655 299.064 193.655 298.616C193.655 298.28 193.559 298.008 193.367 297.8C193.191 297.592 192.863 297.408 192.383 297.248C191.903 297.072 191.191 296.888 190.247 296.696C188.887 296.408 187.879 295.968 187.223 295.376C186.583 294.784 186.263 294 186.263 293.024C186.263 292.384 186.455 291.784 186.839 291.224C187.223 290.648 187.791 290.184 188.543 289.832C189.311 289.464 190.223 289.28 191.279 289.28C192.351 289.28 193.279 289.456 194.063 289.808C194.847 290.144 195.439 290.552 195.839 291.032C196.255 291.496 196.463 291.912 196.463 292.28C196.463 292.424 196.407 292.552 196.295 292.664C196.199 292.76 196.079 292.808 195.935 292.808H194.159C194.031 292.808 193.895 292.752 193.751 292.64C193.639 292.56 193.463 292.408 193.223 292.184C192.983 291.96 192.703 291.784 192.383 291.656C192.063 291.528 191.687 291.464 191.255 291.464C190.663 291.464 190.199 291.592 189.863 291.848C189.543 292.104 189.383 292.44 189.383 292.856C189.383 293.16 189.463 293.408 189.623 293.6C189.783 293.792 190.095 293.976 190.559 294.152C191.023 294.328 191.719 294.504 192.647 294.68C194.183 294.984 195.279 295.456 195.935 296.096C196.607 296.736 196.943 297.52 196.943 298.448C196.943 299.568 196.455 300.48 195.479 301.184C194.503 301.888 193.135 302.24 191.375 302.24Z" fill="white"/>
</svg>
