<svg width="296" height="391" viewBox="0 0 296 391" fill="none" xmlns="http://www.w3.org/2000/svg">
<rect width="296" height="391" fill="#CCCCCC"/>
<rect opacity="0.2" width="296" height="391" fill="black"/>
<path d="M139.916 343.24C138.412 343.24 137.116 342.992 136.028 342.496C134.94 342 134.092 341.272 133.484 340.312C132.892 339.352 132.564 338.16 132.5 336.736C132.484 336.08 132.476 335.376 132.476 334.624C132.476 333.872 132.484 333.152 132.5 332.464C132.564 331.072 132.9 329.888 133.508 328.912C134.116 327.936 134.964 327.2 136.052 326.704C137.14 326.208 138.428 325.96 139.916 325.96C140.972 325.96 141.948 326.096 142.844 326.368C143.74 326.624 144.524 327.008 145.196 327.52C145.868 328.016 146.388 328.624 146.756 329.344C147.14 330.048 147.34 330.848 147.356 331.744C147.372 331.888 147.324 332.008 147.212 332.104C147.116 332.2 146.996 332.248 146.852 332.248H143.612C143.404 332.248 143.244 332.208 143.132 332.128C143.02 332.032 142.924 331.864 142.844 331.624C142.62 330.776 142.252 330.2 141.74 329.896C141.244 329.576 140.628 329.416 139.892 329.416C139.012 329.416 138.316 329.664 137.804 330.16C137.292 330.64 137.012 331.448 136.964 332.584C136.916 333.896 136.916 335.24 136.964 336.616C137.012 337.752 137.292 338.568 137.804 339.064C138.316 339.544 139.012 339.784 139.892 339.784C140.628 339.784 141.252 339.624 141.764 339.304C142.276 338.984 142.636 338.408 142.844 337.576C142.908 337.336 142.996 337.176 143.108 337.096C143.236 337 143.404 336.952 143.612 336.952H146.852C146.996 336.952 147.116 337 147.212 337.096C147.324 337.192 147.372 337.312 147.356 337.456C147.34 338.352 147.14 339.16 146.756 339.88C146.388 340.584 145.868 341.192 145.196 341.704C144.524 342.2 143.74 342.584 142.844 342.856C141.948 343.112 140.972 343.24 139.916 343.24ZM151.703 342.064C151.559 342.064 151.431 342.016 151.319 341.92C151.223 341.808 151.183 341.68 151.199 341.536L151.535 339.232H149.831C149.671 339.232 149.535 339.176 149.423 339.064C149.327 338.952 149.279 338.816 149.279 338.656V336.76C149.279 336.6 149.327 336.472 149.423 336.376C149.535 336.264 149.671 336.208 149.831 336.208H151.991L152.447 333.136H150.455C150.295 333.136 150.159 333.08 150.047 332.968C149.951 332.856 149.903 332.72 149.903 332.56V330.664C149.903 330.504 149.951 330.376 150.047 330.28C150.159 330.168 150.295 330.112 150.455 330.112H152.903L153.263 327.784C153.295 327.656 153.351 327.544 153.431 327.448C153.527 327.336 153.655 327.28 153.815 327.28H155.735C155.879 327.28 155.999 327.336 156.095 327.448C156.191 327.544 156.239 327.664 156.239 327.808L155.879 330.112H158.351L158.711 327.784C158.743 327.656 158.799 327.544 158.879 327.448C158.975 327.336 159.103 327.28 159.263 327.28H161.183C161.327 327.28 161.447 327.336 161.543 327.448C161.639 327.544 161.687 327.664 161.687 327.808L161.327 330.112H163.031C163.191 330.112 163.327 330.168 163.439 330.28C163.551 330.376 163.607 330.504 163.607 330.664V332.56C163.607 332.72 163.551 332.856 163.439 332.968C163.327 333.08 163.191 333.136 163.031 333.136H160.895L160.439 336.208H162.407C162.567 336.208 162.703 336.264 162.815 336.376C162.927 336.472 162.983 336.6 162.983 336.76V338.656C162.983 338.816 162.927 338.952 162.815 339.064C162.703 339.176 162.567 339.232 162.407 339.232H159.983L159.647 341.56C159.599 341.896 159.407 342.064 159.071 342.064H157.151C157.007 342.064 156.887 342.016 156.791 341.92C156.695 341.808 156.647 341.68 156.647 341.536L156.983 339.232H154.535L154.199 341.56C154.151 341.896 153.959 342.064 153.623 342.064H151.703ZM154.991 336.208H157.439L157.895 333.136H155.447L154.991 336.208Z" fill="white"/>
</svg>
