<svg width="296" height="350" viewBox="0 0 296 350" fill="none" xmlns="http://www.w3.org/2000/svg">
<rect width="296" height="350" rx="8" fill="#CCCCCC"/>
<rect opacity="0.5" width="296" height="350" rx="8" fill="black"/>
<path d="M80.352 302.24C78.144 302.24 76.432 301.672 75.216 300.536C74.016 299.4 73.376 297.8 73.296 295.736C73.28 295.304 73.272 294.6 73.272 293.624C73.272 292.632 73.28 291.912 73.296 291.464C73.376 289.416 74.024 287.824 75.24 286.688C76.472 285.536 78.176 284.96 80.352 284.96C81.776 284.96 83.016 285.208 84.072 285.704C85.128 286.184 85.944 286.848 86.52 287.696C87.096 288.528 87.4 289.472 87.432 290.528V290.576C87.432 290.704 87.376 290.816 87.264 290.912C87.168 290.992 87.056 291.032 86.928 291.032H84.648C84.456 291.032 84.312 290.992 84.216 290.912C84.12 290.832 84.04 290.68 83.976 290.456C83.72 289.448 83.296 288.744 82.704 288.344C82.112 287.928 81.32 287.72 80.328 287.72C78.024 287.72 76.824 289.008 76.728 291.584C76.712 292.016 76.704 292.68 76.704 293.576C76.704 294.472 76.712 295.152 76.728 295.616C76.824 298.192 78.024 299.48 80.328 299.48C81.32 299.48 82.112 299.272 82.704 298.856C83.312 298.44 83.736 297.736 83.976 296.744C84.024 296.52 84.096 296.368 84.192 296.288C84.304 296.208 84.456 296.168 84.648 296.168H86.928C87.072 296.168 87.192 296.216 87.288 296.312C87.4 296.408 87.448 296.528 87.432 296.672C87.4 297.728 87.096 298.68 86.52 299.528C85.944 300.36 85.128 301.024 84.072 301.52C83.016 302 81.776 302.24 80.352 302.24ZM95.5103 302.24C93.6383 302.24 92.1903 301.76 91.1663 300.8C90.1423 299.824 89.5903 298.496 89.5103 296.816L89.4863 295.76L89.5103 294.704C89.5903 293.04 90.1503 291.72 91.1903 290.744C92.2303 289.768 93.6703 289.28 95.5103 289.28C97.3503 289.28 98.7903 289.768 99.8303 290.744C100.87 291.72 101.43 293.04 101.51 294.704C101.526 294.896 101.534 295.248 101.534 295.76C101.534 296.272 101.526 296.624 101.51 296.816C101.43 298.496 100.878 299.824 99.8543 300.8C98.8303 301.76 97.3823 302.24 95.5103 302.24ZM95.5103 299.864C96.3583 299.864 97.0143 299.6 97.4783 299.072C97.9423 298.528 98.1983 297.736 98.2463 296.696C98.2623 296.536 98.2703 296.224 98.2703 295.76C98.2703 295.296 98.2623 294.984 98.2463 294.824C98.1983 293.784 97.9423 293 97.4783 292.472C97.0143 291.928 96.3583 291.656 95.5103 291.656C94.6623 291.656 94.0063 291.928 93.5423 292.472C93.0783 293 92.8223 293.784 92.7743 294.824L92.7503 295.76L92.7743 296.696C92.8223 297.736 93.0783 298.528 93.5423 299.072C94.0063 299.6 94.6623 299.864 95.5103 299.864ZM104.793 306.56C104.633 306.56 104.497 306.504 104.385 306.392C104.273 306.296 104.217 306.16 104.217 305.984V290.096C104.217 289.92 104.273 289.784 104.385 289.688C104.497 289.576 104.633 289.52 104.793 289.52H106.689C106.865 289.52 107.001 289.576 107.097 289.688C107.209 289.784 107.265 289.92 107.265 290.096V291.056C108.161 289.872 109.441 289.28 111.105 289.28C112.721 289.28 113.961 289.792 114.825 290.816C115.689 291.824 116.153 293.192 116.217 294.92C116.233 295.112 116.241 295.392 116.241 295.76C116.241 296.144 116.233 296.432 116.217 296.624C116.153 298.304 115.689 299.664 114.825 300.704C113.961 301.728 112.721 302.24 111.105 302.24C109.489 302.24 108.257 301.672 107.409 300.536V305.984C107.409 306.16 107.353 306.296 107.241 306.392C107.145 306.504 107.009 306.56 106.833 306.56H104.793ZM110.217 299.672C111.945 299.672 112.865 298.608 112.977 296.48C112.993 296.32 113.001 296.08 113.001 295.76C113.001 295.44 112.993 295.2 112.977 295.04C112.865 292.912 111.945 291.848 110.217 291.848C109.289 291.848 108.601 292.144 108.153 292.736C107.705 293.328 107.457 294.056 107.409 294.92L107.385 295.832L107.409 296.768C107.441 297.568 107.689 298.256 108.153 298.832C108.633 299.392 109.321 299.672 110.217 299.672ZM120.676 306.56C120.548 306.56 120.436 306.512 120.34 306.416C120.244 306.32 120.196 306.208 120.196 306.08C120.196 305.936 120.228 305.808 120.292 305.696L122.164 301.256L117.556 290.384C117.492 290.24 117.46 290.128 117.46 290.048C117.476 289.904 117.532 289.784 117.628 289.688C117.724 289.576 117.844 289.52 117.988 289.52H119.932C120.236 289.52 120.452 289.672 120.58 289.976L123.772 297.824L127.06 289.976C127.188 289.672 127.404 289.52 127.708 289.52H129.628C129.756 289.52 129.868 289.568 129.964 289.664C130.076 289.76 130.132 289.872 130.132 290C130.132 290.112 130.1 290.24 130.036 290.384L123.244 306.104C123.1 306.408 122.876 306.56 122.572 306.56H120.676ZM139.82 302C139.58 302 139.388 301.936 139.244 301.808C139.1 301.68 139.012 301.504 138.98 301.28L136.124 285.896L136.1 285.704C136.1 285.56 136.148 285.44 136.244 285.344C136.356 285.248 136.476 285.2 136.604 285.2H138.715C139.116 285.2 139.34 285.36 139.388 285.68L141.38 296.552L143.54 289.52C143.7 289.12 143.964 288.92 144.332 288.92H145.628C146.028 288.92 146.284 289.12 146.396 289.52L148.58 296.528L150.572 285.68C150.604 285.504 150.668 285.384 150.764 285.32C150.876 285.24 151.036 285.2 151.244 285.2H153.356C153.484 285.2 153.596 285.248 153.692 285.344C153.788 285.44 153.836 285.56 153.836 285.704C153.836 285.784 153.828 285.848 153.812 285.896L150.956 301.28C150.876 301.76 150.596 302 150.116 302H148.508C148.284 302 148.1 301.944 147.956 301.832C147.812 301.72 147.716 301.576 147.668 301.4L144.98 293.384L142.292 301.4C142.132 301.8 141.844 302 141.428 302H139.82ZM156.683 302C156.523 302 156.387 301.944 156.275 301.832C156.163 301.72 156.107 301.584 156.107 301.424V290.12C156.107 289.96 156.163 289.824 156.275 289.712C156.387 289.584 156.523 289.52 156.683 289.52H158.627C158.803 289.52 158.947 289.576 159.059 289.688C159.171 289.8 159.227 289.944 159.227 290.12V291.104C159.611 290.592 160.091 290.2 160.667 289.928C161.259 289.656 161.931 289.52 162.683 289.52H163.667C163.843 289.52 163.979 289.576 164.075 289.688C164.187 289.784 164.243 289.92 164.243 290.096V291.824C164.243 291.984 164.187 292.12 164.075 292.232C163.979 292.344 163.843 292.4 163.667 292.4H161.795C161.043 292.4 160.451 292.616 160.019 293.048C159.587 293.48 159.371 294.072 159.371 294.824V301.424C159.371 301.584 159.315 301.72 159.203 301.832C159.091 301.944 158.947 302 158.771 302H156.683ZM166.595 287.456C166.435 287.456 166.299 287.4 166.187 287.288C166.075 287.176 166.019 287.04 166.019 286.88V285.152C166.019 284.992 166.075 284.856 166.187 284.744C166.299 284.632 166.435 284.576 166.595 284.576H168.779C168.939 284.576 169.075 284.632 169.187 284.744C169.315 284.856 169.379 284.992 169.379 285.152V286.88C169.379 287.04 169.323 287.176 169.211 287.288C169.099 287.4 168.955 287.456 168.779 287.456H166.595ZM166.691 302C166.531 302 166.395 301.944 166.283 301.832C166.171 301.72 166.115 301.584 166.115 301.424V290.096C166.115 289.936 166.171 289.8 166.283 289.688C166.395 289.576 166.531 289.52 166.691 289.52H168.683C168.859 289.52 168.995 289.576 169.091 289.688C169.203 289.784 169.259 289.92 169.259 290.096V301.424C169.259 301.584 169.203 301.72 169.091 301.832C168.995 301.944 168.859 302 168.683 302H166.691ZM178.083 302C176.627 302 175.531 301.624 174.795 300.872C174.075 300.104 173.715 298.984 173.715 297.512V292.064H171.819C171.659 292.064 171.523 292.008 171.411 291.896C171.299 291.768 171.243 291.624 171.243 291.464V290.096C171.243 289.936 171.299 289.8 171.411 289.688C171.523 289.576 171.659 289.52 171.819 289.52H173.715V285.536C173.715 285.36 173.771 285.224 173.883 285.128C173.995 285.016 174.131 284.96 174.291 284.96H176.235C176.411 284.96 176.547 285.016 176.643 285.128C176.755 285.224 176.811 285.36 176.811 285.536V289.52H179.811C179.987 289.52 180.123 289.576 180.219 289.688C180.331 289.784 180.387 289.92 180.387 290.096V291.464C180.387 291.64 180.331 291.784 180.219 291.896C180.107 292.008 179.971 292.064 179.811 292.064H176.811V297.272C176.811 297.96 176.931 298.48 177.171 298.832C177.411 299.184 177.811 299.36 178.371 299.36H180.027C180.187 299.36 180.323 299.416 180.435 299.528C180.547 299.64 180.603 299.776 180.603 299.936V301.424C180.603 301.584 180.547 301.72 180.435 301.832C180.339 301.944 180.203 302 180.027 302H178.083ZM183.212 287.456C183.052 287.456 182.916 287.4 182.804 287.288C182.692 287.176 182.636 287.04 182.636 286.88V285.152C182.636 284.992 182.692 284.856 182.804 284.744C182.916 284.632 183.052 284.576 183.212 284.576H185.396C185.556 284.576 185.692 284.632 185.804 284.744C185.932 284.856 185.996 284.992 185.996 285.152V286.88C185.996 287.04 185.94 287.176 185.828 287.288C185.716 287.4 185.572 287.456 185.396 287.456H183.212ZM183.308 302C183.148 302 183.012 301.944 182.9 301.832C182.788 301.72 182.732 301.584 182.732 301.424V290.096C182.732 289.936 182.788 289.8 182.9 289.688C183.012 289.576 183.148 289.52 183.308 289.52H185.3C185.476 289.52 185.612 289.576 185.708 289.688C185.82 289.784 185.876 289.92 185.876 290.096V301.424C185.876 301.584 185.82 301.72 185.708 301.832C185.612 301.944 185.476 302 185.3 302H183.308ZM189.637 302C189.477 302 189.341 301.944 189.229 301.832C189.117 301.72 189.061 301.584 189.061 301.424V290.096C189.061 289.936 189.117 289.8 189.229 289.688C189.341 289.576 189.477 289.52 189.637 289.52H191.605C191.765 289.52 191.901 289.576 192.013 289.688C192.125 289.8 192.181 289.936 192.181 290.096V291.08C193.125 289.88 194.461 289.28 196.189 289.28C197.661 289.28 198.829 289.768 199.693 290.744C200.557 291.704 200.989 293.016 200.989 294.68V301.424C200.989 301.584 200.933 301.72 200.821 301.832C200.725 301.944 200.589 302 200.413 302H198.301C198.141 302 198.005 301.944 197.893 301.832C197.781 301.72 197.725 301.584 197.725 301.424V294.824C197.725 293.88 197.493 293.152 197.029 292.64C196.581 292.112 195.925 291.848 195.061 291.848C194.213 291.848 193.541 292.112 193.045 292.64C192.565 293.168 192.325 293.896 192.325 294.824V301.424C192.325 301.584 192.269 301.72 192.157 301.832C192.061 301.944 191.925 302 191.749 302H189.637ZM209.677 307.28C208.253 307.28 207.101 307.04 206.221 306.56C205.341 306.096 204.717 305.56 204.349 304.952C203.981 304.344 203.797 303.824 203.797 303.392C203.797 303.248 203.853 303.12 203.965 303.008C204.093 302.896 204.229 302.84 204.373 302.84H206.461C206.605 302.84 206.725 302.872 206.821 302.936C206.933 303.016 207.021 303.152 207.085 303.344C207.245 303.776 207.501 304.136 207.853 304.424C208.221 304.728 208.789 304.88 209.557 304.88C210.517 304.88 211.221 304.664 211.669 304.232C212.133 303.8 212.365 303.056 212.365 302V300.368C211.485 301.408 210.253 301.928 208.669 301.928C207.005 301.928 205.749 301.416 204.901 300.392C204.069 299.368 203.621 297.992 203.557 296.264L203.533 295.616L203.557 294.968C203.621 293.272 204.077 291.904 204.925 290.864C205.773 289.808 207.021 289.28 208.669 289.28C209.517 289.28 210.261 289.44 210.901 289.76C211.541 290.08 212.077 290.52 212.509 291.08V290.12C212.509 289.944 212.565 289.8 212.677 289.688C212.789 289.576 212.925 289.52 213.085 289.52H215.029C215.189 289.52 215.325 289.584 215.437 289.712C215.549 289.824 215.605 289.96 215.605 290.12L215.629 301.688C215.629 303.464 215.133 304.84 214.141 305.816C213.149 306.792 211.661 307.28 209.677 307.28ZM209.557 299.384C210.469 299.384 211.149 299.096 211.597 298.52C212.061 297.944 212.317 297.24 212.365 296.408C212.381 296.28 212.389 296.016 212.389 295.616C212.389 295.232 212.381 294.976 212.365 294.848C212.317 294 212.061 293.288 211.597 292.712C211.149 292.136 210.469 291.848 209.557 291.848C207.829 291.848 206.917 292.912 206.821 295.04L206.797 295.616C206.797 296.752 206.997 297.664 207.397 298.352C207.813 299.04 208.533 299.384 209.557 299.384Z" fill="white"/>
</svg>
