<svg width="1440" height="248" viewBox="0 0 1440 248" fill="none" xmlns="http://www.w3.org/2000/svg">
<path d="M1166.72 189.584C1166.69 190.304 1166.67 190.976 1166.67 191.6C1166.67 192.224 1166.69 192.896 1166.72 193.616C1166.77 194.944 1167.17 196.024 1167.92 196.856C1168.69 197.672 1169.78 198.08 1171.21 198.08C1171.98 198.08 1172.62 197.984 1173.15 197.792C1173.68 197.6 1174.11 197.352 1174.45 197.048C1174.8 196.744 1175.06 196.4 1175.24 196.016C1175.43 195.616 1175.58 195.216 1175.67 194.816C1175.7 194.64 1175.78 194.512 1175.91 194.432C1176.04 194.336 1176.17 194.288 1176.3 194.288H1177.4C1177.54 194.288 1177.66 194.344 1177.76 194.456C1177.87 194.552 1177.93 194.672 1177.93 194.816C1177.91 195.344 1177.78 195.92 1177.52 196.544C1177.26 197.168 1176.86 197.76 1176.32 198.32C1175.79 198.864 1175.1 199.32 1174.26 199.688C1173.42 200.056 1172.41 200.24 1171.21 200.24C1170.17 200.24 1169.24 200.08 1168.42 199.76C1167.61 199.424 1166.9 198.968 1166.31 198.392C1165.74 197.816 1165.29 197.136 1164.97 196.352C1164.65 195.552 1164.47 194.68 1164.44 193.736C1164.39 192.312 1164.39 190.888 1164.44 189.464C1164.47 188.536 1164.65 187.672 1164.97 186.872C1165.29 186.072 1165.74 185.384 1166.31 184.808C1166.9 184.232 1167.61 183.784 1168.42 183.464C1169.24 183.128 1170.17 182.96 1171.21 182.96C1172.41 182.96 1173.42 183.144 1174.26 183.512C1175.1 183.88 1175.79 184.344 1176.32 184.904C1176.86 185.448 1177.26 186.032 1177.52 186.656C1177.78 187.28 1177.91 187.856 1177.93 188.384C1177.93 188.528 1177.87 188.656 1177.76 188.768C1177.66 188.864 1177.54 188.912 1177.4 188.912H1176.3C1176.17 188.912 1176.04 188.872 1175.91 188.792C1175.78 188.696 1175.7 188.56 1175.67 188.384C1175.58 187.984 1175.43 187.592 1175.24 187.208C1175.06 186.808 1174.8 186.456 1174.45 186.152C1174.11 185.848 1173.68 185.6 1173.15 185.408C1172.62 185.216 1171.98 185.12 1171.21 185.12C1169.78 185.12 1168.69 185.536 1167.92 186.368C1167.17 187.184 1166.77 188.256 1166.72 189.584ZM1185.92 187.28C1186.78 187.28 1187.55 187.416 1188.22 187.688C1188.9 187.944 1189.47 188.304 1189.95 188.768C1190.43 189.232 1190.81 189.8 1191.08 190.472C1191.37 191.128 1191.54 191.848 1191.61 192.632C1191.62 192.776 1191.63 192.952 1191.63 193.16C1191.63 193.352 1191.63 193.56 1191.63 193.784C1191.63 193.992 1191.63 194.2 1191.63 194.408C1191.63 194.6 1191.62 194.76 1191.61 194.888C1191.53 195.688 1191.35 196.416 1191.08 197.072C1190.81 197.728 1190.43 198.288 1189.95 198.752C1189.47 199.216 1188.9 199.584 1188.22 199.856C1187.55 200.112 1186.78 200.24 1185.92 200.24C1185.06 200.24 1184.29 200.112 1183.62 199.856C1182.94 199.584 1182.37 199.216 1181.89 198.752C1181.41 198.288 1181.02 197.728 1180.74 197.072C1180.46 196.416 1180.3 195.688 1180.23 194.888C1180.22 194.76 1180.2 194.6 1180.18 194.408C1180.18 194.2 1180.18 193.992 1180.18 193.784C1180.18 193.56 1180.18 193.352 1180.18 193.16C1180.2 192.952 1180.22 192.776 1180.23 192.632C1180.3 191.848 1180.46 191.128 1180.74 190.472C1181.02 189.8 1181.41 189.232 1181.89 188.768C1182.37 188.304 1182.94 187.944 1183.62 187.688C1184.29 187.416 1185.06 187.28 1185.92 187.28ZM1189.42 194.768C1189.46 194.496 1189.47 194.168 1189.47 193.784C1189.47 193.384 1189.46 193.04 1189.42 192.752C1189.38 192.272 1189.27 191.824 1189.11 191.408C1188.95 190.992 1188.73 190.632 1188.44 190.328C1188.15 190.024 1187.8 189.784 1187.38 189.608C1186.97 189.432 1186.48 189.344 1185.92 189.344C1185.36 189.344 1184.87 189.432 1184.46 189.608C1184.04 189.784 1183.69 190.024 1183.4 190.328C1183.11 190.632 1182.89 190.992 1182.73 191.408C1182.57 191.824 1182.46 192.272 1182.42 192.752C1182.38 193.04 1182.37 193.384 1182.37 193.784C1182.37 194.168 1182.38 194.496 1182.42 194.768C1182.46 195.248 1182.57 195.696 1182.73 196.112C1182.89 196.528 1183.11 196.888 1183.4 197.192C1183.69 197.496 1184.04 197.736 1184.46 197.912C1184.87 198.088 1185.36 198.176 1185.92 198.176C1186.48 198.176 1186.97 198.088 1187.38 197.912C1187.8 197.736 1188.15 197.496 1188.44 197.192C1188.73 196.888 1188.95 196.528 1189.11 196.112C1189.27 195.696 1189.38 195.248 1189.42 194.768ZM1194.54 188.168C1194.54 187.992 1194.6 187.84 1194.73 187.712C1194.86 187.584 1195.01 187.52 1195.19 187.52H1196.08C1196.25 187.52 1196.4 187.584 1196.53 187.712C1196.66 187.84 1196.72 187.992 1196.72 188.168V194.504C1196.72 195.736 1197 196.656 1197.54 197.264C1198.1 197.872 1198.91 198.176 1199.96 198.176C1200.97 198.176 1201.76 197.872 1202.34 197.264C1202.92 196.656 1203.2 195.736 1203.2 194.504V188.168C1203.2 187.992 1203.27 187.84 1203.4 187.712C1203.52 187.584 1203.68 187.52 1203.85 187.52H1204.74C1204.92 187.52 1205.07 187.584 1205.2 187.712C1205.32 187.84 1205.39 187.992 1205.39 188.168V199.352C1205.39 199.528 1205.32 199.68 1205.2 199.808C1205.07 199.936 1204.92 200 1204.74 200H1203.85C1203.68 200 1203.52 199.936 1203.4 199.808C1203.27 199.68 1203.2 199.528 1203.2 199.352V198.608C1202.9 199.008 1202.47 199.384 1201.91 199.736C1201.35 200.072 1200.58 200.24 1199.6 200.24C1198.85 200.24 1198.16 200.12 1197.54 199.88C1196.92 199.624 1196.38 199.272 1195.93 198.824C1195.48 198.36 1195.14 197.8 1194.9 197.144C1194.66 196.472 1194.54 195.712 1194.54 194.864V188.168ZM1220.07 199.352C1220.07 199.528 1220 199.68 1219.88 199.808C1219.75 199.936 1219.6 200 1219.42 200H1218.53C1218.36 200 1218.2 199.936 1218.08 199.808C1217.95 199.68 1217.88 199.528 1217.88 199.352V193.016C1217.88 191.784 1217.59 190.864 1217 190.256C1216.4 189.648 1215.58 189.344 1214.52 189.344C1213.52 189.344 1212.7 189.648 1212.08 190.256C1211.47 190.864 1211.16 191.784 1211.16 193.016V199.352C1211.16 199.528 1211.1 199.68 1210.97 199.808C1210.84 199.936 1210.69 200 1210.52 200H1209.63C1209.45 200 1209.3 199.936 1209.17 199.808C1209.04 199.68 1208.98 199.528 1208.98 199.352V188.168C1208.98 187.992 1209.04 187.84 1209.17 187.712C1209.3 187.584 1209.45 187.52 1209.63 187.52H1210.52C1210.69 187.52 1210.84 187.584 1210.97 187.712C1211.1 187.84 1211.16 187.992 1211.16 188.168V188.912C1211.47 188.512 1211.92 188.144 1212.51 187.808C1213.12 187.456 1213.91 187.28 1214.88 187.28C1215.64 187.28 1216.33 187.408 1216.97 187.664C1217.61 187.904 1218.16 188.256 1218.6 188.72C1219.07 189.168 1219.43 189.728 1219.68 190.4C1219.94 191.072 1220.07 191.824 1220.07 192.656V199.352ZM1226.63 195.8C1226.63 196.104 1226.66 196.392 1226.71 196.664C1226.77 196.92 1226.87 197.144 1227.02 197.336C1227.16 197.528 1227.36 197.68 1227.62 197.792C1227.89 197.888 1228.23 197.936 1228.65 197.936H1229.92C1230.1 197.936 1230.25 198 1230.38 198.128C1230.51 198.256 1230.57 198.408 1230.57 198.584V199.352C1230.57 199.528 1230.51 199.68 1230.38 199.808C1230.25 199.936 1230.1 200 1229.92 200H1228.41C1227.02 200 1226.01 199.64 1225.39 198.92C1224.76 198.2 1224.45 197.16 1224.45 195.8V189.584H1222.67C1222.5 189.584 1222.35 189.52 1222.22 189.392C1222.09 189.264 1222.03 189.112 1222.03 188.936V188.168C1222.03 187.992 1222.09 187.84 1222.22 187.712C1222.35 187.584 1222.5 187.52 1222.67 187.52H1224.45V183.608C1224.45 183.432 1224.51 183.28 1224.64 183.152C1224.77 183.024 1224.92 182.96 1225.1 182.96H1225.99C1226.16 182.96 1226.31 183.024 1226.44 183.152C1226.57 183.28 1226.63 183.432 1226.63 183.608V187.52H1229.68C1229.86 187.52 1230.01 187.584 1230.14 187.712C1230.27 187.84 1230.33 187.992 1230.33 188.168V188.936C1230.33 189.112 1230.27 189.264 1230.14 189.392C1230.01 189.52 1229.86 189.584 1229.68 189.584H1226.63V195.8ZM1239.32 187.52C1239.49 187.52 1239.64 187.584 1239.77 187.712C1239.9 187.84 1239.96 187.992 1239.96 188.168V188.936C1239.96 189.112 1239.9 189.264 1239.77 189.392C1239.64 189.52 1239.49 189.584 1239.32 189.584H1237.92C1236.08 189.584 1235.16 190.504 1235.16 192.344V199.352C1235.16 199.528 1235.1 199.68 1234.97 199.808C1234.84 199.936 1234.69 200 1234.52 200H1233.63C1233.45 200 1233.3 199.936 1233.17 199.808C1233.04 199.68 1232.98 199.528 1232.98 199.352V188.168C1232.98 187.992 1233.04 187.84 1233.17 187.712C1233.3 187.584 1233.45 187.52 1233.63 187.52H1234.52C1234.69 187.52 1234.84 187.584 1234.97 187.712C1235.1 187.84 1235.16 187.992 1235.16 188.168V188.912C1235.48 188.432 1235.87 188.08 1236.32 187.856C1236.76 187.632 1237.35 187.52 1238.07 187.52H1239.32ZM1244.23 199.352C1244.23 199.528 1244.17 199.68 1244.04 199.808C1243.91 199.936 1243.76 200 1243.59 200H1242.7C1242.52 200 1242.37 199.936 1242.24 199.808C1242.11 199.68 1242.05 199.528 1242.05 199.352V188.168C1242.05 187.992 1242.11 187.84 1242.24 187.712C1242.37 187.584 1242.52 187.52 1242.7 187.52H1243.59C1243.76 187.52 1243.91 187.584 1244.04 187.712C1244.17 187.84 1244.23 187.992 1244.23 188.168V199.352ZM1244.47 184.976C1244.47 185.152 1244.41 185.304 1244.28 185.432C1244.15 185.56 1244 185.624 1243.83 185.624H1242.46C1242.28 185.624 1242.13 185.56 1242 185.432C1241.87 185.304 1241.81 185.152 1241.81 184.976V183.608C1241.81 183.432 1241.87 183.28 1242 183.152C1242.13 183.024 1242.28 182.96 1242.46 182.96H1243.83C1244 182.96 1244.15 183.024 1244.28 183.152C1244.41 183.28 1244.47 183.432 1244.47 183.608V184.976ZM1247.26 192.56C1247.33 191.824 1247.5 191.136 1247.79 190.496C1248.08 189.856 1248.46 189.296 1248.92 188.816C1249.38 188.336 1249.94 187.96 1250.58 187.688C1251.23 187.416 1251.96 187.28 1252.76 187.28C1253.62 187.28 1254.39 187.424 1255.06 187.712C1255.75 187.984 1256.34 188.384 1256.82 188.912C1257.3 189.44 1257.66 190.08 1257.92 190.832C1258.18 191.584 1258.3 192.424 1258.3 193.352V194C1258.3 194.176 1258.24 194.328 1258.11 194.456C1257.98 194.584 1257.83 194.648 1257.66 194.648H1249.4V194.792C1249.43 195.88 1249.76 196.72 1250.38 197.312C1251.02 197.888 1251.82 198.176 1252.76 198.176C1253.64 198.176 1254.3 198.056 1254.73 197.816C1255.18 197.56 1255.54 197.28 1255.81 196.976C1255.94 196.848 1256.05 196.76 1256.14 196.712C1256.24 196.664 1256.38 196.64 1256.58 196.64H1257.3C1257.47 196.64 1257.63 196.704 1257.78 196.832C1257.92 196.96 1257.98 197.112 1257.94 197.288C1257.9 197.576 1257.76 197.896 1257.54 198.248C1257.31 198.584 1256.98 198.904 1256.55 199.208C1256.14 199.496 1255.61 199.744 1254.97 199.952C1254.34 200.144 1253.61 200.24 1252.76 200.24C1251.96 200.24 1251.24 200.104 1250.6 199.832C1249.96 199.544 1249.4 199.16 1248.92 198.68C1248.46 198.184 1248.08 197.608 1247.79 196.952C1247.5 196.28 1247.33 195.552 1247.26 194.768C1247.18 194.032 1247.18 193.296 1247.26 192.56ZM1249.4 192.632H1256.14V192.56C1256.14 191.584 1255.83 190.808 1255.21 190.232C1254.6 189.64 1253.78 189.344 1252.76 189.344C1252.3 189.344 1251.86 189.424 1251.46 189.584C1251.06 189.728 1250.71 189.944 1250.41 190.232C1250.1 190.504 1249.86 190.84 1249.69 191.24C1249.51 191.64 1249.42 192.08 1249.4 192.56V192.632ZM1268.3 196.544C1268.3 196.24 1268.21 195.992 1268.04 195.8C1267.88 195.592 1267.63 195.416 1267.29 195.272C1266.96 195.128 1266.53 194.992 1266 194.864C1265.49 194.736 1264.89 194.6 1264.2 194.456C1262.9 194.184 1261.99 193.736 1261.46 193.112C1260.95 192.472 1260.69 191.728 1260.69 190.88C1260.69 190.4 1260.79 189.944 1260.98 189.512C1261.17 189.08 1261.46 188.696 1261.85 188.36C1262.23 188.024 1262.71 187.76 1263.29 187.568C1263.88 187.376 1264.57 187.28 1265.35 187.28C1266.13 187.28 1266.81 187.368 1267.39 187.544C1267.98 187.72 1268.48 187.944 1268.88 188.216C1269.28 188.488 1269.58 188.784 1269.79 189.104C1270 189.408 1270.11 189.704 1270.13 189.992C1270.14 190.168 1270.08 190.32 1269.93 190.448C1269.81 190.576 1269.65 190.64 1269.48 190.64H1268.69C1268.59 190.64 1268.47 190.624 1268.33 190.592C1268.2 190.544 1268.08 190.448 1267.97 190.304C1267.76 190.032 1267.45 189.808 1267.03 189.632C1266.63 189.44 1266.07 189.344 1265.35 189.344C1264.61 189.344 1264.01 189.48 1263.55 189.752C1263.1 190.024 1262.88 190.4 1262.88 190.88C1262.88 191.184 1262.94 191.432 1263.07 191.624C1263.2 191.8 1263.41 191.96 1263.69 192.104C1263.98 192.232 1264.36 192.352 1264.82 192.464C1265.3 192.576 1265.89 192.712 1266.6 192.872C1267.33 193.032 1267.95 193.24 1268.45 193.496C1268.94 193.736 1269.34 194.016 1269.65 194.336C1269.95 194.64 1270.17 194.984 1270.29 195.368C1270.42 195.736 1270.49 196.128 1270.49 196.544C1270.49 197.024 1270.37 197.488 1270.13 197.936C1269.9 198.384 1269.57 198.776 1269.14 199.112C1268.71 199.448 1268.18 199.72 1267.56 199.928C1266.95 200.136 1266.25 200.24 1265.47 200.24C1264.69 200.24 1263.99 200.144 1263.38 199.952C1262.77 199.76 1262.25 199.528 1261.82 199.256C1261.39 198.968 1261.05 198.664 1260.81 198.344C1260.59 198.008 1260.47 197.696 1260.45 197.408C1260.44 197.232 1260.49 197.08 1260.62 196.952C1260.75 196.824 1260.91 196.76 1261.1 196.76H1261.97C1262.06 196.76 1262.17 196.776 1262.3 196.808C1262.43 196.824 1262.55 196.912 1262.66 197.072C1262.92 197.424 1263.27 197.696 1263.72 197.888C1264.17 198.08 1264.75 198.176 1265.47 198.176C1265.82 198.176 1266.17 198.136 1266.5 198.056C1266.85 197.976 1267.16 197.864 1267.41 197.72C1267.69 197.576 1267.9 197.408 1268.06 197.216C1268.22 197.008 1268.3 196.784 1268.3 196.544Z" fill="#1C3554"/>
<path d="M1196.86 155C1196.65 155 1196.46 154.925 1196.29 154.776C1196.14 154.605 1196.06 154.413 1196.06 154.2V138.968L1191.68 142.328C1191.49 142.477 1191.29 142.531 1191.07 142.488C1190.88 142.445 1190.71 142.328 1190.56 142.136L1188.67 139.672C1188.54 139.48 1188.49 139.277 1188.51 139.064C1188.55 138.829 1188.68 138.648 1188.9 138.52L1196.26 132.824C1196.38 132.739 1196.5 132.685 1196.61 132.664C1196.74 132.621 1196.87 132.6 1197.02 132.6H1201.02C1201.26 132.6 1201.45 132.675 1201.6 132.824C1201.75 132.973 1201.82 133.165 1201.82 133.4V154.2C1201.82 154.413 1201.75 154.605 1201.6 154.776C1201.45 154.925 1201.26 155 1201.02 155H1196.86ZM1214.72 155.32C1213.14 155.32 1211.76 155.139 1210.56 154.776C1209.39 154.392 1208.42 153.88 1207.65 153.24C1206.88 152.6 1206.31 151.853 1205.92 151C1205.54 150.147 1205.35 149.24 1205.35 148.28C1205.35 147.107 1205.63 146.072 1206.21 145.176C1206.81 144.28 1207.55 143.587 1208.45 143.096C1207.7 142.605 1207.13 141.997 1206.72 141.272C1206.34 140.525 1206.15 139.661 1206.15 138.68C1206.15 137.485 1206.46 136.408 1207.07 135.448C1207.69 134.488 1208.63 133.72 1209.89 133.144C1211.15 132.568 1212.76 132.28 1214.72 132.28C1216.66 132.28 1218.26 132.568 1219.52 133.144C1220.78 133.699 1221.71 134.456 1222.31 135.416C1222.92 136.376 1223.23 137.453 1223.23 138.648C1223.23 139.608 1223.04 140.472 1222.66 141.24C1222.27 141.987 1221.72 142.605 1220.99 143.096C1221.95 143.565 1222.71 144.259 1223.27 145.176C1223.84 146.093 1224.13 147.139 1224.13 148.312C1224.13 149.592 1223.78 150.765 1223.07 151.832C1222.39 152.899 1221.36 153.752 1219.97 154.392C1218.58 155.011 1216.83 155.32 1214.72 155.32ZM1214.72 151.224C1215.4 151.224 1216.01 151.107 1216.55 150.872C1217.1 150.637 1217.54 150.307 1217.86 149.88C1218.18 149.432 1218.34 148.899 1218.34 148.28C1218.34 147.661 1218.18 147.139 1217.86 146.712C1217.54 146.285 1217.1 145.955 1216.55 145.72C1216.01 145.485 1215.4 145.368 1214.72 145.368C1214.04 145.368 1213.42 145.485 1212.87 145.72C1212.31 145.955 1211.87 146.285 1211.55 146.712C1211.23 147.139 1211.07 147.661 1211.07 148.28C1211.07 148.899 1211.23 149.432 1211.55 149.88C1211.87 150.307 1212.31 150.637 1212.87 150.872C1213.42 151.107 1214.04 151.224 1214.72 151.224ZM1214.72 141.496C1215.32 141.496 1215.86 141.389 1216.35 141.176C1216.84 140.941 1217.23 140.643 1217.51 140.28C1217.78 139.896 1217.92 139.448 1217.92 138.936C1217.92 138.424 1217.78 137.976 1217.51 137.592C1217.25 137.208 1216.88 136.909 1216.39 136.696C1215.9 136.483 1215.34 136.376 1214.72 136.376C1214.1 136.376 1213.55 136.483 1213.06 136.696C1212.59 136.909 1212.22 137.208 1211.94 137.592C1211.66 137.976 1211.52 138.424 1211.52 138.936C1211.52 139.448 1211.66 139.896 1211.94 140.28C1212.22 140.664 1212.59 140.963 1213.06 141.176C1213.55 141.389 1214.1 141.496 1214.72 141.496ZM1236.41 155.32C1234.87 155.32 1233.54 155.107 1232.41 154.68C1231.3 154.232 1230.37 153.624 1229.63 152.856C1228.88 152.088 1228.31 151.192 1227.93 150.168C1227.55 149.144 1227.32 148.045 1227.26 146.872C1227.24 146.296 1227.22 145.645 1227.19 144.92C1227.19 144.173 1227.19 143.427 1227.19 142.68C1227.22 141.912 1227.24 141.229 1227.26 140.632C1227.32 139.459 1227.55 138.371 1227.93 137.368C1228.34 136.344 1228.91 135.459 1229.66 134.712C1230.43 133.944 1231.37 133.347 1232.47 132.92C1233.61 132.493 1234.92 132.28 1236.41 132.28C1237.93 132.28 1239.24 132.493 1240.35 132.92C1241.48 133.347 1242.42 133.944 1243.16 134.712C1243.91 135.459 1244.49 136.344 1244.89 137.368C1245.3 138.371 1245.53 139.459 1245.59 140.632C1245.62 141.229 1245.63 141.912 1245.63 142.68C1245.65 143.427 1245.65 144.173 1245.63 144.92C1245.63 145.645 1245.62 146.296 1245.59 146.872C1245.53 148.045 1245.3 149.144 1244.89 150.168C1244.51 151.192 1243.94 152.088 1243.19 152.856C1242.47 153.624 1241.54 154.232 1240.41 154.68C1239.3 155.107 1237.97 155.32 1236.41 155.32ZM1236.41 150.68C1237.52 150.68 1238.32 150.328 1238.81 149.624C1239.32 148.899 1239.59 147.928 1239.61 146.712C1239.65 146.093 1239.67 145.443 1239.67 144.76C1239.7 144.077 1239.7 143.395 1239.67 142.712C1239.67 142.029 1239.65 141.4 1239.61 140.824C1239.59 139.651 1239.32 138.701 1238.81 137.976C1238.32 137.251 1237.52 136.877 1236.41 136.856C1235.32 136.877 1234.52 137.251 1234.01 137.976C1233.52 138.701 1233.25 139.651 1233.21 140.824C1233.21 141.4 1233.2 142.029 1233.18 142.712C1233.18 143.395 1233.18 144.077 1233.18 144.76C1233.2 145.443 1233.21 146.093 1233.21 146.712C1233.25 147.928 1233.53 148.899 1234.04 149.624C1234.55 150.328 1235.34 150.68 1236.41 150.68Z" fill="#1C3554"/>
<path fill-rule="evenodd" clip-rule="evenodd" d="M1217.96 56L1219.03 61.3333H1233V77.3333H1224.04L1222.97 72H1203.67V56H1217.96ZM1222.33 50.6667H1198.33V96H1203.67V77.3333H1218.6L1219.67 82.6667H1238.33V56H1223.4L1222.33 50.6667Z" fill="#F72585"/>
<path d="M842.312 196.208H833.984L832.736 199.4C832.688 199.528 832.6 199.664 832.472 199.808C832.344 199.936 832.12 200 831.8 200H830.912C830.768 200 830.64 199.952 830.528 199.856C830.432 199.744 830.384 199.616 830.384 199.472C830.384 199.392 830.416 199.28 830.48 199.136L836.36 183.992C836.44 183.816 836.56 183.64 836.72 183.464C836.88 183.288 837.12 183.2 837.44 183.2H838.88C839.2 183.2 839.44 183.288 839.6 183.464C839.76 183.64 839.88 183.816 839.96 183.992L845.816 199.136C845.88 199.28 845.912 199.392 845.912 199.472C845.912 199.616 845.856 199.744 845.744 199.856C845.648 199.952 845.528 200 845.384 200H844.496C844.176 200 843.952 199.936 843.824 199.808C843.696 199.664 843.608 199.528 843.56 199.4L842.312 196.208ZM834.824 194.048H841.472L838.16 185.48L834.824 194.048ZM849.58 194.6C849.644 195.24 849.78 195.784 849.988 196.232C850.212 196.68 850.476 197.048 850.78 197.336C851.1 197.624 851.452 197.84 851.836 197.984C852.22 198.112 852.612 198.176 853.012 198.176C853.78 198.176 854.436 198.032 854.98 197.744C855.524 197.456 855.948 196.976 856.252 196.304C856.364 196.048 856.476 195.88 856.588 195.8C856.716 195.704 856.868 195.656 857.044 195.656H857.764C857.94 195.656 858.092 195.72 858.22 195.848C858.364 195.976 858.428 196.128 858.412 196.304C858.396 196.688 858.268 197.112 858.028 197.576C857.804 198.024 857.46 198.448 856.996 198.848C856.548 199.232 855.988 199.56 855.316 199.832C854.66 200.104 853.892 200.24 853.012 200.24C852.132 200.24 851.348 200.096 850.66 199.808C849.988 199.52 849.412 199.128 848.932 198.632C848.468 198.136 848.1 197.552 847.828 196.88C847.572 196.208 847.428 195.488 847.396 194.72C847.38 194.464 847.364 194.152 847.348 193.784C847.348 193.4 847.364 193.072 847.396 192.8C847.46 192.032 847.62 191.312 847.876 190.64C848.148 189.968 848.516 189.384 848.98 188.888C849.444 188.392 850.012 188 850.684 187.712C851.356 187.424 852.132 187.28 853.012 187.28C853.892 187.28 854.66 187.416 855.316 187.688C855.988 187.96 856.548 188.296 856.996 188.696C857.46 189.08 857.804 189.504 858.028 189.968C858.268 190.416 858.396 190.832 858.412 191.216C858.428 191.392 858.364 191.544 858.22 191.672C858.092 191.8 857.94 191.864 857.764 191.864H857.044C856.868 191.864 856.716 191.824 856.588 191.744C856.476 191.648 856.364 191.472 856.252 191.216C855.948 190.544 855.524 190.064 854.98 189.776C854.436 189.488 853.78 189.344 853.012 189.344C852.612 189.344 852.212 189.416 851.812 189.56C851.428 189.688 851.076 189.896 850.756 190.184C850.452 190.472 850.188 190.84 849.964 191.288C849.756 191.736 849.628 192.28 849.58 192.92C849.532 193.512 849.532 194.072 849.58 194.6ZM864.548 195.8C864.548 196.104 864.572 196.392 864.62 196.664C864.684 196.92 864.788 197.144 864.932 197.336C865.076 197.528 865.276 197.68 865.532 197.792C865.804 197.888 866.148 197.936 866.564 197.936H867.836C868.012 197.936 868.164 198 868.292 198.128C868.42 198.256 868.484 198.408 868.484 198.584V199.352C868.484 199.528 868.42 199.68 868.292 199.808C868.164 199.936 868.012 200 867.836 200H866.324C864.932 200 863.924 199.64 863.3 198.92C862.676 198.2 862.364 197.16 862.364 195.8V189.584H860.588C860.412 189.584 860.26 189.52 860.132 189.392C860.004 189.264 859.94 189.112 859.94 188.936V188.168C859.94 187.992 860.004 187.84 860.132 187.712C860.26 187.584 860.412 187.52 860.588 187.52H862.364V183.608C862.364 183.432 862.428 183.28 862.556 183.152C862.684 183.024 862.836 182.96 863.012 182.96H863.9C864.076 182.96 864.228 183.024 864.356 183.152C864.484 183.28 864.548 183.432 864.548 183.608V187.52H867.596C867.772 187.52 867.924 187.584 868.052 187.712C868.18 187.84 868.244 187.992 868.244 188.168V188.936C868.244 189.112 868.18 189.264 868.052 189.392C867.924 189.52 867.772 189.584 867.596 189.584H864.548V195.8ZM873.078 199.352C873.078 199.528 873.014 199.68 872.886 199.808C872.758 199.936 872.606 200 872.43 200H871.542C871.366 200 871.214 199.936 871.086 199.808C870.958 199.68 870.894 199.528 870.894 199.352V188.168C870.894 187.992 870.958 187.84 871.086 187.712C871.214 187.584 871.366 187.52 871.542 187.52H872.43C872.606 187.52 872.758 187.584 872.886 187.712C873.014 187.84 873.078 187.992 873.078 188.168V199.352ZM873.318 184.976C873.318 185.152 873.254 185.304 873.126 185.432C872.998 185.56 872.846 185.624 872.67 185.624H871.302C871.126 185.624 870.974 185.56 870.846 185.432C870.718 185.304 870.654 185.152 870.654 184.976V183.608C870.654 183.432 870.718 183.28 870.846 183.152C870.974 183.024 871.126 182.96 871.302 182.96H872.67C872.846 182.96 872.998 183.024 873.126 183.152C873.254 183.28 873.318 183.432 873.318 183.608V184.976ZM881.171 200C880.963 200 880.803 199.936 880.691 199.808C880.579 199.68 880.491 199.544 880.427 199.4L875.651 188.264C875.635 188.216 875.627 188.16 875.627 188.096C875.627 187.936 875.683 187.8 875.795 187.688C875.907 187.576 876.043 187.52 876.203 187.52H877.091C877.331 187.52 877.507 187.584 877.619 187.712C877.747 187.84 877.835 187.968 877.883 188.096L881.603 196.808L885.323 188.096C885.371 187.968 885.451 187.84 885.563 187.712C885.675 187.584 885.827 187.52 886.019 187.52H887.003C887.163 187.52 887.299 187.576 887.411 187.688C887.523 187.8 887.579 187.936 887.579 188.096C887.579 188.16 887.571 188.216 887.555 188.264L882.779 199.4C882.715 199.544 882.627 199.68 882.515 199.808C882.419 199.936 882.267 200 882.059 200H881.171ZM889.068 192.56C889.132 191.824 889.308 191.136 889.596 190.496C889.884 189.856 890.26 189.296 890.724 188.816C891.188 188.336 891.74 187.96 892.38 187.688C893.036 187.416 893.764 187.28 894.564 187.28C895.428 187.28 896.196 187.424 896.868 187.712C897.556 187.984 898.14 188.384 898.62 188.912C899.1 189.44 899.468 190.08 899.724 190.832C899.98 191.584 900.108 192.424 900.108 193.352V194C900.108 194.176 900.044 194.328 899.916 194.456C899.788 194.584 899.636 194.648 899.46 194.648H891.204V194.792C891.236 195.88 891.564 196.72 892.188 197.312C892.828 197.888 893.62 198.176 894.564 198.176C895.444 198.176 896.1 198.056 896.532 197.816C896.98 197.56 897.34 197.28 897.612 196.976C897.74 196.848 897.852 196.76 897.948 196.712C898.044 196.664 898.188 196.64 898.38 196.64H899.1C899.276 196.64 899.436 196.704 899.58 196.832C899.724 196.96 899.78 197.112 899.748 197.288C899.7 197.576 899.564 197.896 899.34 198.248C899.116 198.584 898.788 198.904 898.356 199.208C897.94 199.496 897.412 199.744 896.772 199.952C896.148 200.144 895.412 200.24 894.564 200.24C893.764 200.24 893.044 200.104 892.404 199.832C891.764 199.544 891.204 199.16 890.724 198.68C890.26 198.184 889.884 197.608 889.596 196.952C889.308 196.28 889.132 195.552 889.068 194.768C888.988 194.032 888.988 193.296 889.068 192.56ZM891.204 192.632H897.948V192.56C897.948 191.584 897.636 190.808 897.012 190.232C896.404 189.64 895.588 189.344 894.564 189.344C894.1 189.344 893.668 189.424 893.268 189.584C892.868 189.728 892.516 189.944 892.212 190.232C891.908 190.504 891.668 190.84 891.492 191.24C891.316 191.64 891.22 192.08 891.204 192.56V192.632ZM916.591 193.352L921.439 183.968C921.535 183.776 921.663 183.6 921.823 183.44C921.999 183.28 922.223 183.2 922.495 183.2H923.407C923.583 183.2 923.735 183.264 923.863 183.392C923.991 183.52 924.055 183.672 924.055 183.848V199.352C924.055 199.528 923.991 199.68 923.863 199.808C923.735 199.936 923.583 200 923.407 200H922.423C922.247 200 922.095 199.936 921.967 199.808C921.839 199.68 921.775 199.528 921.775 199.352V187.976L918.031 195.2C917.903 195.44 917.767 195.632 917.623 195.776C917.479 195.904 917.287 195.968 917.047 195.968H916.135C915.895 195.968 915.703 195.904 915.559 195.776C915.415 195.632 915.279 195.44 915.151 195.2L911.407 187.976V199.352C911.407 199.528 911.343 199.68 911.215 199.808C911.087 199.936 910.935 200 910.759 200H909.775C909.599 200 909.447 199.936 909.319 199.808C909.191 199.68 909.127 199.528 909.127 199.352V183.848C909.127 183.672 909.191 183.52 909.319 183.392C909.447 183.264 909.599 183.2 909.775 183.2H910.687C910.959 183.2 911.175 183.28 911.335 183.44C911.511 183.6 911.647 183.776 911.743 183.968L916.591 193.352ZM927.341 192.56C927.405 191.824 927.581 191.136 927.869 190.496C928.157 189.856 928.533 189.296 928.997 188.816C929.461 188.336 930.013 187.96 930.653 187.688C931.309 187.416 932.037 187.28 932.837 187.28C933.701 187.28 934.469 187.424 935.141 187.712C935.829 187.984 936.413 188.384 936.893 188.912C937.373 189.44 937.741 190.08 937.997 190.832C938.253 191.584 938.381 192.424 938.381 193.352V194C938.381 194.176 938.317 194.328 938.189 194.456C938.061 194.584 937.909 194.648 937.733 194.648H929.477V194.792C929.509 195.88 929.837 196.72 930.461 197.312C931.101 197.888 931.893 198.176 932.837 198.176C933.717 198.176 934.373 198.056 934.805 197.816C935.253 197.56 935.613 197.28 935.885 196.976C936.013 196.848 936.125 196.76 936.221 196.712C936.317 196.664 936.461 196.64 936.653 196.64H937.373C937.549 196.64 937.709 196.704 937.853 196.832C937.997 196.96 938.053 197.112 938.021 197.288C937.973 197.576 937.837 197.896 937.613 198.248C937.389 198.584 937.061 198.904 936.629 199.208C936.213 199.496 935.685 199.744 935.045 199.952C934.421 200.144 933.685 200.24 932.837 200.24C932.037 200.24 931.317 200.104 930.677 199.832C930.037 199.544 929.477 199.16 928.997 198.68C928.533 198.184 928.157 197.608 927.869 196.952C927.581 196.28 927.405 195.552 927.341 194.768C927.261 194.032 927.261 193.296 927.341 192.56ZM929.477 192.632H936.221V192.56C936.221 191.584 935.909 190.808 935.285 190.232C934.677 189.64 933.861 189.344 932.837 189.344C932.373 189.344 931.941 189.424 931.541 189.584C931.141 189.728 930.789 189.944 930.485 190.232C930.181 190.504 929.941 190.84 929.765 191.24C929.589 191.64 929.493 192.08 929.477 192.56V192.632ZM952.365 199.352C952.365 199.528 952.301 199.68 952.173 199.808C952.045 199.936 951.893 200 951.717 200H950.829C950.653 200 950.501 199.936 950.373 199.808C950.245 199.68 950.181 199.528 950.181 199.352V193.016C950.181 191.784 949.885 190.864 949.293 190.256C948.701 189.648 947.877 189.344 946.821 189.344C945.813 189.344 944.997 189.648 944.373 190.256C943.765 190.864 943.461 191.784 943.461 193.016V199.352C943.461 199.528 943.397 199.68 943.269 199.808C943.141 199.936 942.989 200 942.813 200H941.925C941.749 200 941.597 199.936 941.469 199.808C941.341 199.68 941.277 199.528 941.277 199.352V188.168C941.277 187.992 941.341 187.84 941.469 187.712C941.597 187.584 941.749 187.52 941.925 187.52H942.813C942.989 187.52 943.141 187.584 943.269 187.712C943.397 187.84 943.461 187.992 943.461 188.168V188.912C943.765 188.512 944.213 188.144 944.805 187.808C945.413 187.456 946.205 187.28 947.181 187.28C947.933 187.28 948.629 187.408 949.269 187.664C949.909 187.904 950.453 188.256 950.901 188.72C951.365 189.168 951.725 189.728 951.981 190.4C952.237 191.072 952.365 191.824 952.365 192.656V199.352ZM958.931 195.8C958.931 196.104 958.955 196.392 959.003 196.664C959.067 196.92 959.171 197.144 959.315 197.336C959.459 197.528 959.659 197.68 959.915 197.792C960.187 197.888 960.531 197.936 960.947 197.936H962.219C962.395 197.936 962.547 198 962.675 198.128C962.803 198.256 962.867 198.408 962.867 198.584V199.352C962.867 199.528 962.803 199.68 962.675 199.808C962.547 199.936 962.395 200 962.219 200H960.707C959.315 200 958.307 199.64 957.683 198.92C957.059 198.2 956.747 197.16 956.747 195.8V189.584H954.971C954.795 189.584 954.643 189.52 954.515 189.392C954.387 189.264 954.323 189.112 954.323 188.936V188.168C954.323 187.992 954.387 187.84 954.515 187.712C954.643 187.584 954.795 187.52 954.971 187.52H956.747V183.608C956.747 183.432 956.811 183.28 956.939 183.152C957.067 183.024 957.219 182.96 957.395 182.96H958.283C958.459 182.96 958.611 183.024 958.739 183.152C958.867 183.28 958.931 183.432 958.931 183.608V187.52H961.979C962.155 187.52 962.307 187.584 962.435 187.712C962.563 187.84 962.627 187.992 962.627 188.168V188.936C962.627 189.112 962.563 189.264 962.435 189.392C962.307 189.52 962.155 189.584 961.979 189.584H958.931V195.8ZM970.389 187.28C971.253 187.28 972.021 187.416 972.693 187.688C973.365 187.944 973.941 188.304 974.421 188.768C974.901 189.232 975.277 189.8 975.549 190.472C975.837 191.128 976.013 191.848 976.077 192.632C976.093 192.776 976.101 192.952 976.101 193.16C976.101 193.352 976.101 193.56 976.101 193.784C976.101 193.992 976.101 194.2 976.101 194.408C976.101 194.6 976.093 194.76 976.077 194.888C975.997 195.688 975.821 196.416 975.549 197.072C975.277 197.728 974.901 198.288 974.421 198.752C973.941 199.216 973.365 199.584 972.693 199.856C972.021 200.112 971.253 200.24 970.389 200.24C969.525 200.24 968.757 200.112 968.085 199.856C967.413 199.584 966.837 199.216 966.357 198.752C965.877 198.288 965.493 197.728 965.205 197.072C964.933 196.416 964.765 195.688 964.701 194.888C964.685 194.76 964.669 194.6 964.653 194.408C964.653 194.2 964.653 193.992 964.653 193.784C964.653 193.56 964.653 193.352 964.653 193.16C964.669 192.952 964.685 192.776 964.701 192.632C964.765 191.848 964.933 191.128 965.205 190.472C965.493 189.8 965.877 189.232 966.357 188.768C966.837 188.304 967.413 187.944 968.085 187.688C968.757 187.416 969.525 187.28 970.389 187.28ZM973.893 194.768C973.925 194.496 973.941 194.168 973.941 193.784C973.941 193.384 973.925 193.04 973.893 192.752C973.845 192.272 973.741 191.824 973.581 191.408C973.421 190.992 973.197 190.632 972.909 190.328C972.621 190.024 972.269 189.784 971.853 189.608C971.437 189.432 970.949 189.344 970.389 189.344C969.829 189.344 969.341 189.432 968.925 189.608C968.509 189.784 968.157 190.024 967.869 190.328C967.581 190.632 967.357 190.992 967.197 191.408C967.037 191.824 966.933 192.272 966.885 192.752C966.853 193.04 966.837 193.384 966.837 193.784C966.837 194.168 966.853 194.496 966.885 194.768C966.933 195.248 967.037 195.696 967.197 196.112C967.357 196.528 967.581 196.888 967.869 197.192C968.157 197.496 968.509 197.736 968.925 197.912C969.341 198.088 969.829 198.176 970.389 198.176C970.949 198.176 971.437 198.088 971.853 197.912C972.269 197.736 972.621 197.496 972.909 197.192C973.197 196.888 973.421 196.528 973.581 196.112C973.741 195.696 973.845 195.248 973.893 194.768ZM985.464 187.52C985.64 187.52 985.792 187.584 985.92 187.712C986.048 187.84 986.112 187.992 986.112 188.168V188.936C986.112 189.112 986.048 189.264 985.92 189.392C985.792 189.52 985.64 189.584 985.464 189.584H984.072C982.232 189.584 981.312 190.504 981.312 192.344V199.352C981.312 199.528 981.248 199.68 981.12 199.808C980.992 199.936 980.84 200 980.664 200H979.776C979.6 200 979.448 199.936 979.32 199.808C979.192 199.68 979.128 199.528 979.128 199.352V188.168C979.128 187.992 979.192 187.84 979.32 187.712C979.448 187.584 979.6 187.52 979.776 187.52H980.664C980.84 187.52 980.992 187.584 981.12 187.712C981.248 187.84 981.312 187.992 981.312 188.168V188.912C981.632 188.432 982.016 188.08 982.464 187.856C982.912 187.632 983.496 187.52 984.216 187.52H985.464Z" fill="#1C3554"/>
<path d="M866.864 155C866.651 155 866.459 154.925 866.288 154.776C866.139 154.605 866.064 154.413 866.064 154.2V138.968L861.68 142.328C861.488 142.477 861.285 142.531 861.072 142.488C860.88 142.445 860.709 142.328 860.56 142.136L858.672 139.672C858.544 139.48 858.491 139.277 858.512 139.064C858.555 138.829 858.683 138.648 858.896 138.52L866.256 132.824C866.384 132.739 866.501 132.685 866.608 132.664C866.736 132.621 866.875 132.6 867.024 132.6H871.024C871.259 132.6 871.451 132.675 871.6 132.824C871.749 132.973 871.824 133.165 871.824 133.4V154.2C871.824 154.413 871.749 154.605 871.6 154.776C871.451 154.925 871.259 155 871.024 155H866.864ZM884.754 155.32C883.218 155.32 881.885 155.107 880.754 154.68C879.645 154.232 878.717 153.624 877.97 152.856C877.224 152.088 876.658 151.192 876.274 150.168C875.89 149.144 875.666 148.045 875.602 146.872C875.581 146.296 875.56 145.645 875.538 144.92C875.538 144.173 875.538 143.427 875.538 142.68C875.56 141.912 875.581 141.229 875.602 140.632C875.666 139.459 875.89 138.371 876.274 137.368C876.68 136.344 877.256 135.459 878.002 134.712C878.77 133.944 879.709 133.347 880.818 132.92C881.949 132.493 883.261 132.28 884.754 132.28C886.269 132.28 887.581 132.493 888.69 132.92C889.821 133.347 890.76 133.944 891.506 134.712C892.253 135.459 892.829 136.344 893.234 137.368C893.64 138.371 893.874 139.459 893.938 140.632C893.96 141.229 893.97 141.912 893.97 142.68C893.992 143.427 893.992 144.173 893.97 144.92C893.97 145.645 893.96 146.296 893.938 146.872C893.874 148.045 893.64 149.144 893.234 150.168C892.85 151.192 892.285 152.088 891.538 152.856C890.813 153.624 889.885 154.232 888.754 154.68C887.645 155.107 886.312 155.32 884.754 155.32ZM884.754 150.68C885.864 150.68 886.664 150.328 887.154 149.624C887.666 148.899 887.933 147.928 887.954 146.712C887.997 146.093 888.018 145.443 888.018 144.76C888.04 144.077 888.04 143.395 888.018 142.712C888.018 142.029 887.997 141.4 887.954 140.824C887.933 139.651 887.666 138.701 887.154 137.976C886.664 137.251 885.864 136.877 884.754 136.856C883.666 136.877 882.866 137.251 882.354 137.976C881.864 138.701 881.597 139.651 881.554 140.824C881.554 141.4 881.544 142.029 881.522 142.712C881.522 143.395 881.522 144.077 881.522 144.76C881.544 145.443 881.554 146.093 881.554 146.712C881.597 147.928 881.874 148.899 882.386 149.624C882.898 150.328 883.688 150.68 884.754 150.68ZM906.504 155.32C904.968 155.32 903.635 155.107 902.504 154.68C901.395 154.232 900.467 153.624 899.72 152.856C898.974 152.088 898.408 151.192 898.024 150.168C897.64 149.144 897.416 148.045 897.352 146.872C897.331 146.296 897.31 145.645 897.288 144.92C897.288 144.173 897.288 143.427 897.288 142.68C897.31 141.912 897.331 141.229 897.352 140.632C897.416 139.459 897.64 138.371 898.024 137.368C898.43 136.344 899.006 135.459 899.752 134.712C900.52 133.944 901.459 133.347 902.568 132.92C903.699 132.493 905.011 132.28 906.504 132.28C908.019 132.28 909.331 132.493 910.44 132.92C911.571 133.347 912.51 133.944 913.256 134.712C914.003 135.459 914.579 136.344 914.984 137.368C915.39 138.371 915.624 139.459 915.688 140.632C915.71 141.229 915.72 141.912 915.72 142.68C915.742 143.427 915.742 144.173 915.72 144.92C915.72 145.645 915.71 146.296 915.688 146.872C915.624 148.045 915.39 149.144 914.984 150.168C914.6 151.192 914.035 152.088 913.288 152.856C912.563 153.624 911.635 154.232 910.504 154.68C909.395 155.107 908.062 155.32 906.504 155.32ZM906.504 150.68C907.614 150.68 908.414 150.328 908.904 149.624C909.416 148.899 909.683 147.928 909.704 146.712C909.747 146.093 909.768 145.443 909.768 144.76C909.79 144.077 909.79 143.395 909.768 142.712C909.768 142.029 909.747 141.4 909.704 140.824C909.683 139.651 909.416 138.701 908.904 137.976C908.414 137.251 907.614 136.877 906.504 136.856C905.416 136.877 904.616 137.251 904.104 137.976C903.614 138.701 903.347 139.651 903.304 140.824C903.304 141.4 903.294 142.029 903.272 142.712C903.272 143.395 903.272 144.077 903.272 144.76C903.294 145.443 903.304 146.093 903.304 146.712C903.347 147.928 903.624 148.899 904.136 149.624C904.648 150.328 905.438 150.68 906.504 150.68ZM928.254 155.32C926.718 155.32 925.385 155.107 924.254 154.68C923.145 154.232 922.217 153.624 921.47 152.856C920.724 152.088 920.158 151.192 919.774 150.168C919.39 149.144 919.166 148.045 919.102 146.872C919.081 146.296 919.06 145.645 919.038 144.92C919.038 144.173 919.038 143.427 919.038 142.68C919.06 141.912 919.081 141.229 919.102 140.632C919.166 139.459 919.39 138.371 919.774 137.368C920.18 136.344 920.756 135.459 921.502 134.712C922.27 133.944 923.209 133.347 924.318 132.92C925.449 132.493 926.761 132.28 928.254 132.28C929.769 132.28 931.081 132.493 932.19 132.92C933.321 133.347 934.26 133.944 935.006 134.712C935.753 135.459 936.329 136.344 936.734 137.368C937.14 138.371 937.374 139.459 937.438 140.632C937.46 141.229 937.47 141.912 937.47 142.68C937.492 143.427 937.492 144.173 937.47 144.92C937.47 145.645 937.46 146.296 937.438 146.872C937.374 148.045 937.14 149.144 936.734 150.168C936.35 151.192 935.785 152.088 935.038 152.856C934.313 153.624 933.385 154.232 932.254 154.68C931.145 155.107 929.812 155.32 928.254 155.32ZM928.254 150.68C929.364 150.68 930.164 150.328 930.654 149.624C931.166 148.899 931.433 147.928 931.454 146.712C931.497 146.093 931.518 145.443 931.518 144.76C931.54 144.077 931.54 143.395 931.518 142.712C931.518 142.029 931.497 141.4 931.454 140.824C931.433 139.651 931.166 138.701 930.654 137.976C930.164 137.251 929.364 136.877 928.254 136.856C927.166 136.877 926.366 137.251 925.854 137.976C925.364 138.701 925.097 139.651 925.054 140.824C925.054 141.4 925.044 142.029 925.022 142.712C925.022 143.395 925.022 144.077 925.022 144.76C925.044 145.443 925.054 146.093 925.054 146.712C925.097 147.928 925.374 148.899 925.886 149.624C926.398 150.328 927.188 150.68 928.254 150.68ZM947.572 153.944C947.338 153.944 947.146 153.869 946.996 153.72C946.847 153.549 946.772 153.357 946.772 153.144V147.288H941.076C940.842 147.288 940.639 147.213 940.468 147.064C940.319 146.915 940.244 146.723 940.244 146.488V144.152C940.244 143.917 940.319 143.725 940.468 143.576C940.639 143.405 940.842 143.32 941.076 143.32H946.772V137.656C946.772 137.421 946.847 137.229 946.996 137.08C947.146 136.931 947.338 136.856 947.572 136.856H950.196C950.41 136.856 950.591 136.931 950.74 137.08C950.911 137.229 950.996 137.421 950.996 137.656V143.32H956.66C956.895 143.32 957.087 143.405 957.236 143.576C957.386 143.725 957.46 143.917 957.46 144.152V146.488C957.46 146.723 957.386 146.915 957.236 147.064C957.087 147.213 956.895 147.288 956.66 147.288H950.996V153.144C950.996 153.357 950.911 153.549 950.74 153.72C950.591 153.869 950.41 153.944 950.196 153.944H947.572Z" fill="#1C3554"/>
<path fill-rule="evenodd" clip-rule="evenodd" d="M908 101.333C891.8 101.333 878.667 88.2004 878.667 72C878.667 55.7997 891.8 42.6667 908 42.6667C924.2 42.6667 937.333 55.7997 937.333 72C937.333 88.2004 924.2 101.333 908 101.333ZM927.732 85.6657C930.423 81.7875 932 77.0779 932 72C932 58.7452 921.255 48 908 48C894.745 48 884 58.7452 884 72C884 77.0779 885.577 81.7875 888.268 85.6657C891.269 81.7015 898.322 80 908 80C917.678 80 924.731 81.7015 927.732 85.6657ZM923.906 89.9727C923.125 87.1663 917.518 85.3333 908 85.3333C898.482 85.3333 892.875 87.1663 892.094 89.9727C896.329 93.7231 901.899 96 908 96C914.102 96 919.671 93.7231 923.906 89.9727ZM908 80C902.029 80 897.333 75.8063 897.333 66.6667C897.333 60.682 901.544 56 908 56C914.438 56 918.667 61.1242 918.667 67.2C918.667 75.9456 913.915 80 908 80ZM902.667 66.6667C902.667 72.718 904.849 74.6667 908 74.6667C911.141 74.6667 913.333 72.7957 913.333 67.2C913.333 63.8678 911.242 61.3333 908 61.3333C904.623 61.3333 902.667 63.5089 902.667 66.6667Z" fill="#F72585"/>
<path d="M486.312 196.208H477.984L476.736 199.4C476.688 199.528 476.6 199.664 476.472 199.808C476.344 199.936 476.12 200 475.8 200H474.912C474.768 200 474.64 199.952 474.528 199.856C474.432 199.744 474.384 199.616 474.384 199.472C474.384 199.392 474.416 199.28 474.48 199.136L480.36 183.992C480.44 183.816 480.56 183.64 480.72 183.464C480.88 183.288 481.12 183.2 481.44 183.2H482.88C483.2 183.2 483.44 183.288 483.6 183.464C483.76 183.64 483.88 183.816 483.96 183.992L489.816 199.136C489.88 199.28 489.912 199.392 489.912 199.472C489.912 199.616 489.856 199.744 489.744 199.856C489.648 199.952 489.528 200 489.384 200H488.496C488.176 200 487.952 199.936 487.824 199.808C487.696 199.664 487.608 199.528 487.56 199.4L486.312 196.208ZM478.824 194.048H485.472L482.16 185.48L478.824 194.048ZM493.58 194.6C493.644 195.24 493.78 195.784 493.988 196.232C494.212 196.68 494.476 197.048 494.78 197.336C495.1 197.624 495.452 197.84 495.836 197.984C496.22 198.112 496.612 198.176 497.012 198.176C497.78 198.176 498.436 198.032 498.98 197.744C499.524 197.456 499.948 196.976 500.252 196.304C500.364 196.048 500.476 195.88 500.588 195.8C500.716 195.704 500.868 195.656 501.044 195.656H501.764C501.94 195.656 502.092 195.72 502.22 195.848C502.364 195.976 502.428 196.128 502.412 196.304C502.396 196.688 502.268 197.112 502.028 197.576C501.804 198.024 501.46 198.448 500.996 198.848C500.548 199.232 499.988 199.56 499.316 199.832C498.66 200.104 497.892 200.24 497.012 200.24C496.132 200.24 495.348 200.096 494.66 199.808C493.988 199.52 493.412 199.128 492.932 198.632C492.468 198.136 492.1 197.552 491.828 196.88C491.572 196.208 491.428 195.488 491.396 194.72C491.38 194.464 491.364 194.152 491.348 193.784C491.348 193.4 491.364 193.072 491.396 192.8C491.46 192.032 491.62 191.312 491.876 190.64C492.148 189.968 492.516 189.384 492.98 188.888C493.444 188.392 494.012 188 494.684 187.712C495.356 187.424 496.132 187.28 497.012 187.28C497.892 187.28 498.66 187.416 499.316 187.688C499.988 187.96 500.548 188.296 500.996 188.696C501.46 189.08 501.804 189.504 502.028 189.968C502.268 190.416 502.396 190.832 502.412 191.216C502.428 191.392 502.364 191.544 502.22 191.672C502.092 191.8 501.94 191.864 501.764 191.864H501.044C500.868 191.864 500.716 191.824 500.588 191.744C500.476 191.648 500.364 191.472 500.252 191.216C499.948 190.544 499.524 190.064 498.98 189.776C498.436 189.488 497.78 189.344 497.012 189.344C496.612 189.344 496.212 189.416 495.812 189.56C495.428 189.688 495.076 189.896 494.756 190.184C494.452 190.472 494.188 190.84 493.964 191.288C493.756 191.736 493.628 192.28 493.58 192.92C493.532 193.512 493.532 194.072 493.58 194.6ZM508.548 195.8C508.548 196.104 508.572 196.392 508.62 196.664C508.684 196.92 508.788 197.144 508.932 197.336C509.076 197.528 509.276 197.68 509.532 197.792C509.804 197.888 510.148 197.936 510.564 197.936H511.836C512.012 197.936 512.164 198 512.292 198.128C512.42 198.256 512.484 198.408 512.484 198.584V199.352C512.484 199.528 512.42 199.68 512.292 199.808C512.164 199.936 512.012 200 511.836 200H510.324C508.932 200 507.924 199.64 507.3 198.92C506.676 198.2 506.364 197.16 506.364 195.8V189.584H504.588C504.412 189.584 504.26 189.52 504.132 189.392C504.004 189.264 503.94 189.112 503.94 188.936V188.168C503.94 187.992 504.004 187.84 504.132 187.712C504.26 187.584 504.412 187.52 504.588 187.52H506.364V183.608C506.364 183.432 506.428 183.28 506.556 183.152C506.684 183.024 506.836 182.96 507.012 182.96H507.9C508.076 182.96 508.228 183.024 508.356 183.152C508.484 183.28 508.548 183.432 508.548 183.608V187.52H511.596C511.772 187.52 511.924 187.584 512.052 187.712C512.18 187.84 512.244 187.992 512.244 188.168V188.936C512.244 189.112 512.18 189.264 512.052 189.392C511.924 189.52 511.772 189.584 511.596 189.584H508.548V195.8ZM517.078 199.352C517.078 199.528 517.014 199.68 516.886 199.808C516.758 199.936 516.606 200 516.43 200H515.542C515.366 200 515.214 199.936 515.086 199.808C514.958 199.68 514.894 199.528 514.894 199.352V188.168C514.894 187.992 514.958 187.84 515.086 187.712C515.214 187.584 515.366 187.52 515.542 187.52H516.43C516.606 187.52 516.758 187.584 516.886 187.712C517.014 187.84 517.078 187.992 517.078 188.168V199.352ZM517.318 184.976C517.318 185.152 517.254 185.304 517.126 185.432C516.998 185.56 516.846 185.624 516.67 185.624H515.302C515.126 185.624 514.974 185.56 514.846 185.432C514.718 185.304 514.654 185.152 514.654 184.976V183.608C514.654 183.432 514.718 183.28 514.846 183.152C514.974 183.024 515.126 182.96 515.302 182.96H516.67C516.846 182.96 516.998 183.024 517.126 183.152C517.254 183.28 517.318 183.432 517.318 183.608V184.976ZM525.171 200C524.963 200 524.803 199.936 524.691 199.808C524.579 199.68 524.491 199.544 524.427 199.4L519.651 188.264C519.635 188.216 519.627 188.16 519.627 188.096C519.627 187.936 519.683 187.8 519.795 187.688C519.907 187.576 520.043 187.52 520.203 187.52H521.091C521.331 187.52 521.507 187.584 521.619 187.712C521.747 187.84 521.835 187.968 521.883 188.096L525.603 196.808L529.323 188.096C529.371 187.968 529.451 187.84 529.563 187.712C529.675 187.584 529.827 187.52 530.019 187.52H531.003C531.163 187.52 531.299 187.576 531.411 187.688C531.523 187.8 531.579 187.936 531.579 188.096C531.579 188.16 531.571 188.216 531.555 188.264L526.779 199.4C526.715 199.544 526.627 199.68 526.515 199.808C526.419 199.936 526.267 200 526.059 200H525.171ZM533.068 192.56C533.132 191.824 533.308 191.136 533.596 190.496C533.884 189.856 534.26 189.296 534.724 188.816C535.188 188.336 535.74 187.96 536.38 187.688C537.036 187.416 537.764 187.28 538.564 187.28C539.428 187.28 540.196 187.424 540.868 187.712C541.556 187.984 542.14 188.384 542.62 188.912C543.1 189.44 543.468 190.08 543.724 190.832C543.98 191.584 544.108 192.424 544.108 193.352V194C544.108 194.176 544.044 194.328 543.916 194.456C543.788 194.584 543.636 194.648 543.46 194.648H535.204V194.792C535.236 195.88 535.564 196.72 536.188 197.312C536.828 197.888 537.62 198.176 538.564 198.176C539.444 198.176 540.1 198.056 540.532 197.816C540.98 197.56 541.34 197.28 541.612 196.976C541.74 196.848 541.852 196.76 541.948 196.712C542.044 196.664 542.188 196.64 542.38 196.64H543.1C543.276 196.64 543.436 196.704 543.58 196.832C543.724 196.96 543.78 197.112 543.748 197.288C543.7 197.576 543.564 197.896 543.34 198.248C543.116 198.584 542.788 198.904 542.356 199.208C541.94 199.496 541.412 199.744 540.772 199.952C540.148 200.144 539.412 200.24 538.564 200.24C537.764 200.24 537.044 200.104 536.404 199.832C535.764 199.544 535.204 199.16 534.724 198.68C534.26 198.184 533.884 197.608 533.596 196.952C533.308 196.28 533.132 195.552 533.068 194.768C532.988 194.032 532.988 193.296 533.068 192.56ZM535.204 192.632H541.948V192.56C541.948 191.584 541.636 190.808 541.012 190.232C540.404 189.64 539.588 189.344 538.564 189.344C538.1 189.344 537.668 189.424 537.268 189.584C536.868 189.728 536.516 189.944 536.212 190.232C535.908 190.504 535.668 190.84 535.492 191.24C535.316 191.64 535.22 192.08 535.204 192.56V192.632ZM558.287 182.96C559.263 182.96 560.119 183.112 560.855 183.416C561.607 183.72 562.239 184.096 562.751 184.544C563.279 184.976 563.679 185.448 563.951 185.96C564.223 186.456 564.367 186.904 564.383 187.304C564.399 187.448 564.351 187.576 564.239 187.688C564.127 187.784 563.999 187.832 563.855 187.832H562.871C562.695 187.832 562.551 187.8 562.439 187.736C562.343 187.672 562.239 187.528 562.127 187.304C562.047 187.144 561.911 186.944 561.719 186.704C561.543 186.448 561.295 186.208 560.975 185.984C560.671 185.744 560.295 185.544 559.847 185.384C559.399 185.208 558.879 185.12 558.287 185.12C557.839 185.12 557.407 185.176 556.991 185.288C556.591 185.384 556.231 185.536 555.911 185.744C555.591 185.952 555.335 186.216 555.143 186.536C554.951 186.84 554.855 187.2 554.855 187.616C554.855 188.032 554.943 188.384 555.119 188.672C555.311 188.96 555.607 189.224 556.007 189.464C556.423 189.688 556.943 189.896 557.567 190.088C558.191 190.28 558.951 190.496 559.847 190.736C560.759 190.976 561.527 191.24 562.151 191.528C562.791 191.816 563.311 192.144 563.711 192.512C564.111 192.864 564.399 193.28 564.575 193.76C564.767 194.224 564.863 194.752 564.863 195.344C564.863 196.064 564.703 196.728 564.383 197.336C564.079 197.928 563.647 198.44 563.087 198.872C562.527 199.304 561.847 199.64 561.047 199.88C560.263 200.12 559.383 200.24 558.407 200.24C557.479 200.24 556.623 200.104 555.839 199.832C555.055 199.56 554.383 199.208 553.823 198.776C553.263 198.344 552.815 197.864 552.479 197.336C552.159 196.808 551.991 196.288 551.975 195.776C551.975 195.632 552.023 195.512 552.119 195.416C552.231 195.304 552.359 195.248 552.503 195.248H553.487C553.647 195.248 553.783 195.28 553.895 195.344C554.023 195.408 554.135 195.552 554.23 195.776C554.327 196 554.471 196.248 554.663 196.52C554.871 196.776 555.143 197.024 555.479 197.264C555.815 197.488 556.223 197.68 556.703 197.84C557.183 198 557.751 198.08 558.407 198.08C558.967 198.08 559.495 198.016 559.991 197.888C560.503 197.76 560.951 197.576 561.335 197.336C561.719 197.096 562.023 196.808 562.247 196.472C562.471 196.136 562.583 195.76 562.583 195.344C562.583 194.928 562.455 194.576 562.199 194.288C561.943 193.984 561.575 193.712 561.095 193.472C560.615 193.232 560.023 193.016 559.319 192.824C558.631 192.616 557.847 192.4 556.967 192.176C556.167 191.968 555.487 191.72 554.927 191.432C554.367 191.128 553.911 190.784 553.559 190.4C553.207 190.016 552.951 189.592 552.791 189.128C552.647 188.664 552.575 188.16 552.575 187.616C552.575 187.024 552.695 186.448 552.935 185.888C553.175 185.328 553.527 184.832 553.991 184.4C554.471 183.968 555.063 183.624 555.767 183.368C556.487 183.096 557.327 182.96 558.287 182.96ZM570.962 195.8C570.962 196.104 570.986 196.392 571.034 196.664C571.098 196.92 571.202 197.144 571.346 197.336C571.49 197.528 571.69 197.68 571.946 197.792C572.218 197.888 572.562 197.936 572.978 197.936H574.25C574.426 197.936 574.578 198 574.706 198.128C574.834 198.256 574.898 198.408 574.898 198.584V199.352C574.898 199.528 574.834 199.68 574.706 199.808C574.578 199.936 574.426 200 574.25 200H572.738C571.346 200 570.338 199.64 569.714 198.92C569.09 198.2 568.778 197.16 568.778 195.8V189.584H567.002C566.826 189.584 566.674 189.52 566.546 189.392C566.418 189.264 566.354 189.112 566.354 188.936V188.168C566.354 187.992 566.418 187.84 566.546 187.712C566.674 187.584 566.826 187.52 567.002 187.52H568.778V183.608C568.778 183.432 568.842 183.28 568.97 183.152C569.098 183.024 569.25 182.96 569.426 182.96H570.314C570.49 182.96 570.642 183.024 570.77 183.152C570.898 183.28 570.962 183.432 570.962 183.608V187.52H574.01C574.186 187.52 574.338 187.584 574.466 187.712C574.594 187.84 574.658 187.992 574.658 188.168V188.936C574.658 189.112 574.594 189.264 574.466 189.392C574.338 189.52 574.186 189.584 574.01 189.584H570.962V195.8ZM577.188 188.168C577.188 187.992 577.252 187.84 577.38 187.712C577.508 187.584 577.66 187.52 577.836 187.52H578.724C578.9 187.52 579.052 187.584 579.18 187.712C579.308 187.84 579.372 187.992 579.372 188.168V194.504C579.372 195.736 579.644 196.656 580.188 197.264C580.748 197.872 581.556 198.176 582.612 198.176C583.62 198.176 584.412 197.872 584.988 197.264C585.564 196.656 585.852 195.736 585.852 194.504V188.168C585.852 187.992 585.916 187.84 586.044 187.712C586.172 187.584 586.324 187.52 586.5 187.52H587.388C587.564 187.52 587.716 187.584 587.844 187.712C587.972 187.84 588.036 187.992 588.036 188.168V199.352C588.036 199.528 587.972 199.68 587.844 199.808C587.716 199.936 587.564 200 587.388 200H586.5C586.324 200 586.172 199.936 586.044 199.808C585.916 199.68 585.852 199.528 585.852 199.352V198.608C585.548 199.008 585.116 199.384 584.556 199.736C583.996 200.072 583.228 200.24 582.252 200.24C581.5 200.24 580.812 200.12 580.188 199.88C579.564 199.624 579.028 199.272 578.58 198.824C578.132 198.36 577.788 197.8 577.548 197.144C577.308 196.472 577.188 195.712 577.188 194.864V188.168ZM596.476 187.28C597.468 187.28 598.26 187.456 598.852 187.808C599.444 188.144 599.892 188.512 600.196 188.912V183.608C600.196 183.432 600.26 183.28 600.388 183.152C600.516 183.024 600.668 182.96 600.844 182.96H601.732C601.908 182.96 602.06 183.024 602.188 183.152C602.316 183.28 602.38 183.432 602.38 183.608V199.352C602.38 199.528 602.316 199.68 602.188 199.808C602.06 199.936 601.908 200 601.732 200H600.844C600.668 200 600.516 199.936 600.388 199.808C600.26 199.68 600.196 199.528 600.196 199.352V198.608C599.876 199.04 599.42 199.424 598.828 199.76C598.236 200.08 597.452 200.24 596.476 200.24C595.724 200.24 595.02 200.112 594.364 199.856C593.724 199.584 593.164 199.2 592.684 198.704C592.204 198.208 591.82 197.608 591.532 196.904C591.244 196.2 591.076 195.408 591.028 194.528C591.012 194.288 591.004 194.032 591.004 193.76C591.004 193.472 591.012 193.208 591.028 192.968C591.076 192.088 591.244 191.296 591.532 190.592C591.82 189.888 592.204 189.296 592.684 188.816C593.164 188.32 593.724 187.944 594.364 187.688C595.02 187.416 595.724 187.28 596.476 187.28ZM600.196 194.792C600.212 194.552 600.22 194.24 600.22 193.856C600.22 193.456 600.212 193.136 600.196 192.896C600.148 191.76 599.804 190.888 599.164 190.28C598.54 189.656 597.724 189.344 596.716 189.344C595.66 189.344 594.828 189.68 594.22 190.352C593.612 191.024 593.276 191.936 593.212 193.088C593.196 193.536 593.196 193.984 593.212 194.432C593.276 195.584 593.612 196.496 594.22 197.168C594.828 197.84 595.66 198.176 596.716 198.176C597.708 198.176 598.524 197.872 599.164 197.264C599.804 196.656 600.148 195.832 600.196 194.792ZM605.396 192.56C605.46 191.824 605.636 191.136 605.924 190.496C606.212 189.856 606.588 189.296 607.052 188.816C607.516 188.336 608.068 187.96 608.708 187.688C609.364 187.416 610.092 187.28 610.892 187.28C611.756 187.28 612.524 187.424 613.196 187.712C613.884 187.984 614.468 188.384 614.948 188.912C615.428 189.44 615.796 190.08 616.052 190.832C616.308 191.584 616.436 192.424 616.436 193.352V194C616.436 194.176 616.372 194.328 616.244 194.456C616.116 194.584 615.964 194.648 615.788 194.648H607.532V194.792C607.564 195.88 607.892 196.72 608.516 197.312C609.156 197.888 609.948 198.176 610.892 198.176C611.772 198.176 612.428 198.056 612.86 197.816C613.308 197.56 613.668 197.28 613.94 196.976C614.068 196.848 614.18 196.76 614.276 196.712C614.372 196.664 614.516 196.64 614.708 196.64H615.428C615.604 196.64 615.764 196.704 615.908 196.832C616.052 196.96 616.108 197.112 616.076 197.288C616.028 197.576 615.892 197.896 615.668 198.248C615.444 198.584 615.116 198.904 614.684 199.208C614.268 199.496 613.74 199.744 613.1 199.952C612.476 200.144 611.74 200.24 610.892 200.24C610.092 200.24 609.372 200.104 608.732 199.832C608.092 199.544 607.532 199.16 607.052 198.68C606.588 198.184 606.212 197.608 605.924 196.952C605.636 196.28 605.46 195.552 605.396 194.768C605.316 194.032 605.316 193.296 605.396 192.56ZM607.532 192.632H614.276V192.56C614.276 191.584 613.964 190.808 613.34 190.232C612.732 189.64 611.916 189.344 610.892 189.344C610.428 189.344 609.996 189.424 609.596 189.584C609.196 189.728 608.844 189.944 608.54 190.232C608.236 190.504 607.996 190.84 607.82 191.24C607.644 191.64 607.548 192.08 607.532 192.56V192.632ZM630.419 199.352C630.419 199.528 630.355 199.68 630.227 199.808C630.099 199.936 629.947 200 629.771 200H628.883C628.707 200 628.555 199.936 628.427 199.808C628.299 199.68 628.235 199.528 628.235 199.352V193.016C628.235 191.784 627.939 190.864 627.347 190.256C626.755 189.648 625.931 189.344 624.875 189.344C623.867 189.344 623.051 189.648 622.427 190.256C621.819 190.864 621.515 191.784 621.515 193.016V199.352C621.515 199.528 621.451 199.68 621.323 199.808C621.195 199.936 621.043 200 620.867 200H619.979C619.803 200 619.651 199.936 619.523 199.808C619.395 199.68 619.331 199.528 619.331 199.352V188.168C619.331 187.992 619.395 187.84 619.523 187.712C619.651 187.584 619.803 187.52 619.979 187.52H620.867C621.043 187.52 621.195 187.584 621.323 187.712C621.451 187.84 621.515 187.992 621.515 188.168V188.912C621.819 188.512 622.267 188.144 622.859 187.808C623.467 187.456 624.259 187.28 625.235 187.28C625.987 187.28 626.683 187.408 627.323 187.664C627.963 187.904 628.507 188.256 628.955 188.72C629.419 189.168 629.779 189.728 630.035 190.4C630.291 191.072 630.419 191.824 630.419 192.656V199.352ZM636.986 195.8C636.986 196.104 637.01 196.392 637.058 196.664C637.122 196.92 637.226 197.144 637.37 197.336C637.514 197.528 637.714 197.68 637.97 197.792C638.242 197.888 638.586 197.936 639.002 197.936H640.274C640.45 197.936 640.602 198 640.73 198.128C640.858 198.256 640.922 198.408 640.922 198.584V199.352C640.922 199.528 640.858 199.68 640.73 199.808C640.602 199.936 640.45 200 640.274 200H638.762C637.37 200 636.362 199.64 635.738 198.92C635.114 198.2 634.802 197.16 634.802 195.8V189.584H633.026C632.85 189.584 632.698 189.52 632.57 189.392C632.442 189.264 632.378 189.112 632.378 188.936V188.168C632.378 187.992 632.442 187.84 632.57 187.712C632.698 187.584 632.85 187.52 633.026 187.52H634.802V183.608C634.802 183.432 634.866 183.28 634.994 183.152C635.122 183.024 635.274 182.96 635.45 182.96H636.338C636.514 182.96 636.666 183.024 636.794 183.152C636.922 183.28 636.986 183.432 636.986 183.608V187.52H640.034C640.21 187.52 640.362 187.584 640.49 187.712C640.618 187.84 640.682 187.992 640.682 188.168V188.936C640.682 189.112 640.618 189.264 640.49 189.392C640.362 189.52 640.21 189.584 640.034 189.584H636.986V195.8ZM650.435 196.544C650.435 196.24 650.347 195.992 650.171 195.8C650.011 195.592 649.763 195.416 649.427 195.272C649.091 195.128 648.659 194.992 648.131 194.864C647.619 194.736 647.019 194.6 646.331 194.456C645.035 194.184 644.123 193.736 643.595 193.112C643.083 192.472 642.827 191.728 642.827 190.88C642.827 190.4 642.923 189.944 643.115 189.512C643.307 189.08 643.595 188.696 643.979 188.36C644.363 188.024 644.843 187.76 645.419 187.568C646.011 187.376 646.699 187.28 647.483 187.28C648.267 187.28 648.947 187.368 649.523 187.544C650.115 187.72 650.611 187.944 651.011 188.216C651.411 188.488 651.715 188.784 651.923 189.104C652.131 189.408 652.243 189.704 652.259 189.992C652.275 190.168 652.211 190.32 652.067 190.448C651.939 190.576 651.787 190.64 651.611 190.64H650.819C650.723 190.64 650.603 190.624 650.459 190.592C650.331 190.544 650.211 190.448 650.099 190.304C649.891 190.032 649.579 189.808 649.163 189.632C648.763 189.44 648.203 189.344 647.483 189.344C646.747 189.344 646.147 189.48 645.683 189.752C645.235 190.024 645.011 190.4 645.011 190.88C645.011 191.184 645.075 191.432 645.203 191.624C645.331 191.8 645.539 191.96 645.827 192.104C646.115 192.232 646.491 192.352 646.955 192.464C647.435 192.576 648.027 192.712 648.731 192.872C649.467 193.032 650.083 193.24 650.579 193.496C651.075 193.736 651.475 194.016 651.779 194.336C652.083 194.64 652.299 194.984 652.427 195.368C652.555 195.736 652.619 196.128 652.619 196.544C652.619 197.024 652.499 197.488 652.259 197.936C652.035 198.384 651.707 198.776 651.275 199.112C650.843 199.448 650.315 199.72 649.691 199.928C649.083 200.136 648.387 200.24 647.603 200.24C646.819 200.24 646.123 200.144 645.515 199.952C644.907 199.76 644.387 199.528 643.955 199.256C643.523 198.968 643.187 198.664 642.947 198.344C642.723 198.008 642.603 197.696 642.587 197.408C642.571 197.232 642.627 197.08 642.755 196.952C642.883 196.824 643.043 196.76 643.235 196.76H644.099C644.195 196.76 644.307 196.776 644.435 196.808C644.563 196.824 644.683 196.912 644.795 197.072C645.051 197.424 645.403 197.696 645.851 197.888C646.299 198.08 646.883 198.176 647.603 198.176C647.955 198.176 648.299 198.136 648.635 198.056C648.987 197.976 649.291 197.864 649.547 197.72C649.819 197.576 650.035 197.408 650.195 197.216C650.355 197.008 650.435 196.784 650.435 196.544Z" fill="#1C3554"/>
<path d="M506.24 155.352C504.235 155.352 502.56 155.043 501.216 154.424C499.872 153.784 498.848 152.963 498.144 151.96C497.461 150.936 497.099 149.837 497.056 148.664C497.056 148.472 497.12 148.312 497.248 148.184C497.376 148.056 497.536 147.992 497.728 147.992H502.016C502.293 147.992 502.507 148.045 502.656 148.152C502.827 148.259 502.955 148.408 503.04 148.6C503.232 149.091 503.488 149.496 503.808 149.816C504.128 150.136 504.491 150.371 504.896 150.52C505.301 150.669 505.76 150.744 506.272 150.744C506.869 150.744 507.424 150.616 507.936 150.36C508.448 150.104 508.853 149.731 509.152 149.24C509.472 148.728 509.632 148.12 509.632 147.416C509.632 146.776 509.483 146.221 509.184 145.752C508.907 145.283 508.512 144.909 508 144.632C507.509 144.355 506.933 144.216 506.272 144.216C505.76 144.216 505.344 144.28 505.024 144.408C504.704 144.515 504.437 144.653 504.224 144.824C504.011 144.995 503.819 145.144 503.648 145.272C503.477 145.379 503.285 145.432 503.072 145.432H498.88C498.688 145.432 498.517 145.368 498.368 145.24C498.24 145.091 498.176 144.92 498.176 144.728L499.328 133.56C499.371 133.24 499.488 133.005 499.68 132.856C499.872 132.685 500.107 132.6 500.384 132.6H513.216C513.451 132.6 513.643 132.675 513.792 132.824C513.963 132.973 514.048 133.165 514.048 133.4V136.408C514.048 136.643 513.963 136.835 513.792 136.984C513.643 137.133 513.451 137.208 513.216 137.208H503.936L503.52 141.336C503.989 141.037 504.533 140.781 505.152 140.568C505.792 140.355 506.667 140.248 507.776 140.248C508.779 140.248 509.739 140.429 510.656 140.792C511.595 141.133 512.427 141.624 513.152 142.264C513.899 142.904 514.475 143.672 514.88 144.568C515.307 145.443 515.52 146.435 515.52 147.544C515.52 149.059 515.147 150.403 514.4 151.576C513.675 152.749 512.619 153.677 511.232 154.36C509.845 155.021 508.181 155.352 506.24 155.352ZM527.536 155.32C526 155.32 524.666 155.107 523.536 154.68C522.426 154.232 521.498 153.624 520.752 152.856C520.005 152.088 519.44 151.192 519.056 150.168C518.672 149.144 518.448 148.045 518.384 146.872C518.362 146.296 518.341 145.645 518.32 144.92C518.32 144.173 518.32 143.427 518.32 142.68C518.341 141.912 518.362 141.229 518.384 140.632C518.448 139.459 518.672 138.371 519.056 137.368C519.461 136.344 520.037 135.459 520.784 134.712C521.552 133.944 522.49 133.347 523.6 132.92C524.73 132.493 526.042 132.28 527.536 132.28C529.05 132.28 530.362 132.493 531.472 132.92C532.602 133.347 533.541 133.944 534.288 134.712C535.034 135.459 535.61 136.344 536.016 137.368C536.421 138.371 536.656 139.459 536.72 140.632C536.741 141.229 536.752 141.912 536.752 142.68C536.773 143.427 536.773 144.173 536.752 144.92C536.752 145.645 536.741 146.296 536.72 146.872C536.656 148.045 536.421 149.144 536.016 150.168C535.632 151.192 535.066 152.088 534.319 152.856C533.594 153.624 532.666 154.232 531.536 154.68C530.426 155.107 529.093 155.32 527.536 155.32ZM527.536 150.68C528.645 150.68 529.445 150.328 529.936 149.624C530.448 148.899 530.714 147.928 530.736 146.712C530.778 146.093 530.8 145.443 530.8 144.76C530.821 144.077 530.821 143.395 530.8 142.712C530.8 142.029 530.778 141.4 530.736 140.824C530.714 139.651 530.448 138.701 529.936 137.976C529.445 137.251 528.645 136.877 527.536 136.856C526.448 136.877 525.648 137.251 525.135 137.976C524.645 138.701 524.378 139.651 524.336 140.824C524.336 141.4 524.325 142.029 524.304 142.712C524.304 143.395 524.304 144.077 524.304 144.76C524.325 145.443 524.336 146.093 524.336 146.712C524.378 147.928 524.656 148.899 525.168 149.624C525.68 150.328 526.469 150.68 527.536 150.68ZM540.747 155C540.512 155 540.32 154.925 540.171 154.776C540.021 154.605 539.947 154.413 539.947 154.2V150.136C539.947 149.901 540.021 149.709 540.171 149.56C540.32 149.411 540.512 149.336 540.747 149.336H544.811C545.024 149.336 545.205 149.411 545.355 149.56C545.525 149.709 545.611 149.901 545.611 150.136V154.2C545.611 154.413 545.525 154.605 545.355 154.776C545.205 154.925 545.024 155 544.811 155H540.747ZM557.942 155.32C556.406 155.32 555.072 155.107 553.942 154.68C552.832 154.232 551.904 153.624 551.158 152.856C550.411 152.088 549.846 151.192 549.462 150.168C549.078 149.144 548.854 148.045 548.79 146.872C548.768 146.296 548.747 145.645 548.726 144.92C548.726 144.173 548.726 143.427 548.726 142.68C548.747 141.912 548.768 141.229 548.79 140.632C548.854 139.459 549.078 138.371 549.462 137.368C549.867 136.344 550.443 135.459 551.19 134.712C551.958 133.944 552.896 133.347 554.006 132.92C555.136 132.493 556.448 132.28 557.942 132.28C559.456 132.28 560.768 132.493 561.878 132.92C563.008 133.347 563.947 133.944 564.694 134.712C565.44 135.459 566.016 136.344 566.422 137.368C566.827 138.371 567.062 139.459 567.126 140.632C567.147 141.229 567.158 141.912 567.158 142.68C567.179 143.427 567.179 144.173 567.158 144.92C567.158 145.645 567.147 146.296 567.126 146.872C567.062 148.045 566.827 149.144 566.422 150.168C566.038 151.192 565.472 152.088 564.726 152.856C564 153.624 563.072 154.232 561.942 154.68C560.832 155.107 559.499 155.32 557.942 155.32ZM557.942 150.68C559.051 150.68 559.851 150.328 560.342 149.624C560.854 148.899 561.12 147.928 561.142 146.712C561.184 146.093 561.206 145.443 561.206 144.76C561.227 144.077 561.227 143.395 561.206 142.712C561.206 142.029 561.184 141.4 561.142 140.824C561.12 139.651 560.854 138.701 560.342 137.976C559.851 137.251 559.051 136.877 557.942 136.856C556.854 136.877 556.054 137.251 555.542 137.976C555.051 138.701 554.784 139.651 554.742 140.824C554.742 141.4 554.731 142.029 554.71 142.712C554.71 143.395 554.71 144.077 554.71 144.76C554.731 145.443 554.742 146.093 554.742 146.712C554.784 147.928 555.062 148.899 555.574 149.624C556.086 150.328 556.875 150.68 557.942 150.68ZM579.692 155.32C578.156 155.32 576.822 155.107 575.692 154.68C574.582 154.232 573.654 153.624 572.908 152.856C572.161 152.088 571.596 151.192 571.212 150.168C570.828 149.144 570.604 148.045 570.54 146.872C570.518 146.296 570.497 145.645 570.476 144.92C570.476 144.173 570.476 143.427 570.476 142.68C570.497 141.912 570.518 141.229 570.54 140.632C570.604 139.459 570.828 138.371 571.212 137.368C571.617 136.344 572.193 135.459 572.94 134.712C573.708 133.944 574.646 133.347 575.756 132.92C576.886 132.493 578.198 132.28 579.692 132.28C581.206 132.28 582.518 132.493 583.628 132.92C584.758 133.347 585.697 133.944 586.444 134.712C587.19 135.459 587.766 136.344 588.172 137.368C588.577 138.371 588.812 139.459 588.876 140.632C588.897 141.229 588.908 141.912 588.908 142.68C588.929 143.427 588.929 144.173 588.908 144.92C588.908 145.645 588.897 146.296 588.876 146.872C588.812 148.045 588.577 149.144 588.172 150.168C587.788 151.192 587.222 152.088 586.476 152.856C585.75 153.624 584.822 154.232 583.692 154.68C582.582 155.107 581.249 155.32 579.692 155.32ZM579.692 150.68C580.801 150.68 581.601 150.328 582.092 149.624C582.604 148.899 582.87 147.928 582.892 146.712C582.934 146.093 582.956 145.443 582.956 144.76C582.977 144.077 582.977 143.395 582.956 142.712C582.956 142.029 582.934 141.4 582.892 140.824C582.87 139.651 582.604 138.701 582.092 137.976C581.601 137.251 580.801 136.877 579.692 136.856C578.604 136.877 577.804 137.251 577.292 137.976C576.801 138.701 576.534 139.651 576.492 140.824C576.492 141.4 576.481 142.029 576.46 142.712C576.46 143.395 576.46 144.077 576.46 144.76C576.481 145.443 576.492 146.093 576.492 146.712C576.534 147.928 576.812 148.899 577.324 149.624C577.836 150.328 578.625 150.68 579.692 150.68ZM601.442 155.32C599.906 155.32 598.572 155.107 597.442 154.68C596.332 154.232 595.404 153.624 594.658 152.856C593.911 152.088 593.346 151.192 592.962 150.168C592.578 149.144 592.354 148.045 592.29 146.872C592.268 146.296 592.247 145.645 592.226 144.92C592.226 144.173 592.226 143.427 592.226 142.68C592.247 141.912 592.268 141.229 592.29 140.632C592.354 139.459 592.578 138.371 592.962 137.368C593.367 136.344 593.943 135.459 594.69 134.712C595.458 133.944 596.396 133.347 597.506 132.92C598.636 132.493 599.948 132.28 601.442 132.28C602.956 132.28 604.268 132.493 605.378 132.92C606.508 133.347 607.447 133.944 608.194 134.712C608.94 135.459 609.516 136.344 609.922 137.368C610.327 138.371 610.562 139.459 610.626 140.632C610.647 141.229 610.658 141.912 610.658 142.68C610.679 143.427 610.679 144.173 610.658 144.92C610.658 145.645 610.647 146.296 610.626 146.872C610.562 148.045 610.327 149.144 609.922 150.168C609.538 151.192 608.972 152.088 608.226 152.856C607.5 153.624 606.572 154.232 605.442 154.68C604.332 155.107 602.999 155.32 601.442 155.32ZM601.442 150.68C602.551 150.68 603.351 150.328 603.842 149.624C604.354 148.899 604.62 147.928 604.642 146.712C604.684 146.093 604.706 145.443 604.706 144.76C604.727 144.077 604.727 143.395 604.706 142.712C604.706 142.029 604.684 141.4 604.642 140.824C604.62 139.651 604.354 138.701 603.842 137.976C603.351 137.251 602.551 136.877 601.442 136.856C600.354 136.877 599.554 137.251 599.042 137.976C598.551 138.701 598.284 139.651 598.242 140.824C598.242 141.4 598.231 142.029 598.21 142.712C598.21 143.395 598.21 144.077 598.21 144.76C598.231 145.443 598.242 146.093 598.242 146.712C598.284 147.928 598.562 148.899 599.074 149.624C599.586 150.328 600.375 150.68 601.442 150.68ZM620.76 153.944C620.525 153.944 620.333 153.869 620.184 153.72C620.034 153.549 619.96 153.357 619.96 153.144V147.288H614.264C614.029 147.288 613.826 147.213 613.656 147.064C613.506 146.915 613.432 146.723 613.432 146.488V144.152C613.432 143.917 613.506 143.725 613.656 143.576C613.826 143.405 614.029 143.32 614.264 143.32H619.96V137.656C619.96 137.421 620.034 137.229 620.184 137.08C620.333 136.931 620.525 136.856 620.76 136.856H623.384C623.597 136.856 623.778 136.931 623.928 137.08C624.098 137.229 624.184 137.421 624.184 137.656V143.32H629.848C630.082 143.32 630.274 143.405 630.424 143.576C630.573 143.725 630.648 143.917 630.648 144.152V146.488C630.648 146.723 630.573 146.915 630.424 147.064C630.274 147.213 630.082 147.288 629.848 147.288H624.184V153.144C624.184 153.357 624.098 153.549 623.928 153.72C623.778 153.869 623.597 153.944 623.384 153.944H620.76Z" fill="#1C3554"/>
<path fill-rule="evenodd" clip-rule="evenodd" d="M556 76.6667C549.76 76.6667 537.333 79.7867 537.333 86V90.6667H574.667V86C574.667 79.7867 562.24 76.6667 556 76.6667ZM543.573 85.3333C545.813 83.7867 551.227 82 556 82C560.773 82 566.187 83.7867 568.427 85.3333H543.573ZM556 72C561.147 72 565.333 67.8133 565.333 62.6667C565.333 57.52 561.147 53.3333 556 53.3333C550.853 53.3333 546.667 57.52 546.667 62.6667C546.667 67.8133 550.853 72 556 72ZM556 58.6667C558.213 58.6667 560 60.4533 560 62.6667C560 64.88 558.213 66.6667 556 66.6667C553.787 66.6667 552 64.88 552 62.6667C552 60.4533 553.787 58.6667 556 58.6667ZM574.773 76.8267C577.867 79.0667 580 82.0533 580 86V90.6667H590.667V86C590.667 80.6133 581.333 77.5467 574.773 76.8267ZM572 72C577.147 72 581.333 67.8133 581.333 62.6667C581.333 57.52 577.147 53.3333 572 53.3333C570.56 53.3333 569.227 53.68 568 54.2667C569.68 56.64 570.667 59.5467 570.667 62.6667C570.667 65.7867 569.68 68.6933 568 71.0667C569.227 71.6533 570.56 72 572 72Z" fill="#F72585"/>
<path d="M190.72 189.584C190.688 190.304 190.672 190.976 190.672 191.6C190.672 192.224 190.688 192.896 190.72 193.616C190.768 194.944 191.168 196.024 191.92 196.856C192.688 197.672 193.784 198.08 195.208 198.08C195.976 198.08 196.624 197.984 197.152 197.792C197.68 197.6 198.112 197.352 198.448 197.048C198.8 196.744 199.064 196.4 199.24 196.016C199.432 195.616 199.576 195.216 199.672 194.816C199.704 194.64 199.784 194.512 199.912 194.432C200.04 194.336 200.168 194.288 200.296 194.288H201.4C201.544 194.288 201.664 194.344 201.76 194.456C201.872 194.552 201.928 194.672 201.928 194.816C201.912 195.344 201.776 195.92 201.52 196.544C201.264 197.168 200.864 197.76 200.32 198.32C199.792 198.864 199.104 199.32 198.256 199.688C197.424 200.056 196.408 200.24 195.208 200.24C194.168 200.24 193.24 200.08 192.424 199.76C191.608 199.424 190.904 198.968 190.312 198.392C189.736 197.816 189.288 197.136 188.968 196.352C188.648 195.552 188.472 194.68 188.44 193.736C188.392 192.312 188.392 190.888 188.44 189.464C188.472 188.536 188.648 187.672 188.968 186.872C189.288 186.072 189.736 185.384 190.312 184.808C190.904 184.232 191.608 183.784 192.424 183.464C193.24 183.128 194.168 182.96 195.208 182.96C196.408 182.96 197.424 183.144 198.256 183.512C199.104 183.88 199.792 184.344 200.32 184.904C200.864 185.448 201.264 186.032 201.52 186.656C201.776 187.28 201.912 187.856 201.928 188.384C201.928 188.528 201.872 188.656 201.76 188.768C201.664 188.864 201.544 188.912 201.4 188.912H200.296C200.168 188.912 200.04 188.872 199.912 188.792C199.784 188.696 199.704 188.56 199.672 188.384C199.576 187.984 199.432 187.592 199.24 187.208C199.064 186.808 198.8 186.456 198.448 186.152C198.112 185.848 197.68 185.6 197.152 185.408C196.624 185.216 195.976 185.12 195.208 185.12C193.784 185.12 192.688 185.536 191.92 186.368C191.168 187.184 190.768 188.256 190.72 189.584ZM209.92 187.28C210.784 187.28 211.552 187.416 212.224 187.688C212.896 187.944 213.472 188.304 213.952 188.768C214.432 189.232 214.808 189.8 215.08 190.472C215.368 191.128 215.544 191.848 215.608 192.632C215.624 192.776 215.632 192.952 215.632 193.16C215.632 193.352 215.632 193.56 215.632 193.784C215.632 193.992 215.632 194.2 215.632 194.408C215.632 194.6 215.624 194.76 215.608 194.888C215.528 195.688 215.352 196.416 215.08 197.072C214.808 197.728 214.432 198.288 213.952 198.752C213.472 199.216 212.896 199.584 212.224 199.856C211.552 200.112 210.784 200.24 209.92 200.24C209.056 200.24 208.288 200.112 207.616 199.856C206.944 199.584 206.368 199.216 205.888 198.752C205.408 198.288 205.024 197.728 204.736 197.072C204.464 196.416 204.296 195.688 204.232 194.888C204.216 194.76 204.2 194.6 204.184 194.408C204.184 194.2 204.184 193.992 204.184 193.784C204.184 193.56 204.184 193.352 204.184 193.16C204.2 192.952 204.216 192.776 204.232 192.632C204.296 191.848 204.464 191.128 204.736 190.472C205.024 189.8 205.408 189.232 205.888 188.768C206.368 188.304 206.944 187.944 207.616 187.688C208.288 187.416 209.056 187.28 209.92 187.28ZM213.424 194.768C213.456 194.496 213.472 194.168 213.472 193.784C213.472 193.384 213.456 193.04 213.424 192.752C213.376 192.272 213.272 191.824 213.112 191.408C212.952 190.992 212.728 190.632 212.44 190.328C212.152 190.024 211.8 189.784 211.384 189.608C210.968 189.432 210.48 189.344 209.92 189.344C209.36 189.344 208.872 189.432 208.456 189.608C208.04 189.784 207.688 190.024 207.4 190.328C207.112 190.632 206.888 190.992 206.728 191.408C206.568 191.824 206.464 192.272 206.416 192.752C206.384 193.04 206.368 193.384 206.368 193.784C206.368 194.168 206.384 194.496 206.416 194.768C206.464 195.248 206.568 195.696 206.728 196.112C206.888 196.528 207.112 196.888 207.4 197.192C207.688 197.496 208.04 197.736 208.456 197.912C208.872 198.088 209.36 198.176 209.92 198.176C210.48 198.176 210.968 198.088 211.384 197.912C211.8 197.736 212.152 197.496 212.44 197.192C212.728 196.888 212.952 196.528 213.112 196.112C213.272 195.696 213.376 195.248 213.424 194.768ZM218.539 188.168C218.539 187.992 218.603 187.84 218.731 187.712C218.859 187.584 219.011 187.52 219.187 187.52H220.075C220.251 187.52 220.403 187.584 220.531 187.712C220.659 187.84 220.723 187.992 220.723 188.168V194.504C220.723 195.736 220.995 196.656 221.539 197.264C222.099 197.872 222.907 198.176 223.963 198.176C224.971 198.176 225.763 197.872 226.339 197.264C226.915 196.656 227.203 195.736 227.203 194.504V188.168C227.203 187.992 227.267 187.84 227.395 187.712C227.523 187.584 227.675 187.52 227.851 187.52H228.739C228.915 187.52 229.067 187.584 229.195 187.712C229.323 187.84 229.387 187.992 229.387 188.168V199.352C229.387 199.528 229.323 199.68 229.195 199.808C229.067 199.936 228.915 200 228.739 200H227.851C227.675 200 227.523 199.936 227.395 199.808C227.267 199.68 227.203 199.528 227.203 199.352V198.608C226.899 199.008 226.467 199.384 225.907 199.736C225.347 200.072 224.579 200.24 223.603 200.24C222.851 200.24 222.163 200.12 221.539 199.88C220.915 199.624 220.379 199.272 219.931 198.824C219.483 198.36 219.139 197.8 218.899 197.144C218.659 196.472 218.539 195.712 218.539 194.864V188.168ZM239.316 187.52C239.492 187.52 239.644 187.584 239.772 187.712C239.9 187.84 239.964 187.992 239.964 188.168V188.936C239.964 189.112 239.9 189.264 239.772 189.392C239.644 189.52 239.492 189.584 239.316 189.584H237.924C236.084 189.584 235.164 190.504 235.164 192.344V199.352C235.164 199.528 235.1 199.68 234.972 199.808C234.844 199.936 234.692 200 234.516 200H233.628C233.452 200 233.3 199.936 233.172 199.808C233.044 199.68 232.98 199.528 232.98 199.352V188.168C232.98 187.992 233.044 187.84 233.172 187.712C233.3 187.584 233.452 187.52 233.628 187.52H234.516C234.692 187.52 234.844 187.584 234.972 187.712C235.1 187.84 235.164 187.992 235.164 188.168V188.912C235.484 188.432 235.868 188.08 236.316 187.856C236.764 187.632 237.348 187.52 238.068 187.52H239.316ZM249.154 196.544C249.154 196.24 249.066 195.992 248.89 195.8C248.73 195.592 248.482 195.416 248.146 195.272C247.81 195.128 247.378 194.992 246.85 194.864C246.338 194.736 245.738 194.6 245.05 194.456C243.754 194.184 242.842 193.736 242.314 193.112C241.802 192.472 241.546 191.728 241.546 190.88C241.546 190.4 241.642 189.944 241.834 189.512C242.026 189.08 242.314 188.696 242.698 188.36C243.082 188.024 243.562 187.76 244.138 187.568C244.73 187.376 245.418 187.28 246.202 187.28C246.986 187.28 247.666 187.368 248.242 187.544C248.834 187.72 249.33 187.944 249.73 188.216C250.13 188.488 250.434 188.784 250.642 189.104C250.85 189.408 250.962 189.704 250.978 189.992C250.994 190.168 250.93 190.32 250.786 190.448C250.658 190.576 250.506 190.64 250.33 190.64H249.538C249.442 190.64 249.322 190.624 249.178 190.592C249.05 190.544 248.93 190.448 248.818 190.304C248.61 190.032 248.298 189.808 247.882 189.632C247.482 189.44 246.922 189.344 246.202 189.344C245.466 189.344 244.866 189.48 244.402 189.752C243.954 190.024 243.73 190.4 243.73 190.88C243.73 191.184 243.794 191.432 243.922 191.624C244.05 191.8 244.258 191.96 244.546 192.104C244.834 192.232 245.21 192.352 245.674 192.464C246.154 192.576 246.746 192.712 247.45 192.872C248.186 193.032 248.802 193.24 249.298 193.496C249.794 193.736 250.194 194.016 250.498 194.336C250.802 194.64 251.018 194.984 251.146 195.368C251.274 195.736 251.338 196.128 251.338 196.544C251.338 197.024 251.218 197.488 250.978 197.936C250.754 198.384 250.426 198.776 249.994 199.112C249.562 199.448 249.034 199.72 248.41 199.928C247.802 200.136 247.106 200.24 246.322 200.24C245.538 200.24 244.842 200.144 244.234 199.952C243.626 199.76 243.106 199.528 242.674 199.256C242.242 198.968 241.906 198.664 241.666 198.344C241.442 198.008 241.322 197.696 241.306 197.408C241.29 197.232 241.346 197.08 241.474 196.952C241.602 196.824 241.762 196.76 241.954 196.76H242.818C242.914 196.76 243.026 196.776 243.154 196.808C243.282 196.824 243.402 196.912 243.514 197.072C243.77 197.424 244.122 197.696 244.57 197.888C245.018 198.08 245.602 198.176 246.322 198.176C246.674 198.176 247.018 198.136 247.354 198.056C247.706 197.976 248.01 197.864 248.266 197.72C248.538 197.576 248.754 197.408 248.914 197.216C249.074 197.008 249.154 196.784 249.154 196.544ZM253.615 192.56C253.679 191.824 253.855 191.136 254.143 190.496C254.431 189.856 254.807 189.296 255.271 188.816C255.735 188.336 256.287 187.96 256.927 187.688C257.583 187.416 258.311 187.28 259.111 187.28C259.975 187.28 260.743 187.424 261.415 187.712C262.103 187.984 262.687 188.384 263.167 188.912C263.647 189.44 264.015 190.08 264.271 190.832C264.527 191.584 264.655 192.424 264.655 193.352V194C264.655 194.176 264.591 194.328 264.463 194.456C264.335 194.584 264.183 194.648 264.007 194.648H255.751V194.792C255.783 195.88 256.111 196.72 256.735 197.312C257.375 197.888 258.167 198.176 259.111 198.176C259.991 198.176 260.647 198.056 261.079 197.816C261.527 197.56 261.887 197.28 262.159 196.976C262.287 196.848 262.399 196.76 262.495 196.712C262.591 196.664 262.735 196.64 262.927 196.64H263.647C263.823 196.64 263.983 196.704 264.127 196.832C264.271 196.96 264.327 197.112 264.295 197.288C264.247 197.576 264.111 197.896 263.887 198.248C263.663 198.584 263.335 198.904 262.903 199.208C262.487 199.496 261.959 199.744 261.319 199.952C260.695 200.144 259.959 200.24 259.111 200.24C258.311 200.24 257.591 200.104 256.951 199.832C256.311 199.544 255.751 199.16 255.271 198.68C254.807 198.184 254.431 197.608 254.143 196.952C253.855 196.28 253.679 195.552 253.615 194.768C253.535 194.032 253.535 193.296 253.615 192.56ZM255.751 192.632H262.495V192.56C262.495 191.584 262.183 190.808 261.559 190.232C260.951 189.64 260.135 189.344 259.111 189.344C258.647 189.344 258.215 189.424 257.815 189.584C257.415 189.728 257.063 189.944 256.759 190.232C256.455 190.504 256.215 190.84 256.039 191.24C255.863 191.64 255.767 192.08 255.751 192.56V192.632ZM274.654 196.544C274.654 196.24 274.566 195.992 274.39 195.8C274.23 195.592 273.982 195.416 273.646 195.272C273.31 195.128 272.878 194.992 272.35 194.864C271.838 194.736 271.238 194.6 270.55 194.456C269.254 194.184 268.342 193.736 267.814 193.112C267.302 192.472 267.046 191.728 267.046 190.88C267.046 190.4 267.142 189.944 267.334 189.512C267.526 189.08 267.814 188.696 268.198 188.36C268.582 188.024 269.062 187.76 269.638 187.568C270.23 187.376 270.918 187.28 271.702 187.28C272.486 187.28 273.166 187.368 273.742 187.544C274.334 187.72 274.83 187.944 275.23 188.216C275.63 188.488 275.934 188.784 276.142 189.104C276.35 189.408 276.462 189.704 276.478 189.992C276.494 190.168 276.43 190.32 276.286 190.448C276.158 190.576 276.006 190.64 275.83 190.64H275.038C274.942 190.64 274.822 190.624 274.678 190.592C274.55 190.544 274.43 190.448 274.318 190.304C274.11 190.032 273.798 189.808 273.382 189.632C272.982 189.44 272.422 189.344 271.702 189.344C270.966 189.344 270.366 189.48 269.902 189.752C269.454 190.024 269.23 190.4 269.23 190.88C269.23 191.184 269.294 191.432 269.422 191.624C269.55 191.8 269.758 191.96 270.046 192.104C270.334 192.232 270.71 192.352 271.174 192.464C271.654 192.576 272.246 192.712 272.95 192.872C273.686 193.032 274.302 193.24 274.798 193.496C275.294 193.736 275.694 194.016 275.998 194.336C276.302 194.64 276.518 194.984 276.646 195.368C276.774 195.736 276.838 196.128 276.838 196.544C276.838 197.024 276.718 197.488 276.478 197.936C276.254 198.384 275.926 198.776 275.494 199.112C275.062 199.448 274.534 199.72 273.91 199.928C273.302 200.136 272.606 200.24 271.822 200.24C271.038 200.24 270.342 200.144 269.734 199.952C269.126 199.76 268.606 199.528 268.174 199.256C267.742 198.968 267.406 198.664 267.166 198.344C266.942 198.008 266.822 197.696 266.806 197.408C266.79 197.232 266.846 197.08 266.974 196.952C267.102 196.824 267.262 196.76 267.454 196.76H268.318C268.414 196.76 268.526 196.776 268.654 196.808C268.782 196.824 268.902 196.912 269.014 197.072C269.27 197.424 269.622 197.696 270.07 197.888C270.518 198.08 271.102 198.176 271.822 198.176C272.174 198.176 272.518 198.136 272.854 198.056C273.206 197.976 273.51 197.864 273.766 197.72C274.038 197.576 274.254 197.408 274.414 197.216C274.574 197.008 274.654 196.784 274.654 196.544Z" fill="#1C3554"/>
<path d="M175.864 155C175.651 155 175.459 154.925 175.288 154.776C175.139 154.605 175.064 154.413 175.064 154.2V138.968L170.68 142.328C170.488 142.477 170.285 142.531 170.072 142.488C169.88 142.445 169.709 142.328 169.56 142.136L167.672 139.672C167.544 139.48 167.491 139.277 167.512 139.064C167.555 138.829 167.683 138.648 167.896 138.52L175.256 132.824C175.384 132.739 175.501 132.685 175.608 132.664C175.736 132.621 175.875 132.6 176.024 132.6H180.024C180.259 132.6 180.451 132.675 180.6 132.824C180.749 132.973 180.824 133.165 180.824 133.4V154.2C180.824 154.413 180.749 154.605 180.6 154.776C180.451 154.925 180.259 155 180.024 155H175.864ZM193.754 155.32C192.218 155.32 190.885 155.107 189.754 154.68C188.645 154.232 187.717 153.624 186.97 152.856C186.224 152.088 185.658 151.192 185.274 150.168C184.89 149.144 184.666 148.045 184.602 146.872C184.581 146.296 184.56 145.645 184.538 144.92C184.538 144.173 184.538 143.427 184.538 142.68C184.56 141.912 184.581 141.229 184.602 140.632C184.666 139.459 184.89 138.371 185.274 137.368C185.68 136.344 186.256 135.459 187.002 134.712C187.77 133.944 188.709 133.347 189.818 132.92C190.949 132.493 192.261 132.28 193.754 132.28C195.269 132.28 196.581 132.493 197.69 132.92C198.821 133.347 199.76 133.944 200.506 134.712C201.253 135.459 201.829 136.344 202.234 137.368C202.64 138.371 202.874 139.459 202.938 140.632C202.96 141.229 202.97 141.912 202.97 142.68C202.992 143.427 202.992 144.173 202.97 144.92C202.97 145.645 202.96 146.296 202.938 146.872C202.874 148.045 202.64 149.144 202.234 150.168C201.85 151.192 201.285 152.088 200.538 152.856C199.813 153.624 198.885 154.232 197.754 154.68C196.645 155.107 195.312 155.32 193.754 155.32ZM193.754 150.68C194.864 150.68 195.664 150.328 196.154 149.624C196.666 148.899 196.933 147.928 196.954 146.712C196.997 146.093 197.018 145.443 197.018 144.76C197.04 144.077 197.04 143.395 197.018 142.712C197.018 142.029 196.997 141.4 196.954 140.824C196.933 139.651 196.666 138.701 196.154 137.976C195.664 137.251 194.864 136.877 193.754 136.856C192.666 136.877 191.866 137.251 191.354 137.976C190.864 138.701 190.597 139.651 190.554 140.824C190.554 141.4 190.544 142.029 190.522 142.712C190.522 143.395 190.522 144.077 190.522 144.76C190.544 145.443 190.554 146.093 190.554 146.712C190.597 147.928 190.874 148.899 191.386 149.624C191.898 150.328 192.688 150.68 193.754 150.68ZM206.966 155C206.731 155 206.539 154.925 206.39 154.776C206.24 154.605 206.166 154.413 206.166 154.2V150.136C206.166 149.901 206.24 149.709 206.39 149.56C206.539 149.411 206.731 149.336 206.966 149.336H211.03C211.243 149.336 211.424 149.411 211.574 149.56C211.744 149.709 211.83 149.901 211.83 150.136V154.2C211.83 154.413 211.744 154.605 211.574 154.776C211.424 154.925 211.243 155 211.03 155H206.966ZM224.161 155.32C222.625 155.32 221.291 155.107 220.161 154.68C219.051 154.232 218.123 153.624 217.377 152.856C216.63 152.088 216.065 151.192 215.681 150.168C215.297 149.144 215.073 148.045 215.009 146.872C214.987 146.296 214.966 145.645 214.945 144.92C214.945 144.173 214.945 143.427 214.945 142.68C214.966 141.912 214.987 141.229 215.009 140.632C215.073 139.459 215.297 138.371 215.681 137.368C216.086 136.344 216.662 135.459 217.409 134.712C218.177 133.944 219.115 133.347 220.225 132.92C221.355 132.493 222.667 132.28 224.161 132.28C225.675 132.28 226.987 132.493 228.097 132.92C229.227 133.347 230.166 133.944 230.913 134.712C231.659 135.459 232.235 136.344 232.641 137.368C233.046 138.371 233.281 139.459 233.345 140.632C233.366 141.229 233.377 141.912 233.377 142.68C233.398 143.427 233.398 144.173 233.377 144.92C233.377 145.645 233.366 146.296 233.345 146.872C233.281 148.045 233.046 149.144 232.641 150.168C232.257 151.192 231.691 152.088 230.944 152.856C230.219 153.624 229.291 154.232 228.161 154.68C227.051 155.107 225.718 155.32 224.161 155.32ZM224.161 150.68C225.27 150.68 226.07 150.328 226.561 149.624C227.073 148.899 227.339 147.928 227.361 146.712C227.403 146.093 227.425 145.443 227.425 144.76C227.446 144.077 227.446 143.395 227.425 142.712C227.425 142.029 227.403 141.4 227.361 140.824C227.339 139.651 227.073 138.701 226.561 137.976C226.07 137.251 225.27 136.877 224.161 136.856C223.073 136.877 222.273 137.251 221.76 137.976C221.27 138.701 221.003 139.651 220.961 140.824C220.961 141.4 220.95 142.029 220.929 142.712C220.929 143.395 220.929 144.077 220.929 144.76C220.95 145.443 220.961 146.093 220.961 146.712C221.003 147.928 221.281 148.899 221.793 149.624C222.305 150.328 223.094 150.68 224.161 150.68ZM245.911 155.32C244.375 155.32 243.041 155.107 241.911 154.68C240.801 154.232 239.873 153.624 239.127 152.856C238.38 152.088 237.815 151.192 237.431 150.168C237.047 149.144 236.823 148.045 236.759 146.872C236.737 146.296 236.716 145.645 236.695 144.92C236.695 144.173 236.695 143.427 236.695 142.68C236.716 141.912 236.737 141.229 236.759 140.632C236.823 139.459 237.047 138.371 237.431 137.368C237.836 136.344 238.412 135.459 239.159 134.712C239.927 133.944 240.865 133.347 241.975 132.92C243.105 132.493 244.417 132.28 245.911 132.28C247.425 132.28 248.737 132.493 249.847 132.92C250.977 133.347 251.916 133.944 252.663 134.712C253.409 135.459 253.985 136.344 254.391 137.368C254.796 138.371 255.031 139.459 255.095 140.632C255.116 141.229 255.127 141.912 255.127 142.68C255.148 143.427 255.148 144.173 255.127 144.92C255.127 145.645 255.116 146.296 255.095 146.872C255.031 148.045 254.796 149.144 254.391 150.168C254.007 151.192 253.441 152.088 252.694 152.856C251.969 153.624 251.041 154.232 249.911 154.68C248.801 155.107 247.468 155.32 245.911 155.32ZM245.911 150.68C247.02 150.68 247.82 150.328 248.311 149.624C248.823 148.899 249.089 147.928 249.111 146.712C249.153 146.093 249.175 145.443 249.175 144.76C249.196 144.077 249.196 143.395 249.175 142.712C249.175 142.029 249.153 141.4 249.111 140.824C249.089 139.651 248.823 138.701 248.311 137.976C247.82 137.251 247.02 136.877 245.911 136.856C244.823 136.877 244.023 137.251 243.51 137.976C243.02 138.701 242.753 139.651 242.711 140.824C242.711 141.4 242.7 142.029 242.679 142.712C242.679 143.395 242.679 144.077 242.679 144.76C242.7 145.443 242.711 146.093 242.711 146.712C242.753 147.928 243.031 148.899 243.543 149.624C244.055 150.328 244.844 150.68 245.911 150.68ZM267.661 155.32C266.125 155.32 264.791 155.107 263.661 154.68C262.551 154.232 261.623 153.624 260.877 152.856C260.13 152.088 259.565 151.192 259.181 150.168C258.797 149.144 258.573 148.045 258.509 146.872C258.487 146.296 258.466 145.645 258.445 144.92C258.445 144.173 258.445 143.427 258.445 142.68C258.466 141.912 258.487 141.229 258.509 140.632C258.573 139.459 258.797 138.371 259.181 137.368C259.586 136.344 260.162 135.459 260.909 134.712C261.677 133.944 262.615 133.347 263.725 132.92C264.855 132.493 266.167 132.28 267.661 132.28C269.175 132.28 270.487 132.493 271.597 132.92C272.727 133.347 273.666 133.944 274.413 134.712C275.159 135.459 275.735 136.344 276.141 137.368C276.546 138.371 276.781 139.459 276.845 140.632C276.866 141.229 276.877 141.912 276.877 142.68C276.898 143.427 276.898 144.173 276.877 144.92C276.877 145.645 276.866 146.296 276.845 146.872C276.781 148.045 276.546 149.144 276.141 150.168C275.757 151.192 275.191 152.088 274.444 152.856C273.719 153.624 272.791 154.232 271.661 154.68C270.551 155.107 269.218 155.32 267.661 155.32ZM267.661 150.68C268.77 150.68 269.57 150.328 270.061 149.624C270.573 148.899 270.839 147.928 270.861 146.712C270.903 146.093 270.925 145.443 270.925 144.76C270.946 144.077 270.946 143.395 270.925 142.712C270.925 142.029 270.903 141.4 270.861 140.824C270.839 139.651 270.573 138.701 270.061 137.976C269.57 137.251 268.77 136.877 267.661 136.856C266.573 136.877 265.773 137.251 265.26 137.976C264.77 138.701 264.503 139.651 264.461 140.824C264.461 141.4 264.45 142.029 264.429 142.712C264.429 143.395 264.429 144.077 264.429 144.76C264.45 145.443 264.461 146.093 264.461 146.712C264.503 147.928 264.781 148.899 265.293 149.624C265.805 150.328 266.594 150.68 267.661 150.68ZM286.979 153.944C286.744 153.944 286.552 153.869 286.403 153.72C286.253 153.549 286.179 153.357 286.179 153.144V147.288H280.483C280.248 147.288 280.045 147.213 279.875 147.064C279.725 146.915 279.651 146.723 279.651 146.488V144.152C279.651 143.917 279.725 143.725 279.875 143.576C280.045 143.405 280.248 143.32 280.483 143.32H286.179V137.656C286.179 137.421 286.253 137.229 286.403 137.08C286.552 136.931 286.744 136.856 286.979 136.856H289.603C289.816 136.856 289.997 136.931 290.147 137.08C290.317 137.229 290.403 137.421 290.403 137.656V143.32H296.067C296.301 143.32 296.493 143.405 296.642 143.576C296.792 143.725 296.867 143.917 296.867 144.152V146.488C296.867 146.723 296.792 146.915 296.642 147.064C296.493 147.213 296.301 147.288 296.067 147.288H290.403V153.144C290.403 153.357 290.317 153.549 290.147 153.72C289.997 153.869 289.816 153.944 289.603 153.944H286.979Z" fill="#1C3554"/>
<path fill-rule="evenodd" clip-rule="evenodd" d="M210.667 56H205.333V93.3333C205.333 96.2667 207.733 98.6667 210.667 98.6667H248V93.3333H210.667V56ZM253.333 45.3333H221.333C218.4 45.3333 216 47.7333 216 50.6667V82.6667C216 85.6 218.4 88 221.333 88H253.333C256.267 88 258.667 85.6 258.667 82.6667V50.6667C258.667 47.7333 256.267 45.3333 253.333 45.3333ZM253.333 82.6667H221.333V50.6667H253.333V82.6667ZM232 54.6667V78.6667L248 66.6667L232 54.6667Z" fill="#F72585"/>
</svg>
