<svg width="296" height="391" viewBox="0 0 296 391" fill="none" xmlns="http://www.w3.org/2000/svg">
<rect width="296" height="391" fill="#CCCCCC"/>
<rect opacity="0.2" width="296" height="391" fill="black"/>
<path d="M132.728 343.24C131.224 343.24 129.928 342.992 128.84 342.496C127.752 342 126.904 341.272 126.296 340.312C125.704 339.352 125.376 338.16 125.312 336.736C125.296 336.08 125.288 335.376 125.288 334.624C125.288 333.872 125.296 333.152 125.312 332.464C125.376 331.072 125.712 329.888 126.32 328.912C126.928 327.936 127.776 327.2 128.864 326.704C129.952 326.208 131.24 325.96 132.728 325.96C133.784 325.96 134.76 326.096 135.656 326.368C136.552 326.624 137.336 327.008 138.008 327.52C138.68 328.016 139.2 328.624 139.568 329.344C139.952 330.048 140.152 330.848 140.168 331.744C140.184 331.888 140.136 332.008 140.024 332.104C139.928 332.2 139.808 332.248 139.664 332.248H136.424C136.216 332.248 136.056 332.208 135.944 332.128C135.832 332.032 135.736 331.864 135.656 331.624C135.432 330.776 135.064 330.2 134.552 329.896C134.056 329.576 133.44 329.416 132.704 329.416C131.824 329.416 131.128 329.664 130.616 330.16C130.104 330.64 129.824 331.448 129.776 332.584C129.728 333.896 129.728 335.24 129.776 336.616C129.824 337.752 130.104 338.568 130.616 339.064C131.128 339.544 131.824 339.784 132.704 339.784C133.44 339.784 134.064 339.624 134.576 339.304C135.088 338.984 135.448 338.408 135.656 337.576C135.72 337.336 135.808 337.176 135.92 337.096C136.048 337 136.216 336.952 136.424 336.952H139.664C139.808 336.952 139.928 337 140.024 337.096C140.136 337.192 140.184 337.312 140.168 337.456C140.152 338.352 139.952 339.16 139.568 339.88C139.2 340.584 138.68 341.192 138.008 341.704C137.336 342.2 136.552 342.584 135.656 342.856C134.76 343.112 133.784 343.24 132.728 343.24ZM148.956 343.24C147.356 343.24 146.028 343.016 144.972 342.568C143.916 342.104 143.116 341.504 142.572 340.768C142.028 340.032 141.74 339.248 141.708 338.416C141.708 338.288 141.756 338.176 141.852 338.08C141.964 337.968 142.092 337.912 142.236 337.912H145.26C145.484 337.912 145.652 337.952 145.764 338.032C145.892 338.112 146.004 338.216 146.1 338.344C146.228 338.584 146.404 338.816 146.628 339.04C146.868 339.264 147.18 339.448 147.564 339.592C147.948 339.72 148.412 339.784 148.956 339.784C149.884 339.784 150.58 339.64 151.044 339.352C151.524 339.064 151.764 338.672 151.764 338.176C151.764 337.808 151.636 337.512 151.38 337.288C151.124 337.064 150.708 336.864 150.132 336.688C149.572 336.496 148.82 336.304 147.876 336.112C146.66 335.856 145.62 335.528 144.756 335.128C143.908 334.712 143.26 334.176 142.812 333.52C142.364 332.848 142.14 332.016 142.14 331.024C142.14 330.048 142.412 329.176 142.956 328.408C143.516 327.64 144.292 327.04 145.284 326.608C146.276 326.176 147.452 325.96 148.812 325.96C149.916 325.96 150.884 326.104 151.716 326.392C152.564 326.68 153.276 327.064 153.852 327.544C154.428 328.024 154.86 328.536 155.148 329.08C155.452 329.608 155.612 330.128 155.628 330.64C155.628 330.768 155.58 330.888 155.484 331C155.404 331.096 155.284 331.144 155.124 331.144H151.956C151.78 331.144 151.628 331.112 151.5 331.048C151.372 330.984 151.26 330.88 151.164 330.736C151.068 330.384 150.812 330.08 150.396 329.824C149.996 329.552 149.468 329.416 148.812 329.416C148.108 329.416 147.556 329.544 147.156 329.8C146.772 330.04 146.58 330.416 146.58 330.928C146.58 331.248 146.684 331.528 146.892 331.768C147.116 332.008 147.476 332.216 147.972 332.392C148.484 332.568 149.18 332.752 150.06 332.944C151.516 333.216 152.692 333.56 153.588 333.976C154.484 334.376 155.14 334.904 155.556 335.56C155.988 336.2 156.204 337.008 156.204 337.984C156.204 339.072 155.892 340.008 155.268 340.792C154.644 341.576 153.788 342.184 152.7 342.616C151.628 343.032 150.38 343.24 148.956 343.24ZM164.87 343.24C163.27 343.24 161.942 343.016 160.886 342.568C159.83 342.104 159.03 341.504 158.486 340.768C157.942 340.032 157.654 339.248 157.622 338.416C157.622 338.288 157.67 338.176 157.766 338.08C157.878 337.968 158.006 337.912 158.15 337.912H161.174C161.398 337.912 161.566 337.952 161.678 338.032C161.806 338.112 161.918 338.216 162.014 338.344C162.142 338.584 162.318 338.816 162.542 339.04C162.782 339.264 163.094 339.448 163.478 339.592C163.862 339.72 164.326 339.784 164.87 339.784C165.798 339.784 166.494 339.64 166.958 339.352C167.438 339.064 167.678 338.672 167.678 338.176C167.678 337.808 167.55 337.512 167.294 337.288C167.038 337.064 166.622 336.864 166.046 336.688C165.486 336.496 164.734 336.304 163.79 336.112C162.574 335.856 161.534 335.528 160.67 335.128C159.822 334.712 159.174 334.176 158.726 333.52C158.278 332.848 158.054 332.016 158.054 331.024C158.054 330.048 158.326 329.176 158.87 328.408C159.43 327.64 160.206 327.04 161.198 326.608C162.19 326.176 163.366 325.96 164.726 325.96C165.83 325.96 166.798 326.104 167.63 326.392C168.478 326.68 169.19 327.064 169.766 327.544C170.342 328.024 170.774 328.536 171.062 329.08C171.366 329.608 171.526 330.128 171.542 330.64C171.542 330.768 171.494 330.888 171.398 331C171.318 331.096 171.198 331.144 171.038 331.144H167.87C167.694 331.144 167.542 331.112 167.414 331.048C167.286 330.984 167.174 330.88 167.078 330.736C166.982 330.384 166.726 330.08 166.31 329.824C165.91 329.552 165.382 329.416 164.726 329.416C164.022 329.416 163.47 329.544 163.07 329.8C162.686 330.04 162.494 330.416 162.494 330.928C162.494 331.248 162.598 331.528 162.806 331.768C163.03 332.008 163.39 332.216 163.886 332.392C164.398 332.568 165.094 332.752 165.974 332.944C167.43 333.216 168.606 333.56 169.502 333.976C170.398 334.376 171.054 334.904 171.47 335.56C171.902 336.2 172.118 337.008 172.118 337.984C172.118 339.072 171.806 340.008 171.182 340.792C170.558 341.576 169.702 342.184 168.614 342.616C167.542 343.032 166.294 343.24 164.87 343.24Z" fill="white"/>
</svg>
