<svg width="296" height="391" viewBox="0 0 296 391" fill="none" xmlns="http://www.w3.org/2000/svg">
<rect width="296" height="391" fill="#CCCCCC"/>
<rect opacity="0.2" width="296" height="391" fill="black"/>
<path d="M90.488 343.24C89.576 343.24 88.704 343.128 87.872 342.904C87.056 342.664 86.328 342.312 85.688 341.848C85.048 341.384 84.536 340.808 84.152 340.12C83.784 339.432 83.584 338.632 83.552 337.72C83.552 337.576 83.6 337.456 83.696 337.36C83.792 337.248 83.92 337.192 84.08 337.192H87.32C87.544 337.192 87.712 337.248 87.824 337.36C87.952 337.472 88.056 337.64 88.136 337.864C88.232 338.312 88.384 338.68 88.592 338.968C88.816 339.24 89.096 339.448 89.432 339.592C89.784 339.72 90.176 339.784 90.608 339.784C91.408 339.784 92.024 339.528 92.456 339.016C92.888 338.488 93.104 337.72 93.104 336.712V329.776H85.328C85.168 329.776 85.024 329.72 84.896 329.608C84.784 329.496 84.728 329.352 84.728 329.176V326.8C84.728 326.624 84.784 326.48 84.896 326.368C85.024 326.256 85.168 326.2 85.328 326.2H96.944C97.12 326.2 97.264 326.256 97.376 326.368C97.504 326.48 97.568 326.624 97.568 326.8V336.832C97.568 338.224 97.264 339.4 96.656 340.36C96.064 341.304 95.232 342.024 94.16 342.52C93.104 343 91.88 343.24 90.488 343.24ZM104.215 343.24C103.351 343.24 102.575 343.08 101.887 342.76C101.215 342.424 100.679 341.976 100.279 341.416C99.8787 340.856 99.6787 340.224 99.6787 339.52C99.6787 338.384 100.143 337.488 101.071 336.832C101.999 336.16 103.231 335.704 104.767 335.464L107.767 335.008V334.672C107.767 334.096 107.647 333.656 107.407 333.352C107.167 333.048 106.727 332.896 106.087 332.896C105.639 332.896 105.271 332.984 104.983 333.16C104.711 333.336 104.495 333.576 104.335 333.88C104.191 334.088 103.991 334.192 103.735 334.192H101.047C100.871 334.192 100.735 334.144 100.639 334.048C100.543 333.936 100.503 333.808 100.519 333.664C100.519 333.376 100.623 333.048 100.831 332.68C101.055 332.296 101.391 331.92 101.839 331.552C102.287 331.184 102.863 330.88 103.567 330.64C104.271 330.4 105.127 330.28 106.135 330.28C107.159 330.28 108.039 330.4 108.775 330.64C109.511 330.88 110.111 331.216 110.575 331.648C111.039 332.08 111.375 332.592 111.583 333.184C111.807 333.76 111.919 334.4 111.919 335.104V342.4C111.919 342.56 111.855 342.704 111.727 342.832C111.615 342.944 111.479 343 111.319 343H108.535C108.359 343 108.215 342.944 108.103 342.832C107.991 342.704 107.935 342.56 107.935 342.4V341.56C107.727 341.864 107.447 342.144 107.095 342.4C106.743 342.656 106.327 342.856 105.847 343C105.383 343.16 104.839 343.24 104.215 343.24ZM105.343 340.504C105.807 340.504 106.223 340.408 106.591 340.216C106.975 340.008 107.271 339.696 107.479 339.28C107.703 338.848 107.815 338.312 107.815 337.672V337.336L105.775 337.696C105.023 337.824 104.471 338.024 104.119 338.296C103.783 338.552 103.615 338.856 103.615 339.208C103.615 339.48 103.695 339.712 103.855 339.904C104.015 340.096 104.223 340.248 104.479 340.36C104.751 340.456 105.039 340.504 105.343 340.504ZM118.715 343C118.475 343 118.299 342.944 118.187 342.832C118.075 342.704 117.979 342.56 117.899 342.4L113.363 331.264C113.331 331.2 113.315 331.128 113.315 331.048C113.315 330.904 113.363 330.784 113.459 330.688C113.571 330.576 113.707 330.52 113.867 330.52H116.579C116.787 330.52 116.947 330.576 117.059 330.688C117.171 330.8 117.243 330.912 117.275 331.024L119.987 338.392L122.723 331.024C122.755 330.912 122.827 330.8 122.939 330.688C123.051 330.576 123.211 330.52 123.419 330.52H126.131C126.275 330.52 126.403 330.576 126.515 330.688C126.627 330.784 126.683 330.904 126.683 331.048C126.683 331.128 126.667 331.2 126.635 331.264L122.099 342.4C122.035 342.56 121.939 342.704 121.811 342.832C121.699 342.944 121.515 343 121.259 343H118.715ZM131.73 343.24C130.866 343.24 130.09 343.08 129.402 342.76C128.73 342.424 128.194 341.976 127.794 341.416C127.394 340.856 127.194 340.224 127.194 339.52C127.194 338.384 127.658 337.488 128.586 336.832C129.514 336.16 130.746 335.704 132.282 335.464L135.282 335.008V334.672C135.282 334.096 135.162 333.656 134.922 333.352C134.682 333.048 134.242 332.896 133.602 332.896C133.154 332.896 132.786 332.984 132.498 333.16C132.226 333.336 132.01 333.576 131.85 333.88C131.706 334.088 131.506 334.192 131.25 334.192H128.562C128.386 334.192 128.25 334.144 128.154 334.048C128.058 333.936 128.018 333.808 128.034 333.664C128.034 333.376 128.138 333.048 128.346 332.68C128.57 332.296 128.906 331.92 129.354 331.552C129.802 331.184 130.378 330.88 131.082 330.64C131.786 330.4 132.642 330.28 133.65 330.28C134.674 330.28 135.554 330.4 136.29 330.64C137.026 330.88 137.626 331.216 138.09 331.648C138.554 332.08 138.89 332.592 139.098 333.184C139.322 333.76 139.434 334.4 139.434 335.104V342.4C139.434 342.56 139.37 342.704 139.242 342.832C139.13 342.944 138.994 343 138.834 343H136.05C135.874 343 135.73 342.944 135.618 342.832C135.506 342.704 135.45 342.56 135.45 342.4V341.56C135.242 341.864 134.962 342.144 134.61 342.4C134.258 342.656 133.842 342.856 133.362 343C132.898 343.16 132.354 343.24 131.73 343.24ZM132.858 340.504C133.322 340.504 133.738 340.408 134.106 340.216C134.49 340.008 134.786 339.696 134.994 339.28C135.218 338.848 135.33 338.312 135.33 337.672V337.336L133.29 337.696C132.538 337.824 131.986 338.024 131.634 338.296C131.298 338.552 131.13 338.856 131.13 339.208C131.13 339.48 131.21 339.712 131.37 339.904C131.53 340.096 131.738 340.248 131.994 340.36C132.266 340.456 132.554 340.504 132.858 340.504ZM147.279 343.24C146.239 343.24 145.351 343.128 144.615 342.904C143.895 342.664 143.303 342.376 142.839 342.04C142.391 341.704 142.055 341.36 141.831 341.008C141.607 340.64 141.487 340.32 141.471 340.048C141.455 339.872 141.511 339.728 141.639 339.616C141.767 339.504 141.903 339.448 142.047 339.448H144.783C144.831 339.448 144.871 339.456 144.903 339.472C144.951 339.488 144.999 339.52 145.047 339.568C145.255 339.68 145.463 339.824 145.671 340C145.879 340.16 146.119 340.304 146.391 340.432C146.663 340.56 146.991 340.624 147.375 340.624C147.823 340.624 148.199 340.536 148.503 340.36C148.807 340.168 148.959 339.904 148.959 339.568C148.959 339.312 148.887 339.104 148.743 338.944C148.599 338.768 148.303 338.6 147.855 338.44C147.423 338.28 146.767 338.12 145.887 337.96C145.055 337.768 144.327 337.52 143.703 337.216C143.079 336.896 142.599 336.488 142.263 335.992C141.927 335.48 141.759 334.864 141.759 334.144C141.759 333.504 141.967 332.888 142.383 332.296C142.799 331.704 143.407 331.224 144.207 330.856C145.007 330.472 145.999 330.28 147.183 330.28C148.095 330.28 148.895 330.392 149.583 330.616C150.271 330.824 150.847 331.096 151.311 331.432C151.775 331.768 152.127 332.112 152.367 332.464C152.607 332.816 152.735 333.136 152.751 333.424C152.767 333.584 152.719 333.728 152.607 333.856C152.495 333.968 152.367 334.024 152.223 334.024H149.727C149.663 334.024 149.599 334.016 149.535 334C149.471 333.968 149.415 333.936 149.367 333.904C149.175 333.808 148.983 333.68 148.791 333.52C148.599 333.36 148.375 333.216 148.119 333.088C147.863 332.96 147.543 332.896 147.159 332.896C146.727 332.896 146.391 332.992 146.151 333.184C145.911 333.376 145.791 333.624 145.791 333.928C145.791 334.136 145.855 334.328 145.983 334.504C146.127 334.68 146.407 334.84 146.823 334.984C147.255 335.128 147.919 335.288 148.815 335.464C149.919 335.64 150.799 335.928 151.455 336.328C152.111 336.712 152.575 337.168 152.847 337.696C153.135 338.208 153.279 338.752 153.279 339.328C153.279 340.096 153.047 340.776 152.583 341.368C152.119 341.96 151.439 342.424 150.543 342.76C149.663 343.08 148.575 343.24 147.279 343.24ZM161.144 343.24C159.96 343.24 158.912 343.024 158 342.592C157.088 342.16 156.36 341.536 155.816 340.72C155.288 339.888 155 338.896 154.952 337.744C154.936 337.488 154.928 337.168 154.928 336.784C154.928 336.384 154.936 336.056 154.952 335.8C155 334.632 155.288 333.64 155.816 332.824C156.344 331.992 157.064 331.36 157.976 330.928C158.904 330.496 159.96 330.28 161.144 330.28C162.248 330.28 163.192 330.44 163.976 330.76C164.776 331.064 165.416 331.448 165.896 331.912C166.392 332.376 166.76 332.856 167 333.352C167.256 333.832 167.392 334.256 167.408 334.624C167.424 334.784 167.368 334.928 167.24 335.056C167.112 335.168 166.968 335.224 166.808 335.224H163.76C163.584 335.224 163.448 335.184 163.352 335.104C163.256 335.024 163.168 334.904 163.088 334.744C162.896 334.248 162.648 333.896 162.344 333.688C162.056 333.48 161.68 333.376 161.216 333.376C160.576 333.376 160.08 333.584 159.728 334C159.392 334.416 159.208 335.056 159.176 335.92C159.16 336.56 159.16 337.128 159.176 337.624C159.224 338.504 159.416 339.144 159.752 339.544C160.088 339.944 160.576 340.144 161.216 340.144C161.712 340.144 162.104 340.04 162.392 339.832C162.68 339.608 162.912 339.256 163.088 338.776C163.168 338.616 163.256 338.496 163.352 338.416C163.448 338.336 163.584 338.296 163.76 338.296H166.808C166.968 338.296 167.112 338.352 167.24 338.464C167.368 338.576 167.424 338.72 167.408 338.896C167.392 339.152 167.312 339.464 167.168 339.832C167.024 340.2 166.8 340.584 166.496 340.984C166.192 341.384 165.792 341.752 165.296 342.088C164.816 342.424 164.232 342.704 163.544 342.928C162.856 343.136 162.056 343.24 161.144 343.24ZM170.164 343C169.988 343 169.844 342.944 169.732 342.832C169.62 342.704 169.564 342.56 169.564 342.4V331.12C169.564 330.96 169.62 330.824 169.732 330.712C169.844 330.584 169.988 330.52 170.164 330.52H172.924C173.1 330.52 173.244 330.584 173.356 330.712C173.484 330.824 173.548 330.96 173.548 331.12V332.08C173.964 331.584 174.468 331.2 175.06 330.928C175.668 330.656 176.348 330.52 177.1 330.52H178.156C178.332 330.52 178.476 330.576 178.588 330.688C178.7 330.8 178.756 330.944 178.756 331.12V333.592C178.756 333.752 178.7 333.896 178.588 334.024C178.476 334.136 178.332 334.192 178.156 334.192H175.828C175.172 334.192 174.66 334.376 174.292 334.744C173.94 335.096 173.764 335.6 173.764 336.256V342.4C173.764 342.56 173.7 342.704 173.572 342.832C173.46 342.944 173.316 343 173.14 343H170.164ZM181.063 343C180.887 343 180.743 342.944 180.631 342.832C180.519 342.704 180.463 342.56 180.463 342.4V331.12C180.463 330.944 180.519 330.8 180.631 330.688C180.743 330.576 180.887 330.52 181.063 330.52H183.895C184.071 330.52 184.215 330.576 184.327 330.688C184.439 330.8 184.495 330.944 184.495 331.12V342.4C184.495 342.56 184.439 342.704 184.327 342.832C184.215 342.944 184.071 343 183.895 343H181.063ZM181.039 328.72C180.863 328.72 180.719 328.664 180.607 328.552C180.495 328.44 180.439 328.296 180.439 328.12V325.96C180.439 325.8 180.495 325.664 180.607 325.552C180.719 325.424 180.863 325.36 181.039 325.36H183.919C184.079 325.36 184.215 325.424 184.327 325.552C184.455 325.664 184.519 325.8 184.519 325.96V328.12C184.519 328.296 184.455 328.44 184.327 328.552C184.215 328.664 184.079 328.72 183.919 328.72H181.039ZM188.68 347.56C188.504 347.56 188.36 347.496 188.248 347.368C188.136 347.256 188.08 347.12 188.08 346.96V331.12C188.08 330.944 188.136 330.8 188.248 330.688C188.36 330.576 188.504 330.52 188.68 330.52H191.392C191.552 330.52 191.688 330.576 191.8 330.688C191.928 330.8 191.992 330.944 191.992 331.12V331.984C192.376 331.504 192.872 331.104 193.48 330.784C194.088 330.448 194.832 330.28 195.712 330.28C196.512 330.28 197.216 330.408 197.824 330.664C198.432 330.904 198.952 331.264 199.384 331.744C199.832 332.224 200.176 332.808 200.416 333.496C200.656 334.184 200.792 334.976 200.824 335.872C200.84 336.192 200.848 336.488 200.848 336.76C200.848 337.032 200.84 337.328 200.824 337.648C200.792 338.512 200.656 339.288 200.416 339.976C200.176 340.664 199.84 341.248 199.408 341.728C198.976 342.208 198.448 342.584 197.824 342.856C197.216 343.112 196.512 343.24 195.712 343.24C194.928 343.24 194.24 343.104 193.648 342.832C193.072 342.544 192.592 342.144 192.208 341.632V346.96C192.208 347.12 192.152 347.256 192.04 347.368C191.928 347.496 191.784 347.56 191.608 347.56H188.68ZM194.416 340.024C194.96 340.024 195.384 339.912 195.688 339.688C195.992 339.464 196.208 339.16 196.336 338.776C196.48 338.392 196.568 337.968 196.6 337.504C196.632 337.008 196.632 336.512 196.6 336.016C196.568 335.552 196.48 335.128 196.336 334.744C196.208 334.36 195.992 334.056 195.688 333.832C195.384 333.608 194.96 333.496 194.416 333.496C193.904 333.496 193.488 333.616 193.168 333.856C192.848 334.08 192.616 334.376 192.472 334.744C192.328 335.112 192.24 335.512 192.208 335.944C192.192 336.248 192.184 336.544 192.184 336.832C192.184 337.12 192.192 337.424 192.208 337.744C192.224 338.144 192.312 338.52 192.472 338.872C192.632 339.208 192.872 339.488 193.192 339.712C193.512 339.92 193.92 340.024 194.416 340.024ZM209.534 343C208.51 343 207.622 342.84 206.87 342.52C206.134 342.184 205.566 341.672 205.166 340.984C204.766 340.28 204.566 339.376 204.566 338.272V333.664H202.694C202.518 333.664 202.366 333.608 202.238 333.496C202.126 333.384 202.07 333.24 202.07 333.064V331.12C202.07 330.944 202.126 330.8 202.238 330.688C202.366 330.576 202.518 330.52 202.694 330.52H204.566V326.56C204.566 326.384 204.622 326.24 204.734 326.128C204.862 326.016 205.006 325.96 205.166 325.96H207.95C208.126 325.96 208.27 326.016 208.382 326.128C208.494 326.24 208.55 326.384 208.55 326.56V330.52H211.55C211.726 330.52 211.87 330.576 211.982 330.688C212.11 330.8 212.174 330.944 212.174 331.12V333.064C212.174 333.24 212.11 333.384 211.982 333.496C211.87 333.608 211.726 333.664 211.55 333.664H208.55V337.936C208.55 338.48 208.654 338.912 208.862 339.232C209.07 339.552 209.422 339.712 209.918 339.712H211.766C211.942 339.712 212.086 339.768 212.198 339.88C212.31 339.992 212.366 340.136 212.366 340.312V342.4C212.366 342.56 212.31 342.704 212.198 342.832C212.086 342.944 211.942 343 211.766 343H209.534Z" fill="white"/>
</svg>
