<svg width="296" height="350" viewBox="0 0 296 350" fill="none" xmlns="http://www.w3.org/2000/svg">
<rect width="296" height="350" rx="8" fill="#CCCCCC"/>
<rect opacity="0.5" width="296" height="350" rx="8" fill="black"/>
<path d="M91.4876 302C91.3116 302 91.1676 301.952 91.0556 301.856C90.9436 301.744 90.8876 301.6 90.8876 301.424V285.8C90.8876 285.624 90.9436 285.48 91.0556 285.368C91.1676 285.256 91.3116 285.2 91.4876 285.2H93.3836C93.7196 285.2 93.9596 285.352 94.1036 285.656L98.7356 294.296L103.416 285.656C103.576 285.352 103.816 285.2 104.136 285.2H106.008C106.184 285.2 106.328 285.256 106.44 285.368C106.552 285.48 106.608 285.624 106.608 285.8V301.424C106.608 301.6 106.552 301.744 106.44 301.856C106.328 301.952 106.184 302 106.008 302H103.992C103.832 302 103.696 301.944 103.584 301.832C103.472 301.72 103.416 301.584 103.416 301.424V291.032L100.056 297.44C99.8476 297.792 99.5756 297.968 99.2396 297.968H98.2556C97.9196 297.968 97.6476 297.792 97.4396 297.44L94.0796 291.032V301.424C94.0796 301.584 94.0236 301.72 93.9116 301.832C93.8156 301.944 93.6796 302 93.5036 302H91.4876ZM113.677 302.24C112.861 302.24 112.109 302.08 111.421 301.76C110.749 301.424 110.213 300.976 109.813 300.416C109.429 299.856 109.237 299.24 109.237 298.568C109.237 297.48 109.677 296.6 110.557 295.928C111.437 295.256 112.645 294.8 114.181 294.56L117.469 294.08V293.576C117.469 292.872 117.293 292.344 116.941 291.992C116.589 291.64 116.021 291.464 115.237 291.464C114.709 291.464 114.277 291.568 113.941 291.776C113.621 291.968 113.365 292.16 113.173 292.352C112.981 292.56 112.853 292.696 112.789 292.76C112.725 292.952 112.605 293.048 112.429 293.048H110.581C110.437 293.048 110.309 293 110.197 292.904C110.101 292.808 110.053 292.68 110.053 292.52C110.069 292.12 110.261 291.664 110.629 291.152C111.013 290.64 111.597 290.2 112.381 289.832C113.165 289.464 114.125 289.28 115.261 289.28C117.149 289.28 118.525 289.704 119.389 290.552C120.253 291.4 120.685 292.512 120.685 293.888V301.424C120.685 301.584 120.629 301.72 120.517 301.832C120.421 301.944 120.285 302 120.109 302H118.165C118.005 302 117.869 301.944 117.757 301.832C117.645 301.72 117.589 301.584 117.589 301.424V300.488C117.237 301 116.733 301.424 116.077 301.76C115.437 302.08 114.637 302.24 113.677 302.24ZM114.493 299.96C115.373 299.96 116.093 299.672 116.653 299.096C117.213 298.52 117.493 297.68 117.493 296.576V296.072L115.093 296.456C114.165 296.6 113.461 296.832 112.981 297.152C112.517 297.472 112.285 297.864 112.285 298.328C112.285 298.84 112.501 299.24 112.933 299.528C113.365 299.816 113.885 299.96 114.493 299.96ZM124.34 302C124.18 302 124.044 301.944 123.932 301.832C123.82 301.72 123.764 301.584 123.764 301.424V290.12C123.764 289.96 123.82 289.824 123.932 289.712C124.044 289.584 124.18 289.52 124.34 289.52H126.284C126.46 289.52 126.604 289.576 126.716 289.688C126.828 289.8 126.884 289.944 126.884 290.12V291.104C127.268 290.592 127.748 290.2 128.324 289.928C128.916 289.656 129.588 289.52 130.34 289.52H131.324C131.5 289.52 131.636 289.576 131.732 289.688C131.844 289.784 131.9 289.92 131.9 290.096V291.824C131.9 291.984 131.844 292.12 131.732 292.232C131.636 292.344 131.5 292.4 131.324 292.4H129.452C128.7 292.4 128.108 292.616 127.676 293.048C127.244 293.48 127.028 294.072 127.028 294.824V301.424C127.028 301.584 126.972 301.72 126.86 301.832C126.748 301.944 126.604 302 126.428 302H124.34ZM134.372 302C134.212 302 134.076 301.944 133.964 301.832C133.852 301.72 133.796 301.584 133.796 301.424V285.536C133.796 285.36 133.852 285.224 133.964 285.128C134.076 285.016 134.212 284.96 134.372 284.96H136.316C136.492 284.96 136.628 285.016 136.724 285.128C136.836 285.224 136.892 285.36 136.892 285.536V293.744L140.924 289.928C140.972 289.896 141.052 289.832 141.164 289.736C141.26 289.656 141.356 289.6 141.452 289.568C141.548 289.536 141.668 289.52 141.812 289.52H144.044C144.204 289.52 144.332 289.568 144.428 289.664C144.524 289.76 144.572 289.888 144.572 290.048C144.572 290.192 144.492 290.336 144.332 290.48L139.388 295.112L144.932 301.064C145.092 301.224 145.172 301.36 145.172 301.472C145.172 301.632 145.116 301.76 145.004 301.856C144.908 301.952 144.788 302 144.644 302H142.364C142.14 302 141.972 301.976 141.86 301.928C141.764 301.864 141.636 301.752 141.476 301.592L136.892 296.768V301.424C136.892 301.584 136.836 301.72 136.724 301.832C136.628 301.944 136.492 302 136.316 302H134.372ZM151.757 302.24C149.981 302.24 148.565 301.728 147.509 300.704C146.469 299.664 145.917 298.208 145.853 296.336L145.829 295.736L145.853 295.136C145.933 293.312 146.493 291.88 147.533 290.84C148.589 289.8 149.997 289.28 151.757 289.28C153.645 289.28 155.101 289.856 156.125 291.008C157.165 292.16 157.685 293.696 157.685 295.616V296.12C157.685 296.28 157.629 296.416 157.517 296.528C157.405 296.64 157.261 296.696 157.085 296.696H149.117V296.888C149.149 297.768 149.389 298.512 149.837 299.12C150.301 299.712 150.933 300.008 151.733 300.008C152.677 300.008 153.437 299.64 154.013 298.904C154.157 298.728 154.269 298.616 154.349 298.568C154.445 298.52 154.581 298.496 154.757 298.496H156.821C156.965 298.496 157.085 298.544 157.181 298.64C157.293 298.72 157.349 298.824 157.349 298.952C157.349 299.336 157.117 299.792 156.653 300.32C156.205 300.832 155.557 301.28 154.709 301.664C153.861 302.048 152.877 302.24 151.757 302.24ZM154.421 294.68V294.608C154.421 293.664 154.181 292.904 153.701 292.328C153.237 291.752 152.589 291.464 151.757 291.464C150.925 291.464 150.277 291.752 149.813 292.328C149.349 292.904 149.117 293.664 149.117 294.608V294.68H154.421ZM165.826 302C164.37 302 163.274 301.624 162.538 300.872C161.818 300.104 161.458 298.984 161.458 297.512V292.064H159.562C159.402 292.064 159.266 292.008 159.154 291.896C159.042 291.768 158.986 291.624 158.986 291.464V290.096C158.986 289.936 159.042 289.8 159.154 289.688C159.266 289.576 159.402 289.52 159.562 289.52H161.458V285.536C161.458 285.36 161.514 285.224 161.626 285.128C161.738 285.016 161.874 284.96 162.034 284.96H163.978C164.154 284.96 164.29 285.016 164.386 285.128C164.498 285.224 164.554 285.36 164.554 285.536V289.52H167.554C167.73 289.52 167.866 289.576 167.962 289.688C168.074 289.784 168.13 289.92 168.13 290.096V291.464C168.13 291.64 168.074 291.784 167.962 291.896C167.85 292.008 167.714 292.064 167.554 292.064H164.554V297.272C164.554 297.96 164.674 298.48 164.914 298.832C165.154 299.184 165.554 299.36 166.114 299.36H167.77C167.93 299.36 168.066 299.416 168.178 299.528C168.29 299.64 168.346 299.776 168.346 299.936V301.424C168.346 301.584 168.29 301.72 168.178 301.832C168.082 301.944 167.946 302 167.77 302H165.826ZM170.955 287.456C170.795 287.456 170.659 287.4 170.547 287.288C170.435 287.176 170.379 287.04 170.379 286.88V285.152C170.379 284.992 170.435 284.856 170.547 284.744C170.659 284.632 170.795 284.576 170.955 284.576H173.139C173.299 284.576 173.435 284.632 173.547 284.744C173.675 284.856 173.739 284.992 173.739 285.152V286.88C173.739 287.04 173.683 287.176 173.571 287.288C173.459 287.4 173.315 287.456 173.139 287.456H170.955ZM171.051 302C170.891 302 170.755 301.944 170.643 301.832C170.531 301.72 170.475 301.584 170.475 301.424V290.096C170.475 289.936 170.531 289.8 170.643 289.688C170.755 289.576 170.891 289.52 171.051 289.52H173.043C173.219 289.52 173.355 289.576 173.451 289.688C173.563 289.784 173.619 289.92 173.619 290.096V301.424C173.619 301.584 173.563 301.72 173.451 301.832C173.355 301.944 173.219 302 173.043 302H171.051ZM177.379 302C177.219 302 177.083 301.944 176.971 301.832C176.859 301.72 176.803 301.584 176.803 301.424V290.096C176.803 289.936 176.859 289.8 176.971 289.688C177.083 289.576 177.219 289.52 177.379 289.52H179.347C179.507 289.52 179.643 289.576 179.755 289.688C179.867 289.8 179.923 289.936 179.923 290.096V291.08C180.867 289.88 182.203 289.28 183.931 289.28C185.403 289.28 186.571 289.768 187.435 290.744C188.299 291.704 188.731 293.016 188.731 294.68V301.424C188.731 301.584 188.675 301.72 188.563 301.832C188.467 301.944 188.331 302 188.155 302H186.043C185.883 302 185.747 301.944 185.635 301.832C185.523 301.72 185.467 301.584 185.467 301.424V294.824C185.467 293.88 185.235 293.152 184.771 292.64C184.323 292.112 183.667 291.848 182.803 291.848C181.955 291.848 181.283 292.112 180.787 292.64C180.307 293.168 180.067 293.896 180.067 294.824V301.424C180.067 301.584 180.011 301.72 179.899 301.832C179.803 301.944 179.667 302 179.491 302H177.379ZM197.419 307.28C195.995 307.28 194.843 307.04 193.963 306.56C193.083 306.096 192.459 305.56 192.091 304.952C191.723 304.344 191.539 303.824 191.539 303.392C191.539 303.248 191.595 303.12 191.707 303.008C191.835 302.896 191.971 302.84 192.115 302.84H194.203C194.347 302.84 194.467 302.872 194.563 302.936C194.675 303.016 194.763 303.152 194.827 303.344C194.987 303.776 195.243 304.136 195.595 304.424C195.963 304.728 196.531 304.88 197.299 304.88C198.259 304.88 198.963 304.664 199.411 304.232C199.875 303.8 200.107 303.056 200.107 302V300.368C199.227 301.408 197.995 301.928 196.411 301.928C194.747 301.928 193.491 301.416 192.643 300.392C191.811 299.368 191.363 297.992 191.299 296.264L191.275 295.616L191.299 294.968C191.363 293.272 191.819 291.904 192.667 290.864C193.515 289.808 194.763 289.28 196.411 289.28C197.259 289.28 198.003 289.44 198.643 289.76C199.283 290.08 199.819 290.52 200.251 291.08V290.12C200.251 289.944 200.307 289.8 200.419 289.688C200.531 289.576 200.667 289.52 200.827 289.52H202.771C202.931 289.52 203.067 289.584 203.179 289.712C203.291 289.824 203.347 289.96 203.347 290.12L203.371 301.688C203.371 303.464 202.875 304.84 201.883 305.816C200.891 306.792 199.403 307.28 197.419 307.28ZM197.299 299.384C198.211 299.384 198.891 299.096 199.339 298.52C199.803 297.944 200.059 297.24 200.107 296.408C200.123 296.28 200.131 296.016 200.131 295.616C200.131 295.232 200.123 294.976 200.107 294.848C200.059 294 199.803 293.288 199.339 292.712C198.891 292.136 198.211 291.848 197.299 291.848C195.571 291.848 194.659 292.912 194.563 295.04L194.539 295.616C194.539 296.752 194.739 297.664 195.139 298.352C195.555 299.04 196.275 299.384 197.299 299.384Z" fill="white"/>
</svg>
