<svg width="296" height="350" viewBox="0 0 296 350" fill="none" xmlns="http://www.w3.org/2000/svg">
<rect width="296" height="350" rx="8" fill="#CCCCCC"/>
<rect opacity="0.5" width="296" height="350" rx="8" fill="black"/>
<path d="M99.6824 270C99.5224 270 99.3864 269.944 99.2744 269.832C99.1624 269.72 99.1064 269.584 99.1064 269.424V253.8C99.1064 253.624 99.1544 253.48 99.2504 253.368C99.3624 253.256 99.5064 253.2 99.6824 253.2H106.114C108.034 253.2 109.546 253.656 110.65 254.568C111.754 255.464 112.306 256.784 112.306 258.528C112.306 260.272 111.754 261.592 110.65 262.488C109.562 263.368 108.05 263.808 106.114 263.808H102.538V269.424C102.538 269.584 102.482 269.72 102.37 269.832C102.274 269.944 102.138 270 101.962 270H99.6824ZM105.994 261.144C106.922 261.144 107.634 260.928 108.13 260.496C108.626 260.048 108.874 259.392 108.874 258.528C108.874 257.696 108.634 257.048 108.154 256.584C107.674 256.104 106.954 255.864 105.994 255.864H102.49V261.144H105.994ZM119.851 270.24C118.075 270.24 116.659 269.728 115.603 268.704C114.563 267.664 114.011 266.208 113.947 264.336L113.923 263.736L113.947 263.136C114.027 261.312 114.587 259.88 115.627 258.84C116.683 257.8 118.091 257.28 119.851 257.28C121.739 257.28 123.195 257.856 124.219 259.008C125.259 260.16 125.779 261.696 125.779 263.616V264.12C125.779 264.28 125.723 264.416 125.611 264.528C125.499 264.64 125.355 264.696 125.179 264.696H117.211V264.888C117.243 265.768 117.483 266.512 117.931 267.12C118.395 267.712 119.027 268.008 119.827 268.008C120.771 268.008 121.531 267.64 122.107 266.904C122.251 266.728 122.363 266.616 122.443 266.568C122.539 266.52 122.675 266.496 122.851 266.496H124.915C125.059 266.496 125.179 266.544 125.275 266.64C125.387 266.72 125.443 266.824 125.443 266.952C125.443 267.336 125.211 267.792 124.747 268.32C124.299 268.832 123.651 269.28 122.803 269.664C121.955 270.048 120.971 270.24 119.851 270.24ZM122.515 262.68V262.608C122.515 261.664 122.275 260.904 121.795 260.328C121.331 259.752 120.683 259.464 119.851 259.464C119.019 259.464 118.371 259.752 117.907 260.328C117.443 260.904 117.211 261.664 117.211 262.608V262.68H122.515ZM128.902 270C128.742 270 128.606 269.944 128.494 269.832C128.382 269.72 128.326 269.584 128.326 269.424V258.12C128.326 257.96 128.382 257.824 128.494 257.712C128.606 257.584 128.742 257.52 128.902 257.52H130.846C131.022 257.52 131.166 257.576 131.278 257.688C131.39 257.8 131.446 257.944 131.446 258.12V259.104C131.83 258.592 132.31 258.2 132.886 257.928C133.478 257.656 134.15 257.52 134.902 257.52H135.886C136.062 257.52 136.198 257.576 136.294 257.688C136.406 257.784 136.462 257.92 136.462 258.096V259.824C136.462 259.984 136.406 260.12 136.294 260.232C136.198 260.344 136.062 260.4 135.886 260.4H134.014C133.262 260.4 132.67 260.616 132.238 261.048C131.806 261.48 131.59 262.072 131.59 262.824V269.424C131.59 269.584 131.534 269.72 131.422 269.832C131.31 269.944 131.166 270 130.99 270H128.902ZM143.062 270.24C141.862 270.24 140.854 270.064 140.038 269.712C139.222 269.344 138.614 268.92 138.214 268.44C137.83 267.944 137.638 267.52 137.638 267.168C137.638 267.008 137.694 266.88 137.806 266.784C137.918 266.688 138.046 266.64 138.19 266.64H140.086C140.23 266.64 140.35 266.696 140.446 266.808C140.51 266.856 140.678 267 140.95 267.24C141.222 267.496 141.542 267.696 141.91 267.84C142.278 267.984 142.686 268.056 143.134 268.056C143.774 268.056 144.302 267.928 144.718 267.672C145.134 267.416 145.342 267.064 145.342 266.616C145.342 266.28 145.246 266.008 145.054 265.8C144.878 265.592 144.55 265.408 144.07 265.248C143.59 265.072 142.878 264.888 141.934 264.696C140.574 264.408 139.566 263.968 138.91 263.376C138.27 262.784 137.95 262 137.95 261.024C137.95 260.384 138.142 259.784 138.526 259.224C138.91 258.648 139.478 258.184 140.23 257.832C140.998 257.464 141.91 257.28 142.966 257.28C144.038 257.28 144.966 257.456 145.75 257.808C146.534 258.144 147.126 258.552 147.526 259.032C147.942 259.496 148.15 259.912 148.15 260.28C148.15 260.424 148.094 260.552 147.982 260.664C147.886 260.76 147.766 260.808 147.622 260.808H145.846C145.718 260.808 145.582 260.752 145.438 260.64C145.326 260.56 145.15 260.408 144.91 260.184C144.67 259.96 144.39 259.784 144.07 259.656C143.75 259.528 143.374 259.464 142.942 259.464C142.35 259.464 141.886 259.592 141.55 259.848C141.23 260.104 141.07 260.44 141.07 260.856C141.07 261.16 141.15 261.408 141.31 261.6C141.47 261.792 141.782 261.976 142.246 262.152C142.71 262.328 143.406 262.504 144.334 262.68C145.87 262.984 146.966 263.456 147.622 264.096C148.294 264.736 148.63 265.52 148.63 266.448C148.63 267.568 148.142 268.48 147.166 269.184C146.19 269.888 144.822 270.24 143.062 270.24ZM156.627 270.24C154.755 270.24 153.307 269.76 152.283 268.8C151.259 267.824 150.707 266.496 150.627 264.816L150.603 263.76L150.627 262.704C150.707 261.04 151.267 259.72 152.307 258.744C153.347 257.768 154.787 257.28 156.627 257.28C158.467 257.28 159.907 257.768 160.947 258.744C161.987 259.72 162.547 261.04 162.627 262.704C162.643 262.896 162.651 263.248 162.651 263.76C162.651 264.272 162.643 264.624 162.627 264.816C162.547 266.496 161.995 267.824 160.971 268.8C159.947 269.76 158.499 270.24 156.627 270.24ZM156.627 267.864C157.475 267.864 158.131 267.6 158.595 267.072C159.059 266.528 159.315 265.736 159.363 264.696C159.379 264.536 159.387 264.224 159.387 263.76C159.387 263.296 159.379 262.984 159.363 262.824C159.315 261.784 159.059 261 158.595 260.472C158.131 259.928 157.475 259.656 156.627 259.656C155.779 259.656 155.123 259.928 154.659 260.472C154.195 261 153.939 261.784 153.891 262.824L153.867 263.76L153.891 264.696C153.939 265.736 154.195 266.528 154.659 267.072C155.123 267.6 155.779 267.864 156.627 267.864ZM165.887 270C165.727 270 165.591 269.944 165.479 269.832C165.367 269.72 165.311 269.584 165.311 269.424V258.096C165.311 257.936 165.367 257.8 165.479 257.688C165.591 257.576 165.727 257.52 165.887 257.52H167.855C168.015 257.52 168.151 257.576 168.263 257.688C168.375 257.8 168.431 257.936 168.431 258.096V259.08C169.375 257.88 170.711 257.28 172.439 257.28C173.911 257.28 175.079 257.768 175.943 258.744C176.807 259.704 177.239 261.016 177.239 262.68V269.424C177.239 269.584 177.183 269.72 177.071 269.832C176.975 269.944 176.839 270 176.663 270H174.551C174.391 270 174.255 269.944 174.143 269.832C174.031 269.72 173.975 269.584 173.975 269.424V262.824C173.975 261.88 173.743 261.152 173.279 260.64C172.831 260.112 172.175 259.848 171.311 259.848C170.463 259.848 169.791 260.112 169.295 260.64C168.815 261.168 168.575 261.896 168.575 262.824V269.424C168.575 269.584 168.519 269.72 168.407 269.832C168.311 269.944 168.175 270 167.999 270H165.887ZM183.911 270.24C183.095 270.24 182.343 270.08 181.655 269.76C180.983 269.424 180.447 268.976 180.047 268.416C179.663 267.856 179.471 267.24 179.471 266.568C179.471 265.48 179.911 264.6 180.791 263.928C181.671 263.256 182.879 262.8 184.415 262.56L187.703 262.08V261.576C187.703 260.872 187.527 260.344 187.175 259.992C186.823 259.64 186.255 259.464 185.471 259.464C184.943 259.464 184.511 259.568 184.175 259.776C183.855 259.968 183.599 260.16 183.407 260.352C183.215 260.56 183.087 260.696 183.023 260.76C182.959 260.952 182.839 261.048 182.663 261.048H180.815C180.671 261.048 180.543 261 180.431 260.904C180.335 260.808 180.287 260.68 180.287 260.52C180.303 260.12 180.495 259.664 180.863 259.152C181.247 258.64 181.831 258.2 182.615 257.832C183.399 257.464 184.359 257.28 185.495 257.28C187.383 257.28 188.759 257.704 189.623 258.552C190.487 259.4 190.919 260.512 190.919 261.888V269.424C190.919 269.584 190.863 269.72 190.751 269.832C190.655 269.944 190.519 270 190.343 270H188.399C188.239 270 188.103 269.944 187.991 269.832C187.879 269.72 187.823 269.584 187.823 269.424V268.488C187.471 269 186.967 269.424 186.311 269.76C185.671 270.08 184.871 270.24 183.911 270.24ZM184.727 267.96C185.607 267.96 186.327 267.672 186.887 267.096C187.447 266.52 187.727 265.68 187.727 264.576V264.072L185.327 264.456C184.399 264.6 183.695 264.832 183.215 265.152C182.751 265.472 182.519 265.864 182.519 266.328C182.519 266.84 182.735 267.24 183.167 267.528C183.599 267.816 184.119 267.96 184.727 267.96ZM194.598 270C194.438 270 194.302 269.944 194.19 269.832C194.078 269.72 194.022 269.584 194.022 269.424V253.536C194.022 253.36 194.078 253.224 194.19 253.128C194.302 253.016 194.438 252.96 194.598 252.96H196.59C196.766 252.96 196.902 253.016 196.998 253.128C197.11 253.224 197.166 253.36 197.166 253.536V269.424C197.166 269.584 197.11 269.72 196.998 269.832C196.902 269.944 196.766 270 196.59 270H194.598ZM73.7488 302C73.5888 302 73.4528 301.944 73.3408 301.832C73.2288 301.72 73.1728 301.584 73.1728 301.424V285.8C73.1728 285.624 73.2208 285.48 73.3168 285.368C73.4288 285.256 73.5728 285.2 73.7488 285.2H79.6048C84.3088 285.2 86.7088 287.376 86.8048 291.728C86.8368 292.656 86.8528 293.28 86.8528 293.6C86.8528 293.904 86.8368 294.52 86.8048 295.448C86.7408 297.688 86.1408 299.344 85.0048 300.416C83.8688 301.472 82.1088 302 79.7248 302H73.7488ZM79.6048 299.24C80.9488 299.24 81.9168 298.944 82.5088 298.352C83.1008 297.744 83.4128 296.752 83.4448 295.376C83.4768 294.416 83.4928 293.816 83.4928 293.576C83.4928 293.32 83.4768 292.728 83.4448 291.8C83.4128 290.488 83.0768 289.52 82.4368 288.896C81.8128 288.272 80.8288 287.96 79.4848 287.96H76.5088V299.24H79.6048ZM95.1358 302.24C93.3598 302.24 91.9438 301.728 90.8878 300.704C89.8478 299.664 89.2958 298.208 89.2318 296.336L89.2078 295.736L89.2318 295.136C89.3118 293.312 89.8718 291.88 90.9118 290.84C91.9678 289.8 93.3758 289.28 95.1358 289.28C97.0238 289.28 98.4798 289.856 99.5038 291.008C100.544 292.16 101.064 293.696 101.064 295.616V296.12C101.064 296.28 101.008 296.416 100.896 296.528C100.784 296.64 100.64 296.696 100.464 296.696H92.4958V296.888C92.5278 297.768 92.7678 298.512 93.2158 299.12C93.6798 299.712 94.3118 300.008 95.1118 300.008C96.0558 300.008 96.8158 299.64 97.3918 298.904C97.5358 298.728 97.6478 298.616 97.7278 298.568C97.8238 298.52 97.9598 298.496 98.1358 298.496H100.2C100.344 298.496 100.464 298.544 100.56 298.64C100.672 298.72 100.728 298.824 100.728 298.952C100.728 299.336 100.496 299.792 100.032 300.32C99.5838 300.832 98.9358 301.28 98.0878 301.664C97.2398 302.048 96.2558 302.24 95.1358 302.24ZM97.7998 294.68V294.608C97.7998 293.664 97.5598 292.904 97.0798 292.328C96.6158 291.752 95.9678 291.464 95.1358 291.464C94.3038 291.464 93.6558 291.752 93.1918 292.328C92.7278 292.904 92.4958 293.664 92.4958 294.608V294.68H97.7998ZM107.582 302C107.342 302 107.158 301.952 107.03 301.856C106.902 301.744 106.798 301.592 106.718 301.4L102.23 290.264L102.182 290.048C102.182 289.904 102.23 289.784 102.326 289.688C102.438 289.576 102.566 289.52 102.71 289.52H104.654C104.958 289.52 105.166 289.672 105.278 289.976L108.47 298.4L111.662 289.976C111.71 289.864 111.782 289.76 111.878 289.664C111.99 289.568 112.126 289.52 112.286 289.52H114.254C114.382 289.52 114.494 289.576 114.59 289.688C114.702 289.784 114.758 289.904 114.758 290.048C114.758 290.144 114.75 290.216 114.734 290.264L110.222 301.4C110.142 301.592 110.038 301.744 109.91 301.856C109.782 301.952 109.598 302 109.358 302H107.582ZM121.878 302.24C120.102 302.24 118.686 301.728 117.63 300.704C116.59 299.664 116.038 298.208 115.974 296.336L115.95 295.736L115.974 295.136C116.054 293.312 116.614 291.88 117.654 290.84C118.71 289.8 120.118 289.28 121.878 289.28C123.766 289.28 125.222 289.856 126.246 291.008C127.286 292.16 127.806 293.696 127.806 295.616V296.12C127.806 296.28 127.75 296.416 127.638 296.528C127.526 296.64 127.382 296.696 127.206 296.696H119.238V296.888C119.27 297.768 119.51 298.512 119.958 299.12C120.422 299.712 121.054 300.008 121.854 300.008C122.798 300.008 123.558 299.64 124.134 298.904C124.278 298.728 124.39 298.616 124.47 298.568C124.566 298.52 124.702 298.496 124.878 298.496H126.942C127.086 298.496 127.206 298.544 127.302 298.64C127.414 298.72 127.47 298.824 127.47 298.952C127.47 299.336 127.238 299.792 126.774 300.32C126.326 300.832 125.678 301.28 124.83 301.664C123.982 302.048 122.998 302.24 121.878 302.24ZM124.542 294.68V294.608C124.542 293.664 124.302 292.904 123.822 292.328C123.358 291.752 122.71 291.464 121.878 291.464C121.046 291.464 120.398 291.752 119.934 292.328C119.47 292.904 119.238 293.664 119.238 294.608V294.68H124.542ZM130.954 302C130.794 302 130.658 301.944 130.546 301.832C130.434 301.72 130.378 301.584 130.378 301.424V285.536C130.378 285.36 130.434 285.224 130.546 285.128C130.658 285.016 130.794 284.96 130.954 284.96H132.946C133.122 284.96 133.258 285.016 133.354 285.128C133.466 285.224 133.522 285.36 133.522 285.536V301.424C133.522 301.584 133.466 301.72 133.354 301.832C133.258 301.944 133.122 302 132.946 302H130.954ZM142.225 302.24C140.353 302.24 138.905 301.76 137.881 300.8C136.857 299.824 136.305 298.496 136.225 296.816L136.201 295.76L136.225 294.704C136.305 293.04 136.865 291.72 137.905 290.744C138.945 289.768 140.385 289.28 142.225 289.28C144.065 289.28 145.505 289.768 146.545 290.744C147.585 291.72 148.145 293.04 148.225 294.704C148.241 294.896 148.249 295.248 148.249 295.76C148.249 296.272 148.241 296.624 148.225 296.816C148.145 298.496 147.593 299.824 146.569 300.8C145.545 301.76 144.097 302.24 142.225 302.24ZM142.225 299.864C143.073 299.864 143.729 299.6 144.193 299.072C144.657 298.528 144.913 297.736 144.961 296.696C144.977 296.536 144.985 296.224 144.985 295.76C144.985 295.296 144.977 294.984 144.961 294.824C144.913 293.784 144.657 293 144.193 292.472C143.729 291.928 143.073 291.656 142.225 291.656C141.377 291.656 140.721 291.928 140.257 292.472C139.793 293 139.537 293.784 139.489 294.824L139.465 295.76L139.489 296.696C139.537 297.736 139.793 298.528 140.257 299.072C140.721 299.6 141.377 299.864 142.225 299.864ZM151.508 306.56C151.348 306.56 151.212 306.504 151.1 306.392C150.988 306.296 150.932 306.16 150.932 305.984V290.096C150.932 289.92 150.988 289.784 151.1 289.688C151.212 289.576 151.348 289.52 151.508 289.52H153.404C153.58 289.52 153.716 289.576 153.812 289.688C153.924 289.784 153.98 289.92 153.98 290.096V291.056C154.876 289.872 156.156 289.28 157.82 289.28C159.436 289.28 160.676 289.792 161.54 290.816C162.404 291.824 162.868 293.192 162.932 294.92C162.948 295.112 162.956 295.392 162.956 295.76C162.956 296.144 162.948 296.432 162.932 296.624C162.868 298.304 162.404 299.664 161.54 300.704C160.676 301.728 159.436 302.24 157.82 302.24C156.204 302.24 154.972 301.672 154.124 300.536V305.984C154.124 306.16 154.068 306.296 153.956 306.392C153.86 306.504 153.724 306.56 153.548 306.56H151.508ZM156.932 299.672C158.66 299.672 159.58 298.608 159.692 296.48C159.708 296.32 159.716 296.08 159.716 295.76C159.716 295.44 159.708 295.2 159.692 295.04C159.58 292.912 158.66 291.848 156.932 291.848C156.004 291.848 155.316 292.144 154.868 292.736C154.42 293.328 154.172 294.056 154.124 294.92L154.1 295.832L154.124 296.768C154.156 297.568 154.404 298.256 154.868 298.832C155.348 299.392 156.036 299.672 156.932 299.672ZM166.226 302C166.066 302 165.93 301.944 165.818 301.832C165.706 301.72 165.65 301.584 165.65 301.424V290.096C165.65 289.936 165.706 289.8 165.818 289.688C165.93 289.576 166.066 289.52 166.226 289.52H168.098C168.258 289.52 168.394 289.576 168.506 289.688C168.618 289.8 168.674 289.936 168.674 290.096V290.912C169.506 289.824 170.666 289.28 172.154 289.28C173.93 289.28 175.17 289.992 175.874 291.416C176.258 290.776 176.802 290.264 177.506 289.88C178.21 289.48 178.97 289.28 179.786 289.28C181.098 289.28 182.17 289.728 183.002 290.624C183.834 291.52 184.25 292.824 184.25 294.536V301.424C184.25 301.584 184.194 301.72 184.082 301.832C183.986 301.944 183.85 302 183.674 302H181.706C181.546 302 181.41 301.944 181.298 301.832C181.186 301.72 181.13 301.584 181.13 301.424V294.728C181.13 293.72 180.914 292.992 180.482 292.544C180.066 292.08 179.506 291.848 178.802 291.848C178.178 291.848 177.642 292.08 177.194 292.544C176.762 293.008 176.546 293.736 176.546 294.728V301.424C176.546 301.584 176.49 301.72 176.378 301.832C176.266 301.944 176.13 302 175.97 302H174.002C173.842 302 173.706 301.944 173.594 301.832C173.482 301.72 173.426 301.584 173.426 301.424V294.728C173.426 293.72 173.202 292.992 172.754 292.544C172.322 292.08 171.77 291.848 171.098 291.848C170.458 291.848 169.914 292.08 169.466 292.544C169.034 293.008 168.818 293.736 168.818 294.728V301.424C168.818 301.584 168.762 301.72 168.65 301.832C168.538 301.944 168.402 302 168.242 302H166.226ZM192.683 302.24C190.907 302.24 189.491 301.728 188.435 300.704C187.395 299.664 186.843 298.208 186.779 296.336L186.755 295.736L186.779 295.136C186.859 293.312 187.419 291.88 188.459 290.84C189.515 289.8 190.923 289.28 192.683 289.28C194.571 289.28 196.027 289.856 197.051 291.008C198.091 292.16 198.611 293.696 198.611 295.616V296.12C198.611 296.28 198.555 296.416 198.443 296.528C198.331 296.64 198.187 296.696 198.011 296.696H190.043V296.888C190.075 297.768 190.315 298.512 190.763 299.12C191.227 299.712 191.859 300.008 192.659 300.008C193.603 300.008 194.363 299.64 194.939 298.904C195.083 298.728 195.195 298.616 195.275 298.568C195.371 298.52 195.507 298.496 195.683 298.496H197.747C197.891 298.496 198.011 298.544 198.107 298.64C198.219 298.72 198.275 298.824 198.275 298.952C198.275 299.336 198.043 299.792 197.579 300.32C197.131 300.832 196.483 301.28 195.635 301.664C194.787 302.048 193.803 302.24 192.683 302.24ZM195.347 294.68V294.608C195.347 293.664 195.107 292.904 194.627 292.328C194.163 291.752 193.515 291.464 192.683 291.464C191.851 291.464 191.203 291.752 190.739 292.328C190.275 292.904 190.043 293.664 190.043 294.608V294.68H195.347ZM201.734 302C201.574 302 201.438 301.944 201.326 301.832C201.214 301.72 201.158 301.584 201.158 301.424V290.096C201.158 289.936 201.214 289.8 201.326 289.688C201.438 289.576 201.574 289.52 201.734 289.52H203.702C203.862 289.52 203.998 289.576 204.11 289.688C204.222 289.8 204.278 289.936 204.278 290.096V291.08C205.222 289.88 206.558 289.28 208.286 289.28C209.758 289.28 210.926 289.768 211.79 290.744C212.654 291.704 213.086 293.016 213.086 294.68V301.424C213.086 301.584 213.03 301.72 212.918 301.832C212.822 301.944 212.686 302 212.51 302H210.398C210.238 302 210.102 301.944 209.99 301.832C209.878 301.72 209.822 301.584 209.822 301.424V294.824C209.822 293.88 209.59 293.152 209.126 292.64C208.678 292.112 208.022 291.848 207.158 291.848C206.31 291.848 205.638 292.112 205.142 292.64C204.662 293.168 204.422 293.896 204.422 294.824V301.424C204.422 301.584 204.366 301.72 204.254 301.832C204.158 301.944 204.022 302 203.846 302H201.734ZM221.634 302C220.178 302 219.082 301.624 218.346 300.872C217.626 300.104 217.266 298.984 217.266 297.512V292.064H215.37C215.21 292.064 215.074 292.008 214.962 291.896C214.85 291.768 214.794 291.624 214.794 291.464V290.096C214.794 289.936 214.85 289.8 214.962 289.688C215.074 289.576 215.21 289.52 215.37 289.52H217.266V285.536C217.266 285.36 217.322 285.224 217.434 285.128C217.546 285.016 217.682 284.96 217.842 284.96H219.786C219.962 284.96 220.098 285.016 220.194 285.128C220.306 285.224 220.362 285.36 220.362 285.536V289.52H223.362C223.538 289.52 223.674 289.576 223.77 289.688C223.882 289.784 223.938 289.92 223.938 290.096V291.464C223.938 291.64 223.882 291.784 223.77 291.896C223.658 292.008 223.522 292.064 223.362 292.064H220.362V297.272C220.362 297.96 220.482 298.48 220.722 298.832C220.962 299.184 221.362 299.36 221.922 299.36H223.578C223.738 299.36 223.874 299.416 223.986 299.528C224.098 299.64 224.154 299.776 224.154 299.936V301.424C224.154 301.584 224.098 301.72 223.986 301.832C223.89 301.944 223.754 302 223.578 302H221.634Z" fill="white"/>
</svg>
