<svg width="296" height="350" viewBox="0 0 296 350" fill="none" xmlns="http://www.w3.org/2000/svg">
<rect width="296" height="350" rx="8" fill="#CCCCCC"/>
<rect opacity="0.5" width="296" height="350" rx="8" fill="black"/>
<path d="M72.448 302C72.288 302 72.152 301.944 72.04 301.832C71.928 301.72 71.872 301.584 71.872 301.424V285.8C71.872 285.624 71.92 285.48 72.016 285.368C72.128 285.256 72.272 285.2 72.448 285.2H78.88C80.8 285.2 82.312 285.656 83.416 286.568C84.52 287.464 85.072 288.784 85.072 290.528C85.072 292.272 84.52 293.592 83.416 294.488C82.328 295.368 80.816 295.808 78.88 295.808H75.304V301.424C75.304 301.584 75.248 301.72 75.136 301.832C75.04 301.944 74.904 302 74.728 302H72.448ZM78.76 293.144C79.688 293.144 80.4 292.928 80.896 292.496C81.392 292.048 81.64 291.392 81.64 290.528C81.64 289.696 81.4 289.048 80.92 288.584C80.44 288.104 79.72 287.864 78.76 287.864H75.256V293.144H78.76ZM88.0043 302C87.8443 302 87.7083 301.944 87.5963 301.832C87.4843 301.72 87.4283 301.584 87.4283 301.424V285.536C87.4283 285.36 87.4843 285.224 87.5963 285.128C87.7083 285.016 87.8443 284.96 88.0043 284.96H90.1403C90.3163 284.96 90.4523 285.016 90.5483 285.128C90.6603 285.224 90.7163 285.36 90.7163 285.536V291.008C91.6763 289.856 92.9723 289.28 94.6043 289.28C96.0763 289.28 97.2523 289.768 98.1323 290.744C99.0123 291.704 99.4523 293.016 99.4523 294.68V301.424C99.4523 301.584 99.3963 301.72 99.2843 301.832C99.1883 301.944 99.0523 302 98.8763 302H96.7163C96.5563 302 96.4203 301.944 96.3083 301.832C96.1963 301.72 96.1403 301.584 96.1403 301.424V294.824C96.1403 293.88 95.9083 293.152 95.4443 292.64C94.9963 292.112 94.3403 291.848 93.4763 291.848C92.6283 291.848 91.9563 292.112 91.4603 292.64C90.9643 293.168 90.7163 293.896 90.7163 294.824V301.424C90.7163 301.584 90.6603 301.72 90.5483 301.832C90.4523 301.944 90.3163 302 90.1403 302H88.0043ZM108.018 302.24C106.146 302.24 104.698 301.76 103.674 300.8C102.65 299.824 102.098 298.496 102.018 296.816L101.994 295.76L102.018 294.704C102.098 293.04 102.658 291.72 103.698 290.744C104.738 289.768 106.178 289.28 108.018 289.28C109.858 289.28 111.298 289.768 112.338 290.744C113.378 291.72 113.938 293.04 114.018 294.704C114.034 294.896 114.042 295.248 114.042 295.76C114.042 296.272 114.034 296.624 114.018 296.816C113.938 298.496 113.386 299.824 112.362 300.8C111.338 301.76 109.89 302.24 108.018 302.24ZM108.018 299.864C108.866 299.864 109.522 299.6 109.986 299.072C110.45 298.528 110.706 297.736 110.754 296.696C110.77 296.536 110.778 296.224 110.778 295.76C110.778 295.296 110.77 294.984 110.754 294.824C110.706 293.784 110.45 293 109.986 292.472C109.522 291.928 108.866 291.656 108.018 291.656C107.17 291.656 106.514 291.928 106.05 292.472C105.586 293 105.33 293.784 105.282 294.824L105.258 295.76L105.282 296.696C105.33 297.736 105.586 298.528 106.05 299.072C106.514 299.6 107.17 299.864 108.018 299.864ZM122.247 302C120.791 302 119.695 301.624 118.959 300.872C118.239 300.104 117.879 298.984 117.879 297.512V292.064H115.983C115.823 292.064 115.687 292.008 115.575 291.896C115.463 291.768 115.407 291.624 115.407 291.464V290.096C115.407 289.936 115.463 289.8 115.575 289.688C115.687 289.576 115.823 289.52 115.983 289.52H117.879V285.536C117.879 285.36 117.935 285.224 118.047 285.128C118.159 285.016 118.295 284.96 118.455 284.96H120.399C120.575 284.96 120.711 285.016 120.807 285.128C120.919 285.224 120.975 285.36 120.975 285.536V289.52H123.975C124.151 289.52 124.287 289.576 124.383 289.688C124.495 289.784 124.551 289.92 124.551 290.096V291.464C124.551 291.64 124.495 291.784 124.383 291.896C124.271 292.008 124.135 292.064 123.975 292.064H120.975V297.272C120.975 297.96 121.095 298.48 121.335 298.832C121.575 299.184 121.975 299.36 122.535 299.36H124.191C124.351 299.36 124.487 299.416 124.599 299.528C124.711 299.64 124.767 299.776 124.767 299.936V301.424C124.767 301.584 124.711 301.72 124.599 301.832C124.503 301.944 124.367 302 124.191 302H122.247ZM132.417 302.24C130.545 302.24 129.097 301.76 128.073 300.8C127.049 299.824 126.497 298.496 126.417 296.816L126.393 295.76L126.417 294.704C126.497 293.04 127.057 291.72 128.097 290.744C129.137 289.768 130.577 289.28 132.417 289.28C134.257 289.28 135.697 289.768 136.737 290.744C137.777 291.72 138.337 293.04 138.417 294.704C138.433 294.896 138.441 295.248 138.441 295.76C138.441 296.272 138.433 296.624 138.417 296.816C138.337 298.496 137.785 299.824 136.761 300.8C135.737 301.76 134.289 302.24 132.417 302.24ZM132.417 299.864C133.265 299.864 133.921 299.6 134.385 299.072C134.849 298.528 135.105 297.736 135.153 296.696C135.169 296.536 135.177 296.224 135.177 295.76C135.177 295.296 135.169 294.984 135.153 294.824C135.105 293.784 134.849 293 134.385 292.472C133.921 291.928 133.265 291.656 132.417 291.656C131.569 291.656 130.913 291.928 130.449 292.472C129.985 293 129.729 293.784 129.681 294.824L129.657 295.76L129.681 296.696C129.729 297.736 129.985 298.528 130.449 299.072C130.913 299.6 131.569 299.864 132.417 299.864ZM146.74 307.28C145.316 307.28 144.164 307.04 143.284 306.56C142.404 306.096 141.78 305.56 141.412 304.952C141.044 304.344 140.86 303.824 140.86 303.392C140.86 303.248 140.916 303.12 141.028 303.008C141.156 302.896 141.292 302.84 141.436 302.84H143.524C143.668 302.84 143.788 302.872 143.884 302.936C143.996 303.016 144.084 303.152 144.148 303.344C144.308 303.776 144.564 304.136 144.916 304.424C145.284 304.728 145.852 304.88 146.62 304.88C147.58 304.88 148.284 304.664 148.732 304.232C149.196 303.8 149.428 303.056 149.428 302V300.368C148.548 301.408 147.316 301.928 145.732 301.928C144.068 301.928 142.812 301.416 141.964 300.392C141.132 299.368 140.684 297.992 140.62 296.264L140.596 295.616L140.62 294.968C140.684 293.272 141.14 291.904 141.988 290.864C142.836 289.808 144.084 289.28 145.732 289.28C146.58 289.28 147.324 289.44 147.964 289.76C148.604 290.08 149.14 290.52 149.572 291.08V290.12C149.572 289.944 149.628 289.8 149.74 289.688C149.852 289.576 149.988 289.52 150.148 289.52H152.092C152.252 289.52 152.388 289.584 152.5 289.712C152.612 289.824 152.668 289.96 152.668 290.12L152.692 301.688C152.692 303.464 152.196 304.84 151.204 305.816C150.212 306.792 148.724 307.28 146.74 307.28ZM146.62 299.384C147.532 299.384 148.212 299.096 148.66 298.52C149.124 297.944 149.38 297.24 149.428 296.408C149.444 296.28 149.452 296.016 149.452 295.616C149.452 295.232 149.444 294.976 149.428 294.848C149.38 294 149.124 293.288 148.66 292.712C148.212 292.136 147.532 291.848 146.62 291.848C144.892 291.848 143.98 292.912 143.884 295.04L143.86 295.616C143.86 296.752 144.06 297.664 144.46 298.352C144.876 299.04 145.596 299.384 146.62 299.384ZM156.465 302C156.305 302 156.169 301.944 156.057 301.832C155.945 301.72 155.889 301.584 155.889 301.424V290.12C155.889 289.96 155.945 289.824 156.057 289.712C156.169 289.584 156.305 289.52 156.465 289.52H158.409C158.585 289.52 158.729 289.576 158.841 289.688C158.953 289.8 159.009 289.944 159.009 290.12V291.104C159.393 290.592 159.873 290.2 160.449 289.928C161.041 289.656 161.713 289.52 162.465 289.52H163.449C163.625 289.52 163.761 289.576 163.857 289.688C163.969 289.784 164.025 289.92 164.025 290.096V291.824C164.025 291.984 163.969 292.12 163.857 292.232C163.761 292.344 163.625 292.4 163.449 292.4H161.577C160.825 292.4 160.233 292.616 159.801 293.048C159.369 293.48 159.153 294.072 159.153 294.824V301.424C159.153 301.584 159.097 301.72 158.985 301.832C158.873 301.944 158.729 302 158.553 302H156.465ZM169.333 302.24C168.517 302.24 167.765 302.08 167.077 301.76C166.405 301.424 165.869 300.976 165.469 300.416C165.085 299.856 164.893 299.24 164.893 298.568C164.893 297.48 165.333 296.6 166.213 295.928C167.093 295.256 168.301 294.8 169.837 294.56L173.125 294.08V293.576C173.125 292.872 172.949 292.344 172.597 291.992C172.245 291.64 171.677 291.464 170.893 291.464C170.365 291.464 169.933 291.568 169.597 291.776C169.277 291.968 169.021 292.16 168.829 292.352C168.637 292.56 168.509 292.696 168.445 292.76C168.381 292.952 168.261 293.048 168.085 293.048H166.237C166.093 293.048 165.965 293 165.853 292.904C165.757 292.808 165.709 292.68 165.709 292.52C165.725 292.12 165.917 291.664 166.285 291.152C166.669 290.64 167.253 290.2 168.037 289.832C168.821 289.464 169.781 289.28 170.917 289.28C172.805 289.28 174.181 289.704 175.045 290.552C175.909 291.4 176.341 292.512 176.341 293.888V301.424C176.341 301.584 176.285 301.72 176.173 301.832C176.077 301.944 175.941 302 175.765 302H173.821C173.661 302 173.525 301.944 173.413 301.832C173.301 301.72 173.245 301.584 173.245 301.424V300.488C172.893 301 172.389 301.424 171.733 301.76C171.093 302.08 170.293 302.24 169.333 302.24ZM170.149 299.96C171.029 299.96 171.749 299.672 172.309 299.096C172.869 298.52 173.149 297.68 173.149 296.576V296.072L170.749 296.456C169.821 296.6 169.117 296.832 168.637 297.152C168.173 297.472 167.941 297.864 167.941 298.328C167.941 298.84 168.157 299.24 168.589 299.528C169.021 299.816 169.541 299.96 170.149 299.96ZM180.02 306.56C179.86 306.56 179.724 306.504 179.612 306.392C179.5 306.296 179.444 306.16 179.444 305.984V290.096C179.444 289.92 179.5 289.784 179.612 289.688C179.724 289.576 179.86 289.52 180.02 289.52H181.916C182.092 289.52 182.228 289.576 182.324 289.688C182.436 289.784 182.492 289.92 182.492 290.096V291.056C183.388 289.872 184.668 289.28 186.332 289.28C187.948 289.28 189.188 289.792 190.052 290.816C190.916 291.824 191.38 293.192 191.444 294.92C191.46 295.112 191.468 295.392 191.468 295.76C191.468 296.144 191.46 296.432 191.444 296.624C191.38 298.304 190.916 299.664 190.052 300.704C189.188 301.728 187.948 302.24 186.332 302.24C184.716 302.24 183.484 301.672 182.636 300.536V305.984C182.636 306.16 182.58 306.296 182.468 306.392C182.372 306.504 182.236 306.56 182.06 306.56H180.02ZM185.444 299.672C187.172 299.672 188.092 298.608 188.204 296.48C188.22 296.32 188.228 296.08 188.228 295.76C188.228 295.44 188.22 295.2 188.204 295.04C188.092 292.912 187.172 291.848 185.444 291.848C184.516 291.848 183.828 292.144 183.38 292.736C182.932 293.328 182.684 294.056 182.636 294.92L182.612 295.832L182.636 296.768C182.668 297.568 182.916 298.256 183.38 298.832C183.86 299.392 184.548 299.672 185.444 299.672ZM194.762 302C194.602 302 194.466 301.944 194.354 301.832C194.242 301.72 194.186 301.584 194.186 301.424V285.536C194.186 285.36 194.242 285.224 194.354 285.128C194.466 285.016 194.602 284.96 194.762 284.96H196.898C197.074 284.96 197.21 285.016 197.306 285.128C197.418 285.224 197.474 285.36 197.474 285.536V291.008C198.434 289.856 199.73 289.28 201.362 289.28C202.834 289.28 204.01 289.768 204.89 290.744C205.77 291.704 206.21 293.016 206.21 294.68V301.424C206.21 301.584 206.154 301.72 206.042 301.832C205.946 301.944 205.81 302 205.634 302H203.474C203.314 302 203.178 301.944 203.066 301.832C202.954 301.72 202.898 301.584 202.898 301.424V294.824C202.898 293.88 202.666 293.152 202.202 292.64C201.754 292.112 201.098 291.848 200.234 291.848C199.386 291.848 198.714 292.112 198.218 292.64C197.722 293.168 197.474 293.896 197.474 294.824V301.424C197.474 301.584 197.418 301.72 197.306 301.832C197.21 301.944 197.074 302 196.898 302H194.762ZM211.113 306.56C210.985 306.56 210.873 306.512 210.777 306.416C210.681 306.32 210.633 306.208 210.633 306.08C210.633 305.936 210.665 305.808 210.729 305.696L212.601 301.256L207.993 290.384C207.929 290.24 207.897 290.128 207.897 290.048C207.913 289.904 207.969 289.784 208.065 289.688C208.161 289.576 208.281 289.52 208.425 289.52H210.369C210.673 289.52 210.889 289.672 211.017 289.976L214.209 297.824L217.497 289.976C217.625 289.672 217.841 289.52 218.145 289.52H220.065C220.193 289.52 220.305 289.568 220.401 289.664C220.513 289.76 220.569 289.872 220.569 290C220.569 290.112 220.537 290.24 220.473 290.384L213.681 306.104C213.537 306.408 213.313 306.56 213.009 306.56H211.113Z" fill="white"/>
</svg>
