<svg width="296" height="350" viewBox="0 0 296 350" fill="none" xmlns="http://www.w3.org/2000/svg">
<rect width="296" height="350" rx="8" fill="#CCCCCC"/>
<rect opacity="0.5" width="296" height="350" rx="8" fill="black"/>
<path d="M72.6511 302C72.4911 302 72.3551 301.944 72.2431 301.832C72.1311 301.72 72.0751 301.584 72.0751 301.424V285.8C72.0751 285.624 72.1231 285.48 72.2191 285.368C72.3311 285.256 72.4751 285.2 72.6511 285.2H79.0831C81.0031 285.2 82.5151 285.656 83.6191 286.568C84.7231 287.464 85.2751 288.784 85.2751 290.528C85.2751 292.272 84.7231 293.592 83.6191 294.488C82.5311 295.368 81.0191 295.808 79.0831 295.808H75.5071V301.424C75.5071 301.584 75.4511 301.72 75.3391 301.832C75.2431 301.944 75.1071 302 74.9311 302H72.6511ZM78.9631 293.144C79.8911 293.144 80.6031 292.928 81.0991 292.496C81.5951 292.048 81.8431 291.392 81.8431 290.528C81.8431 289.696 81.6031 289.048 81.1231 288.584C80.6431 288.104 79.9231 287.864 78.9631 287.864H75.4591V293.144H78.9631ZM88.1834 302C88.0234 302 87.8874 301.944 87.7754 301.832C87.6634 301.72 87.6074 301.584 87.6074 301.424V290.12C87.6074 289.96 87.6634 289.824 87.7754 289.712C87.8874 289.584 88.0234 289.52 88.1834 289.52H90.1274C90.3034 289.52 90.4474 289.576 90.5594 289.688C90.6714 289.8 90.7274 289.944 90.7274 290.12V291.104C91.1114 290.592 91.5914 290.2 92.1674 289.928C92.7594 289.656 93.4314 289.52 94.1834 289.52H95.1674C95.3434 289.52 95.4794 289.576 95.5754 289.688C95.6874 289.784 95.7434 289.92 95.7434 290.096V291.824C95.7434 291.984 95.6874 292.12 95.5754 292.232C95.4794 292.344 95.3434 292.4 95.1674 292.4H93.2954C92.5434 292.4 91.9514 292.616 91.5194 293.048C91.0874 293.48 90.8714 294.072 90.8714 294.824V301.424C90.8714 301.584 90.8154 301.72 90.7034 301.832C90.5914 301.944 90.4474 302 90.2714 302H88.1834ZM102.971 302.24C101.099 302.24 99.6512 301.76 98.6272 300.8C97.6032 299.824 97.0512 298.496 96.9712 296.816L96.9472 295.76L96.9712 294.704C97.0512 293.04 97.6112 291.72 98.6512 290.744C99.6912 289.768 101.131 289.28 102.971 289.28C104.811 289.28 106.251 289.768 107.291 290.744C108.331 291.72 108.891 293.04 108.971 294.704C108.987 294.896 108.995 295.248 108.995 295.76C108.995 296.272 108.987 296.624 108.971 296.816C108.891 298.496 108.339 299.824 107.315 300.8C106.291 301.76 104.843 302.24 102.971 302.24ZM102.971 299.864C103.819 299.864 104.475 299.6 104.939 299.072C105.403 298.528 105.659 297.736 105.707 296.696C105.723 296.536 105.731 296.224 105.731 295.76C105.731 295.296 105.723 294.984 105.707 294.824C105.659 293.784 105.403 293 104.939 292.472C104.475 291.928 103.819 291.656 102.971 291.656C102.123 291.656 101.467 291.928 101.003 292.472C100.539 293 100.283 293.784 100.235 294.824L100.211 295.76L100.235 296.696C100.283 297.736 100.539 298.528 101.003 299.072C101.467 299.6 102.123 299.864 102.971 299.864ZM117.294 307.28C115.87 307.28 114.718 307.04 113.838 306.56C112.958 306.096 112.334 305.56 111.966 304.952C111.598 304.344 111.414 303.824 111.414 303.392C111.414 303.248 111.47 303.12 111.582 303.008C111.71 302.896 111.846 302.84 111.99 302.84H114.078C114.222 302.84 114.342 302.872 114.438 302.936C114.55 303.016 114.638 303.152 114.702 303.344C114.862 303.776 115.118 304.136 115.47 304.424C115.838 304.728 116.406 304.88 117.174 304.88C118.134 304.88 118.838 304.664 119.286 304.232C119.75 303.8 119.982 303.056 119.982 302V300.368C119.102 301.408 117.87 301.928 116.286 301.928C114.622 301.928 113.366 301.416 112.518 300.392C111.686 299.368 111.238 297.992 111.174 296.264L111.15 295.616L111.174 294.968C111.238 293.272 111.694 291.904 112.542 290.864C113.39 289.808 114.638 289.28 116.286 289.28C117.134 289.28 117.878 289.44 118.518 289.76C119.158 290.08 119.694 290.52 120.126 291.08V290.12C120.126 289.944 120.182 289.8 120.294 289.688C120.406 289.576 120.542 289.52 120.702 289.52H122.646C122.806 289.52 122.942 289.584 123.054 289.712C123.166 289.824 123.222 289.96 123.222 290.12L123.246 301.688C123.246 303.464 122.75 304.84 121.758 305.816C120.766 306.792 119.278 307.28 117.294 307.28ZM117.174 299.384C118.086 299.384 118.766 299.096 119.214 298.52C119.678 297.944 119.934 297.24 119.982 296.408C119.998 296.28 120.006 296.016 120.006 295.616C120.006 295.232 119.998 294.976 119.982 294.848C119.934 294 119.678 293.288 119.214 292.712C118.766 292.136 118.086 291.848 117.174 291.848C115.446 291.848 114.534 292.912 114.438 295.04L114.414 295.616C114.414 296.752 114.614 297.664 115.014 298.352C115.43 299.04 116.15 299.384 117.174 299.384ZM127.019 302C126.859 302 126.723 301.944 126.611 301.832C126.499 301.72 126.443 301.584 126.443 301.424V290.12C126.443 289.96 126.499 289.824 126.611 289.712C126.723 289.584 126.859 289.52 127.019 289.52H128.963C129.139 289.52 129.283 289.576 129.395 289.688C129.507 289.8 129.563 289.944 129.563 290.12V291.104C129.947 290.592 130.427 290.2 131.003 289.928C131.595 289.656 132.267 289.52 133.019 289.52H134.003C134.179 289.52 134.315 289.576 134.411 289.688C134.523 289.784 134.579 289.92 134.579 290.096V291.824C134.579 291.984 134.523 292.12 134.411 292.232C134.315 292.344 134.179 292.4 134.003 292.4H132.131C131.379 292.4 130.787 292.616 130.355 293.048C129.923 293.48 129.707 294.072 129.707 294.824V301.424C129.707 301.584 129.651 301.72 129.539 301.832C129.427 301.944 129.283 302 129.107 302H127.019ZM139.888 302.24C139.072 302.24 138.32 302.08 137.632 301.76C136.96 301.424 136.424 300.976 136.024 300.416C135.64 299.856 135.448 299.24 135.448 298.568C135.448 297.48 135.888 296.6 136.768 295.928C137.648 295.256 138.856 294.8 140.392 294.56L143.68 294.08V293.576C143.68 292.872 143.504 292.344 143.152 291.992C142.8 291.64 142.232 291.464 141.448 291.464C140.92 291.464 140.488 291.568 140.152 291.776C139.832 291.968 139.576 292.16 139.384 292.352C139.192 292.56 139.064 292.696 139 292.76C138.936 292.952 138.816 293.048 138.64 293.048H136.792C136.648 293.048 136.52 293 136.408 292.904C136.312 292.808 136.264 292.68 136.264 292.52C136.28 292.12 136.472 291.664 136.84 291.152C137.224 290.64 137.808 290.2 138.592 289.832C139.376 289.464 140.336 289.28 141.472 289.28C143.36 289.28 144.736 289.704 145.6 290.552C146.464 291.4 146.896 292.512 146.896 293.888V301.424C146.896 301.584 146.84 301.72 146.728 301.832C146.632 301.944 146.496 302 146.32 302H144.376C144.216 302 144.08 301.944 143.968 301.832C143.856 301.72 143.8 301.584 143.8 301.424V300.488C143.448 301 142.944 301.424 142.288 301.76C141.648 302.08 140.848 302.24 139.888 302.24ZM140.704 299.96C141.584 299.96 142.304 299.672 142.864 299.096C143.424 298.52 143.704 297.68 143.704 296.576V296.072L141.304 296.456C140.376 296.6 139.672 296.832 139.192 297.152C138.728 297.472 138.496 297.864 138.496 298.328C138.496 298.84 138.712 299.24 139.144 299.528C139.576 299.816 140.096 299.96 140.704 299.96ZM150.551 302C150.391 302 150.255 301.944 150.143 301.832C150.031 301.72 149.975 301.584 149.975 301.424V290.096C149.975 289.936 150.031 289.8 150.143 289.688C150.255 289.576 150.391 289.52 150.551 289.52H152.423C152.583 289.52 152.719 289.576 152.831 289.688C152.943 289.8 152.999 289.936 152.999 290.096V290.912C153.831 289.824 154.991 289.28 156.479 289.28C158.255 289.28 159.495 289.992 160.199 291.416C160.583 290.776 161.127 290.264 161.831 289.88C162.535 289.48 163.295 289.28 164.111 289.28C165.423 289.28 166.495 289.728 167.327 290.624C168.159 291.52 168.575 292.824 168.575 294.536V301.424C168.575 301.584 168.519 301.72 168.407 301.832C168.311 301.944 168.175 302 167.999 302H166.031C165.871 302 165.735 301.944 165.623 301.832C165.511 301.72 165.455 301.584 165.455 301.424V294.728C165.455 293.72 165.239 292.992 164.807 292.544C164.391 292.08 163.831 291.848 163.127 291.848C162.503 291.848 161.967 292.08 161.519 292.544C161.087 293.008 160.871 293.736 160.871 294.728V301.424C160.871 301.584 160.815 301.72 160.703 301.832C160.591 301.944 160.455 302 160.295 302H158.327C158.167 302 158.031 301.944 157.919 301.832C157.807 301.72 157.751 301.584 157.751 301.424V294.728C157.751 293.72 157.527 292.992 157.079 292.544C156.647 292.08 156.095 291.848 155.423 291.848C154.783 291.848 154.239 292.08 153.791 292.544C153.359 293.008 153.143 293.736 153.143 294.728V301.424C153.143 301.584 153.087 301.72 152.975 301.832C152.863 301.944 152.727 302 152.567 302H150.551ZM172.207 302C172.047 302 171.911 301.944 171.799 301.832C171.687 301.72 171.631 301.584 171.631 301.424V290.096C171.631 289.936 171.687 289.8 171.799 289.688C171.911 289.576 172.047 289.52 172.207 289.52H174.079C174.239 289.52 174.375 289.576 174.487 289.688C174.599 289.8 174.655 289.936 174.655 290.096V290.912C175.487 289.824 176.647 289.28 178.135 289.28C179.911 289.28 181.151 289.992 181.855 291.416C182.239 290.776 182.783 290.264 183.487 289.88C184.191 289.48 184.951 289.28 185.767 289.28C187.079 289.28 188.151 289.728 188.983 290.624C189.815 291.52 190.231 292.824 190.231 294.536V301.424C190.231 301.584 190.175 301.72 190.063 301.832C189.967 301.944 189.831 302 189.655 302H187.687C187.527 302 187.391 301.944 187.279 301.832C187.167 301.72 187.111 301.584 187.111 301.424V294.728C187.111 293.72 186.895 292.992 186.463 292.544C186.047 292.08 185.487 291.848 184.783 291.848C184.159 291.848 183.623 292.08 183.175 292.544C182.743 293.008 182.527 293.736 182.527 294.728V301.424C182.527 301.584 182.471 301.72 182.359 301.832C182.247 301.944 182.111 302 181.951 302H179.983C179.823 302 179.687 301.944 179.575 301.832C179.463 301.72 179.407 301.584 179.407 301.424V294.728C179.407 293.72 179.183 292.992 178.735 292.544C178.303 292.08 177.751 291.848 177.079 291.848C176.439 291.848 175.895 292.08 175.447 292.544C175.015 293.008 174.799 293.736 174.799 294.728V301.424C174.799 301.584 174.743 301.72 174.631 301.832C174.519 301.944 174.383 302 174.223 302H172.207ZM193.767 287.456C193.607 287.456 193.471 287.4 193.359 287.288C193.247 287.176 193.191 287.04 193.191 286.88V285.152C193.191 284.992 193.247 284.856 193.359 284.744C193.471 284.632 193.607 284.576 193.767 284.576H195.951C196.111 284.576 196.247 284.632 196.359 284.744C196.487 284.856 196.551 284.992 196.551 285.152V286.88C196.551 287.04 196.495 287.176 196.383 287.288C196.271 287.4 196.127 287.456 195.951 287.456H193.767ZM193.863 302C193.703 302 193.567 301.944 193.455 301.832C193.343 301.72 193.287 301.584 193.287 301.424V290.096C193.287 289.936 193.343 289.8 193.455 289.688C193.567 289.576 193.703 289.52 193.863 289.52H195.855C196.031 289.52 196.167 289.576 196.263 289.688C196.375 289.784 196.431 289.92 196.431 290.096V301.424C196.431 301.584 196.375 301.72 196.263 301.832C196.167 301.944 196.031 302 195.855 302H193.863ZM200.191 302C200.031 302 199.895 301.944 199.783 301.832C199.671 301.72 199.615 301.584 199.615 301.424V290.096C199.615 289.936 199.671 289.8 199.783 289.688C199.895 289.576 200.031 289.52 200.191 289.52H202.159C202.319 289.52 202.455 289.576 202.567 289.688C202.679 289.8 202.735 289.936 202.735 290.096V291.08C203.679 289.88 205.015 289.28 206.743 289.28C208.215 289.28 209.383 289.768 210.247 290.744C211.111 291.704 211.543 293.016 211.543 294.68V301.424C211.543 301.584 211.487 301.72 211.375 301.832C211.279 301.944 211.143 302 210.967 302H208.855C208.695 302 208.559 301.944 208.447 301.832C208.335 301.72 208.279 301.584 208.279 301.424V294.824C208.279 293.88 208.047 293.152 207.583 292.64C207.135 292.112 206.479 291.848 205.615 291.848C204.767 291.848 204.095 292.112 203.599 292.64C203.119 293.168 202.879 293.896 202.879 294.824V301.424C202.879 301.584 202.823 301.72 202.711 301.832C202.615 301.944 202.479 302 202.303 302H200.191ZM220.232 307.28C218.808 307.28 217.656 307.04 216.776 306.56C215.896 306.096 215.272 305.56 214.904 304.952C214.536 304.344 214.352 303.824 214.352 303.392C214.352 303.248 214.408 303.12 214.52 303.008C214.648 302.896 214.784 302.84 214.928 302.84H217.016C217.16 302.84 217.28 302.872 217.376 302.936C217.488 303.016 217.576 303.152 217.64 303.344C217.8 303.776 218.056 304.136 218.408 304.424C218.776 304.728 219.344 304.88 220.112 304.88C221.072 304.88 221.776 304.664 222.224 304.232C222.688 303.8 222.92 303.056 222.92 302V300.368C222.04 301.408 220.808 301.928 219.224 301.928C217.56 301.928 216.304 301.416 215.456 300.392C214.624 299.368 214.176 297.992 214.112 296.264L214.088 295.616L214.112 294.968C214.176 293.272 214.632 291.904 215.48 290.864C216.328 289.808 217.576 289.28 219.224 289.28C220.072 289.28 220.816 289.44 221.456 289.76C222.096 290.08 222.632 290.52 223.064 291.08V290.12C223.064 289.944 223.12 289.8 223.232 289.688C223.344 289.576 223.48 289.52 223.64 289.52H225.584C225.744 289.52 225.88 289.584 225.992 289.712C226.104 289.824 226.16 289.96 226.16 290.12L226.184 301.688C226.184 303.464 225.688 304.84 224.696 305.816C223.704 306.792 222.216 307.28 220.232 307.28ZM220.112 299.384C221.024 299.384 221.704 299.096 222.152 298.52C222.616 297.944 222.872 297.24 222.92 296.408C222.936 296.28 222.944 296.016 222.944 295.616C222.944 295.232 222.936 294.976 222.92 294.848C222.872 294 222.616 293.288 222.152 292.712C221.704 292.136 221.024 291.848 220.112 291.848C218.384 291.848 217.472 292.912 217.376 295.04L217.352 295.616C217.352 296.752 217.552 297.664 217.952 298.352C218.368 299.04 219.088 299.384 220.112 299.384Z" fill="white"/>
</svg>
