<svg width="296" height="391" viewBox="0 0 296 391" fill="none" xmlns="http://www.w3.org/2000/svg">
<rect width="296" height="391" fill="#CCCCCC"/>
<rect opacity="0.2" width="296" height="391" fill="black"/>
<path d="M106.28 343C106.104 343 105.96 342.944 105.848 342.832C105.736 342.704 105.68 342.56 105.68 342.4V326.8C105.68 326.624 105.736 326.48 105.848 326.368C105.96 326.256 106.104 326.2 106.28 326.2H113C114.328 326.2 115.48 326.408 116.456 326.824C117.448 327.224 118.216 327.832 118.76 328.648C119.32 329.464 119.6 330.496 119.6 331.744C119.6 332.976 119.32 333.992 118.76 334.792C118.216 335.592 117.448 336.184 116.456 336.568C115.48 336.952 114.328 337.144 113 337.144H110.144V342.4C110.144 342.56 110.08 342.704 109.952 342.832C109.84 342.944 109.696 343 109.52 343H106.28ZM110.072 333.832H112.88C113.568 333.832 114.112 333.656 114.512 333.304C114.928 332.952 115.136 332.416 115.136 331.696C115.136 331.088 114.96 330.576 114.608 330.16C114.256 329.744 113.68 329.536 112.88 329.536H110.072V333.832ZM123.963 347.56C123.819 347.56 123.699 347.512 123.603 347.416C123.507 347.32 123.459 347.2 123.459 347.056C123.459 347.024 123.459 346.976 123.459 346.912C123.475 346.864 123.499 346.808 123.531 346.744L125.403 342.232L120.795 331.336C120.747 331.224 120.723 331.128 120.723 331.048C120.755 330.904 120.819 330.784 120.915 330.688C121.011 330.576 121.131 330.52 121.275 330.52H124.011C124.219 330.52 124.371 330.576 124.467 330.688C124.579 330.784 124.659 330.896 124.707 331.024L127.443 338.008L130.251 331.024C130.315 330.896 130.395 330.784 130.491 330.688C130.603 330.576 130.763 330.52 130.971 330.52H133.659C133.803 330.52 133.923 330.576 134.019 330.688C134.131 330.784 134.187 330.896 134.187 331.024C134.187 331.104 134.163 331.208 134.115 331.336L127.323 347.056C127.275 347.184 127.195 347.296 127.083 347.392C126.971 347.504 126.811 347.56 126.603 347.56H123.963ZM142.339 343C141.315 343 140.427 342.84 139.675 342.52C138.939 342.184 138.371 341.672 137.971 340.984C137.571 340.28 137.371 339.376 137.371 338.272V333.664H135.499C135.323 333.664 135.171 333.608 135.043 333.496C134.931 333.384 134.875 333.24 134.875 333.064V331.12C134.875 330.944 134.931 330.8 135.043 330.688C135.171 330.576 135.323 330.52 135.499 330.52H137.371V326.56C137.371 326.384 137.427 326.24 137.539 326.128C137.667 326.016 137.811 325.96 137.971 325.96H140.755C140.931 325.96 141.075 326.016 141.187 326.128C141.299 326.24 141.355 326.384 141.355 326.56V330.52H144.355C144.531 330.52 144.675 330.576 144.787 330.688C144.915 330.8 144.979 330.944 144.979 331.12V333.064C144.979 333.24 144.915 333.384 144.787 333.496C144.675 333.608 144.531 333.664 144.355 333.664H141.355V337.936C141.355 338.48 141.459 338.912 141.667 339.232C141.875 339.552 142.227 339.712 142.723 339.712H144.571C144.747 339.712 144.891 339.768 145.003 339.88C145.115 339.992 145.171 340.136 145.171 340.312V342.4C145.171 342.56 145.115 342.704 145.003 342.832C144.891 342.944 144.747 343 144.571 343H142.339ZM147.758 343C147.582 343 147.438 342.944 147.326 342.832C147.214 342.704 147.158 342.56 147.158 342.4V326.56C147.158 326.384 147.214 326.24 147.326 326.128C147.438 326.016 147.582 325.96 147.758 325.96H150.83C151.006 325.96 151.15 326.016 151.262 326.128C151.374 326.24 151.43 326.384 151.43 326.56V331.912C151.862 331.416 152.39 331.024 153.014 330.736C153.654 330.432 154.39 330.28 155.222 330.28C156.15 330.28 156.974 330.488 157.694 330.904C158.43 331.32 159.006 331.928 159.422 332.728C159.838 333.528 160.046 334.52 160.046 335.704V342.4C160.046 342.56 159.99 342.704 159.878 342.832C159.766 342.944 159.622 343 159.446 343H156.35C156.19 343 156.046 342.944 155.918 342.832C155.806 342.704 155.75 342.56 155.75 342.4V335.848C155.75 335.096 155.566 334.52 155.198 334.12C154.846 333.704 154.326 333.496 153.638 333.496C152.966 333.496 152.43 333.704 152.03 334.12C151.63 334.52 151.43 335.096 151.43 335.848V342.4C151.43 342.56 151.374 342.704 151.262 342.832C151.15 342.944 151.006 343 150.83 343H147.758ZM168.672 343.24C167.328 343.24 166.192 343.024 165.264 342.592C164.352 342.16 163.648 341.544 163.152 340.744C162.672 339.928 162.4 338.96 162.336 337.84C162.32 337.52 162.312 337.16 162.312 336.76C162.312 336.344 162.32 335.984 162.336 335.68C162.4 334.544 162.688 333.576 163.2 332.776C163.712 331.976 164.424 331.36 165.336 330.928C166.264 330.496 167.376 330.28 168.672 330.28C169.984 330.28 171.096 330.496 172.008 330.928C172.936 331.36 173.656 331.976 174.168 332.776C174.68 333.576 174.968 334.544 175.032 335.68C175.048 335.984 175.056 336.344 175.056 336.76C175.056 337.16 175.048 337.52 175.032 337.84C174.968 338.96 174.688 339.928 174.192 340.744C173.712 341.544 173.008 342.16 172.08 342.592C171.168 343.024 170.032 343.24 168.672 343.24ZM168.672 340.312C169.392 340.312 169.912 340.096 170.232 339.664C170.568 339.232 170.76 338.584 170.808 337.72C170.824 337.48 170.832 337.16 170.832 336.76C170.832 336.36 170.824 336.04 170.808 335.8C170.76 334.952 170.568 334.312 170.232 333.88C169.912 333.432 169.392 333.208 168.672 333.208C167.984 333.208 167.464 333.432 167.112 333.88C166.776 334.312 166.592 334.952 166.56 335.8C166.544 336.04 166.536 336.36 166.536 336.76C166.536 337.16 166.544 337.48 166.56 337.72C166.592 338.584 166.776 339.232 167.112 339.664C167.464 340.096 167.984 340.312 168.672 340.312ZM178.039 343C177.863 343 177.719 342.944 177.607 342.832C177.495 342.704 177.439 342.56 177.439 342.4V331.12C177.439 330.944 177.495 330.8 177.607 330.688C177.719 330.576 177.863 330.52 178.039 330.52H180.799C180.975 330.52 181.119 330.576 181.231 330.688C181.359 330.8 181.423 330.944 181.423 331.12V332.032C181.823 331.536 182.359 331.12 183.031 330.784C183.703 330.448 184.495 330.28 185.407 330.28C186.335 330.28 187.151 330.488 187.855 330.904C188.575 331.32 189.135 331.928 189.535 332.728C189.951 333.528 190.159 334.52 190.159 335.704V342.4C190.159 342.56 190.103 342.704 189.991 342.832C189.879 342.944 189.735 343 189.559 343H186.535C186.375 343 186.231 342.944 186.103 342.832C185.991 342.704 185.935 342.56 185.935 342.4V335.848C185.935 335.096 185.751 334.52 185.383 334.12C185.031 333.704 184.503 333.496 183.799 333.496C183.143 333.496 182.615 333.704 182.215 334.12C181.831 334.52 181.639 335.096 181.639 335.848V342.4C181.639 342.56 181.575 342.704 181.447 342.832C181.335 342.944 181.199 343 181.039 343H178.039Z" fill="white"/>
</svg>
