<svg width="296" height="350" viewBox="0 0 296 350" fill="none" xmlns="http://www.w3.org/2000/svg">
<rect width="296" height="350" rx="8" fill="#CCCCCC"/>
<rect opacity="0.5" width="296" height="350" rx="8" fill="black"/>
<path d="M73.84 302C73.712 302 73.592 301.952 73.48 301.856C73.384 301.76 73.336 301.64 73.336 301.496L73.384 301.28L79.168 285.8C79.28 285.4 79.56 285.2 80.008 285.2H82.624C83.04 285.2 83.32 285.4 83.464 285.8L89.248 301.28C89.264 301.328 89.272 301.4 89.272 301.496C89.272 301.64 89.224 301.76 89.128 301.856C89.032 301.952 88.92 302 88.792 302H86.704C86.496 302 86.336 301.952 86.224 301.856C86.112 301.76 86.04 301.656 86.008 301.544L84.88 298.616H77.752L76.624 301.544C76.496 301.848 76.264 302 75.928 302H73.84ZM84.04 295.856L81.304 288.44L78.592 295.856H84.04ZM91.8006 302C91.6406 302 91.5046 301.944 91.3926 301.832C91.2806 301.72 91.2246 301.584 91.2246 301.424V290.12C91.2246 289.96 91.2806 289.824 91.3926 289.712C91.5046 289.584 91.6406 289.52 91.8006 289.52H93.7446C93.9206 289.52 94.0646 289.576 94.1766 289.688C94.2886 289.8 94.3446 289.944 94.3446 290.12V291.104C94.7286 290.592 95.2086 290.2 95.7846 289.928C96.3766 289.656 97.0486 289.52 97.8006 289.52H98.7846C98.9606 289.52 99.0966 289.576 99.1926 289.688C99.3046 289.784 99.3606 289.92 99.3606 290.096V291.824C99.3606 291.984 99.3046 292.12 99.1926 292.232C99.0966 292.344 98.9606 292.4 98.7846 292.4H96.9126C96.1606 292.4 95.5686 292.616 95.1366 293.048C94.7046 293.48 94.4886 294.072 94.4886 294.824V301.424C94.4886 301.584 94.4326 301.72 94.3206 301.832C94.2086 301.944 94.0646 302 93.8886 302H91.8006ZM106.872 302C105.416 302 104.32 301.624 103.584 300.872C102.864 300.104 102.504 298.984 102.504 297.512V292.064H100.608C100.448 292.064 100.312 292.008 100.2 291.896C100.088 291.768 100.032 291.624 100.032 291.464V290.096C100.032 289.936 100.088 289.8 100.2 289.688C100.312 289.576 100.448 289.52 100.608 289.52H102.504V285.536C102.504 285.36 102.56 285.224 102.672 285.128C102.784 285.016 102.92 284.96 103.08 284.96H105.024C105.2 284.96 105.336 285.016 105.432 285.128C105.544 285.224 105.6 285.36 105.6 285.536V289.52H108.6C108.776 289.52 108.912 289.576 109.008 289.688C109.12 289.784 109.176 289.92 109.176 290.096V291.464C109.176 291.64 109.12 291.784 109.008 291.896C108.896 292.008 108.76 292.064 108.6 292.064H105.6V297.272C105.6 297.96 105.72 298.48 105.96 298.832C106.2 299.184 106.6 299.36 107.16 299.36H108.816C108.976 299.36 109.112 299.416 109.224 299.528C109.336 299.64 109.392 299.776 109.392 299.936V301.424C109.392 301.584 109.336 301.72 109.224 301.832C109.128 301.944 108.992 302 108.816 302H106.872ZM122.454 302.24C121.302 302.24 120.278 302.04 119.382 301.64C118.502 301.24 117.822 300.68 117.342 299.96C116.862 299.224 116.622 298.376 116.622 297.416C116.622 296.424 116.91 295.568 117.486 294.848C118.062 294.112 118.878 293.44 119.934 292.832C119.246 292.096 118.758 291.44 118.47 290.864C118.182 290.288 118.038 289.688 118.038 289.064C118.038 288.312 118.23 287.624 118.614 287C118.998 286.376 119.558 285.88 120.294 285.512C121.03 285.144 121.902 284.96 122.91 284.96C123.854 284.96 124.678 285.144 125.382 285.512C126.102 285.864 126.654 286.352 127.038 286.976C127.422 287.6 127.614 288.28 127.614 289.016C127.614 289.96 127.31 290.768 126.702 291.44C126.11 292.096 125.246 292.744 124.11 293.384L127.566 296.816C128.142 295.84 128.566 294.776 128.838 293.624C128.854 293.496 128.902 293.4 128.982 293.336C129.078 293.256 129.198 293.216 129.342 293.216H131.094C131.222 293.216 131.334 293.264 131.43 293.36C131.526 293.456 131.574 293.568 131.574 293.696C131.558 294.32 131.334 295.096 130.902 296.024C130.486 296.952 129.982 297.816 129.39 298.616L131.934 301.208C132.062 301.304 132.126 301.424 132.126 301.568C132.126 301.696 132.086 301.8 132.006 301.88C131.926 301.96 131.814 302 131.67 302H129.366C129.126 302 128.91 301.92 128.718 301.76L127.398 300.464C126.07 301.648 124.422 302.24 122.454 302.24ZM122.43 291.608C123.214 291.192 123.806 290.8 124.206 290.432C124.622 290.048 124.83 289.6 124.83 289.088C124.83 288.56 124.646 288.136 124.278 287.816C123.91 287.48 123.446 287.312 122.886 287.312C122.342 287.312 121.878 287.48 121.494 287.816C121.126 288.136 120.942 288.56 120.942 289.088C120.942 289.456 121.046 289.824 121.254 290.192C121.478 290.56 121.87 291.032 122.43 291.608ZM122.454 299.768C123.014 299.768 123.558 299.664 124.086 299.456C124.63 299.248 125.118 298.936 125.55 298.52L121.71 294.728C121.07 295.08 120.566 295.464 120.198 295.88C119.83 296.296 119.646 296.776 119.646 297.32C119.646 298.056 119.926 298.648 120.486 299.096C121.046 299.544 121.702 299.768 122.454 299.768ZM140.581 302C140.421 302 140.285 301.944 140.173 301.832C140.061 301.72 140.005 301.584 140.005 301.424V285.8C140.005 285.624 140.053 285.48 140.149 285.368C140.261 285.256 140.405 285.2 140.581 285.2H146.437C151.141 285.2 153.541 287.376 153.637 291.728C153.669 292.656 153.685 293.28 153.685 293.6C153.685 293.904 153.669 294.52 153.637 295.448C153.573 297.688 152.973 299.344 151.837 300.416C150.701 301.472 148.941 302 146.557 302H140.581ZM146.437 299.24C147.781 299.24 148.749 298.944 149.341 298.352C149.933 297.744 150.245 296.752 150.277 295.376C150.309 294.416 150.325 293.816 150.325 293.576C150.325 293.32 150.309 292.728 150.277 291.8C150.245 290.488 149.909 289.52 149.269 288.896C148.645 288.272 147.661 287.96 146.317 287.96H143.341V299.24H146.437ZM161.968 302.24C160.192 302.24 158.776 301.728 157.72 300.704C156.68 299.664 156.128 298.208 156.064 296.336L156.04 295.736L156.064 295.136C156.144 293.312 156.704 291.88 157.744 290.84C158.8 289.8 160.208 289.28 161.968 289.28C163.856 289.28 165.312 289.856 166.336 291.008C167.376 292.16 167.896 293.696 167.896 295.616V296.12C167.896 296.28 167.84 296.416 167.728 296.528C167.616 296.64 167.472 296.696 167.296 296.696H159.328V296.888C159.36 297.768 159.6 298.512 160.048 299.12C160.512 299.712 161.144 300.008 161.944 300.008C162.888 300.008 163.648 299.64 164.224 298.904C164.368 298.728 164.48 298.616 164.56 298.568C164.656 298.52 164.792 298.496 164.968 298.496H167.032C167.176 298.496 167.296 298.544 167.392 298.64C167.504 298.72 167.56 298.824 167.56 298.952C167.56 299.336 167.328 299.792 166.864 300.32C166.416 300.832 165.768 301.28 164.92 301.664C164.072 302.048 163.088 302.24 161.968 302.24ZM164.632 294.68V294.608C164.632 293.664 164.392 292.904 163.912 292.328C163.448 291.752 162.8 291.464 161.968 291.464C161.136 291.464 160.488 291.752 160.024 292.328C159.56 292.904 159.328 293.664 159.328 294.608V294.68H164.632ZM175.171 302.24C173.971 302.24 172.963 302.064 172.147 301.712C171.331 301.344 170.723 300.92 170.323 300.44C169.939 299.944 169.747 299.52 169.747 299.168C169.747 299.008 169.803 298.88 169.915 298.784C170.027 298.688 170.155 298.64 170.299 298.64H172.195C172.339 298.64 172.459 298.696 172.555 298.808C172.619 298.856 172.787 299 173.059 299.24C173.331 299.496 173.651 299.696 174.019 299.84C174.387 299.984 174.795 300.056 175.243 300.056C175.883 300.056 176.411 299.928 176.827 299.672C177.243 299.416 177.451 299.064 177.451 298.616C177.451 298.28 177.355 298.008 177.163 297.8C176.987 297.592 176.659 297.408 176.179 297.248C175.699 297.072 174.987 296.888 174.043 296.696C172.683 296.408 171.675 295.968 171.019 295.376C170.379 294.784 170.059 294 170.059 293.024C170.059 292.384 170.251 291.784 170.635 291.224C171.019 290.648 171.587 290.184 172.339 289.832C173.107 289.464 174.019 289.28 175.075 289.28C176.147 289.28 177.075 289.456 177.859 289.808C178.643 290.144 179.235 290.552 179.635 291.032C180.051 291.496 180.259 291.912 180.259 292.28C180.259 292.424 180.203 292.552 180.091 292.664C179.995 292.76 179.875 292.808 179.731 292.808H177.955C177.827 292.808 177.691 292.752 177.547 292.64C177.435 292.56 177.259 292.408 177.019 292.184C176.779 291.96 176.499 291.784 176.179 291.656C175.859 291.528 175.483 291.464 175.051 291.464C174.459 291.464 173.995 291.592 173.659 291.848C173.339 292.104 173.179 292.44 173.179 292.856C173.179 293.16 173.259 293.408 173.419 293.6C173.579 293.792 173.891 293.976 174.355 294.152C174.819 294.328 175.515 294.504 176.443 294.68C177.979 294.984 179.075 295.456 179.731 296.096C180.403 296.736 180.739 297.52 180.739 298.448C180.739 299.568 180.251 300.48 179.275 301.184C178.299 301.888 176.931 302.24 175.171 302.24ZM183.697 287.456C183.537 287.456 183.401 287.4 183.289 287.288C183.177 287.176 183.121 287.04 183.121 286.88V285.152C183.121 284.992 183.177 284.856 183.289 284.744C183.401 284.632 183.537 284.576 183.697 284.576H185.881C186.041 284.576 186.177 284.632 186.289 284.744C186.417 284.856 186.481 284.992 186.481 285.152V286.88C186.481 287.04 186.425 287.176 186.313 287.288C186.201 287.4 186.057 287.456 185.881 287.456H183.697ZM183.793 302C183.633 302 183.497 301.944 183.385 301.832C183.273 301.72 183.217 301.584 183.217 301.424V290.096C183.217 289.936 183.273 289.8 183.385 289.688C183.497 289.576 183.633 289.52 183.793 289.52H185.785C185.961 289.52 186.097 289.576 186.193 289.688C186.305 289.784 186.361 289.92 186.361 290.096V301.424C186.361 301.584 186.305 301.72 186.193 301.832C186.097 301.944 185.961 302 185.785 302H183.793ZM195.185 307.28C193.761 307.28 192.609 307.04 191.729 306.56C190.849 306.096 190.225 305.56 189.857 304.952C189.489 304.344 189.305 303.824 189.305 303.392C189.305 303.248 189.361 303.12 189.473 303.008C189.601 302.896 189.737 302.84 189.881 302.84H191.969C192.113 302.84 192.233 302.872 192.329 302.936C192.441 303.016 192.529 303.152 192.593 303.344C192.753 303.776 193.009 304.136 193.361 304.424C193.729 304.728 194.297 304.88 195.065 304.88C196.025 304.88 196.729 304.664 197.177 304.232C197.641 303.8 197.873 303.056 197.873 302V300.368C196.993 301.408 195.761 301.928 194.177 301.928C192.513 301.928 191.257 301.416 190.409 300.392C189.577 299.368 189.129 297.992 189.065 296.264L189.041 295.616L189.065 294.968C189.129 293.272 189.585 291.904 190.433 290.864C191.281 289.808 192.529 289.28 194.177 289.28C195.025 289.28 195.769 289.44 196.409 289.76C197.049 290.08 197.585 290.52 198.017 291.08V290.12C198.017 289.944 198.073 289.8 198.185 289.688C198.297 289.576 198.433 289.52 198.593 289.52H200.537C200.697 289.52 200.833 289.584 200.945 289.712C201.057 289.824 201.113 289.96 201.113 290.12L201.137 301.688C201.137 303.464 200.641 304.84 199.649 305.816C198.657 306.792 197.169 307.28 195.185 307.28ZM195.065 299.384C195.977 299.384 196.657 299.096 197.105 298.52C197.569 297.944 197.825 297.24 197.873 296.408C197.889 296.28 197.897 296.016 197.897 295.616C197.897 295.232 197.889 294.976 197.873 294.848C197.825 294 197.569 293.288 197.105 292.712C196.657 292.136 195.977 291.848 195.065 291.848C193.337 291.848 192.425 292.912 192.329 295.04L192.305 295.616C192.305 296.752 192.505 297.664 192.905 298.352C193.321 299.04 194.041 299.384 195.065 299.384ZM204.91 302C204.75 302 204.614 301.944 204.502 301.832C204.39 301.72 204.334 301.584 204.334 301.424V290.096C204.334 289.936 204.39 289.8 204.502 289.688C204.614 289.576 204.75 289.52 204.91 289.52H206.878C207.038 289.52 207.174 289.576 207.286 289.688C207.398 289.8 207.454 289.936 207.454 290.096V291.08C208.398 289.88 209.734 289.28 211.462 289.28C212.934 289.28 214.102 289.768 214.966 290.744C215.83 291.704 216.262 293.016 216.262 294.68V301.424C216.262 301.584 216.206 301.72 216.094 301.832C215.998 301.944 215.862 302 215.686 302H213.574C213.414 302 213.278 301.944 213.166 301.832C213.054 301.72 212.998 301.584 212.998 301.424V294.824C212.998 293.88 212.766 293.152 212.302 292.64C211.854 292.112 211.198 291.848 210.334 291.848C209.486 291.848 208.814 292.112 208.318 292.64C207.838 293.168 207.598 293.896 207.598 294.824V301.424C207.598 301.584 207.542 301.72 207.43 301.832C207.334 301.944 207.198 302 207.022 302H204.91Z" fill="white"/>
</svg>
