<svg width="125" height="24" viewBox="0 0 125 24" fill="none" xmlns="http://www.w3.org/2000/svg">
<path d="M80.9384 19.716H82.6044C81.4424 17.672 80.9524 15.558 80.9524 13.164C80.9524 10.77 81.4424 8.656 82.6044 6.612H80.9384C79.8464 8.278 79.2304 10.588 79.2304 13.164C79.2304 15.74 79.8464 18.022 80.9384 19.716ZM86.002 15.46L88.62 12.968C89.978 11.694 90.244 10.826 90.244 9.874C90.244 8.138 88.872 7.06 86.744 7.06C85.134 7.06 83.776 7.662 83.02 8.684L84.294 9.664C84.84 8.964 85.638 8.642 86.59 8.642C87.794 8.642 88.41 9.16 88.41 10.056C88.41 10.602 88.242 11.176 87.29 12.086L83.398 15.782V17H90.622V15.46H86.002ZM95.7194 17.14C98.0574 17.14 99.8214 15.32 99.8214 12.1C99.8214 8.88 98.0574 7.06 95.7194 7.06C93.3954 7.06 91.6314 8.88 91.6314 12.1C91.6314 15.32 93.3954 17.14 95.7194 17.14ZM95.7194 15.558C94.3894 15.558 93.4654 14.466 93.4654 12.1C93.4654 9.734 94.3894 8.642 95.7194 8.642C97.0634 8.642 97.9874 9.734 97.9874 12.1C97.9874 14.466 97.0634 15.558 95.7194 15.558ZM109.787 13.234H108.051V11.26H106.343V13.234H103.137L107.687 7.2H105.741L100.911 13.514V14.774H106.287V17H108.051V14.774H109.787V13.234ZM113.789 7.06C111.787 7.06 110.205 8.292 110.205 10.238C110.205 12.072 111.647 13.248 113.579 13.248C114.671 13.248 115.609 12.912 116.197 12.226V12.24C116.197 14.466 115.035 15.614 113.187 15.614C112.501 15.614 111.857 15.488 111.325 15.138L110.653 16.51C111.311 16.93 112.249 17.14 113.229 17.14C116.071 17.14 118.031 15.292 118.031 11.932C118.031 8.782 116.463 7.06 113.789 7.06ZM113.929 11.82C112.739 11.82 111.969 11.176 111.969 10.154C111.969 9.132 112.753 8.488 113.887 8.488C115.189 8.488 115.917 9.216 115.917 10.14C115.917 11.106 115.105 11.82 113.929 11.82ZM120.62 19.716C121.726 18.022 122.328 15.74 122.328 13.164C122.328 10.588 121.726 8.278 120.62 6.612H118.954C120.116 8.656 120.62 10.77 120.62 13.164C120.62 15.558 120.116 17.672 118.954 19.716H120.62Z" fill="#808080"/>
<path d="M56.1664 7.2V8.726H58.2384V17H60.0584V7.2H56.1664ZM68.7505 11.4H66.2725V8.95H64.7745V11.4H62.2965V12.8H64.7745V15.25H66.2725V12.8H68.7505V11.4Z" fill="#1C3554"/>
<path fill-rule="evenodd" clip-rule="evenodd" d="M40.0272 16.8589L44.988 20L43.6716 14.08L48.0544 10.0968L42.2829 9.58316L40.0272 4L37.7716 9.58316L32 10.0968L36.3829 14.08L35.0664 20L40.0272 16.8589Z" fill="#FAA307"/>
<path fill-rule="evenodd" clip-rule="evenodd" d="M19 5V19H5V5H19ZM19 3H5C3.9 3 3 3.9 3 5V19C3 20.1 3.9 21 5 21H19C20.1 21 21 20.1 21 19V5C21 3.9 20.1 3 19 3Z" fill="#CCCCCC"/>
</svg>
