<svg width="184" height="24" viewBox="0 0 184 24" fill="none" xmlns="http://www.w3.org/2000/svg">
<path d="M145.088 19.716H146.754C145.592 17.672 145.102 15.558 145.102 13.164C145.102 10.77 145.592 8.656 146.754 6.612H145.088C143.996 8.278 143.38 10.588 143.38 13.164C143.38 15.74 143.996 18.022 145.088 19.716ZM150.152 15.46L152.77 12.968C154.128 11.694 154.394 10.826 154.394 9.874C154.394 8.138 153.022 7.06 150.894 7.06C149.284 7.06 147.926 7.662 147.17 8.684L148.444 9.664C148.99 8.964 149.788 8.642 150.74 8.642C151.944 8.642 152.56 9.16 152.56 10.056C152.56 10.602 152.392 11.176 151.44 12.086L147.548 15.782V17H154.772V15.46H150.152ZM155.318 7.2V8.726H157.39V17H159.21V7.2H155.318ZM169.89 13.234H168.154V11.26H166.446V13.234H163.24L167.79 7.2H165.844L161.014 13.514V14.774H166.39V17H168.154V14.774H169.89V13.234ZM173.681 10.994H172.743L172.953 8.726H177.167V7.2H171.413L170.909 12.534H173.275C175.305 12.534 175.907 13.122 175.907 14.06C175.907 14.984 175.137 15.558 173.835 15.558C172.729 15.558 171.665 15.18 170.951 14.592L170.181 16.006C171.077 16.72 172.477 17.14 173.863 17.14C176.495 17.14 177.741 15.712 177.741 13.99C177.741 12.254 176.579 10.994 173.681 10.994ZM180.149 19.716C181.255 18.022 181.857 15.74 181.857 13.164C181.857 10.588 181.255 8.278 180.149 6.612H178.483C179.645 8.656 180.149 10.77 180.149 13.164C180.149 15.558 179.645 17.672 178.483 19.716H180.149Z" fill="#808080"/>
<path d="M125.556 13.234H123.82V11.26H122.112V13.234H118.906L123.456 7.2H121.51L116.68 13.514V14.774H122.056V17H123.82V14.774H125.556V13.234ZM133.207 11.4H130.729V8.95H129.231V11.4H126.753V12.8H129.231V15.25H130.729V12.8H133.207V11.4Z" fill="#1C3554"/>
<path fill-rule="evenodd" clip-rule="evenodd" d="M40 16.8589L44.944 20L43.632 14.08L48 10.0968L42.248 9.58316L40 4L37.752 9.58316L32 10.0968L36.368 14.08L35.056 20L40 16.8589Z" fill="#FAA307"/>
<path fill-rule="evenodd" clip-rule="evenodd" d="M60.0684 16.8589L65.0124 20L63.7004 14.08L68.0684 10.0968L62.3164 9.58316L60.0684 4L57.8204 9.58316L52.0684 10.0968L56.4364 14.08L55.1244 20L60.0684 16.8589Z" fill="#FAA307"/>
<path fill-rule="evenodd" clip-rule="evenodd" d="M80.1362 16.8589L85.0802 20L83.7682 14.08L88.1362 10.0968L82.3842 9.58316L80.1362 4L77.8882 9.58316L72.1362 10.0968L76.5042 14.08L75.1922 20L80.1362 16.8589Z" fill="#FAA307"/>
<path fill-rule="evenodd" clip-rule="evenodd" d="M100.204 16.8589L105.148 20L103.836 14.08L108.204 10.0968L102.452 9.58316L100.204 4L97.9563 9.58316L92.2043 10.0968L96.5723 14.08L95.2603 20L100.204 16.8589Z" fill="#FAA307"/>
<path fill-rule="evenodd" clip-rule="evenodd" d="M19 5V19H5V5H19ZM19 3H5C3.9 3 3 3.9 3 5V19C3 20.1 3.9 21 5 21H19C20.1 21 21 20.1 21 19V5C21 3.9 20.1 3 19 3Z" fill="#CCCCCC"/>
</svg>
