<svg width="158" height="24" viewBox="0 0 158 24" fill="none" xmlns="http://www.w3.org/2000/svg">
<path d="M124.075 19.716H125.741C124.579 17.672 124.089 15.558 124.089 13.164C124.089 10.77 124.579 8.656 125.741 6.612H124.075C122.983 8.278 122.367 10.588 122.367 13.164C122.367 15.74 122.983 18.022 124.075 19.716ZM129.138 15.46L131.756 12.968C133.114 11.694 133.38 10.826 133.38 9.874C133.38 8.138 132.008 7.06 129.88 7.06C128.27 7.06 126.912 7.662 126.156 8.684L127.43 9.664C127.976 8.964 128.774 8.642 129.726 8.642C130.93 8.642 131.546 9.16 131.546 10.056C131.546 10.602 131.378 11.176 130.426 12.086L126.534 15.782V17H133.758V15.46H129.138ZM137.287 15.46L139.905 12.968C141.263 11.694 141.529 10.826 141.529 9.874C141.529 8.138 140.157 7.06 138.029 7.06C136.419 7.06 135.061 7.662 134.305 8.684L135.579 9.664C136.125 8.964 136.923 8.642 137.875 8.642C139.079 8.642 139.695 9.16 139.695 10.056C139.695 10.602 139.527 11.176 138.575 12.086L134.683 15.782V17H141.907V15.46H137.287ZM151.488 13.234H149.752V11.26H148.044V13.234H144.838L149.388 7.2H147.442L142.612 13.514V14.774H147.988V17H149.752V14.774H151.488V13.234ZM153.612 19.716C154.718 18.022 155.32 15.74 155.32 13.164C155.32 10.588 154.718 8.278 153.612 6.612H151.946C153.108 8.656 153.612 10.77 153.612 13.164C153.612 15.558 153.108 17.672 151.946 19.716H153.612Z" fill="#808080"/>
<path d="M100.979 11.246L103.359 8.418V7.2H96.6807V8.726H101.133L98.9067 11.372V12.618H99.8027C101.287 12.618 101.931 13.192 101.931 14.074C101.931 14.984 101.161 15.558 99.8587 15.558C98.7527 15.558 97.6887 15.18 96.9887 14.592L96.2047 16.006C97.1147 16.72 98.5007 17.14 99.8867 17.14C102.519 17.14 103.765 15.712 103.765 14.06C103.765 12.59 102.827 11.484 100.979 11.246ZM111.703 11.4H109.225V8.95H107.727V11.4H105.249V12.8H107.727V15.25H109.225V12.8H111.703V11.4Z" fill="#1C3554"/>
<path fill-rule="evenodd" clip-rule="evenodd" d="M40.0272 16.8589L44.988 20L43.6716 14.08L48.0544 10.0968L42.2829 9.58316L40.0272 4L37.7716 9.58316L32 10.0968L36.3829 14.08L35.0664 20L40.0272 16.8589Z" fill="#FAA307"/>
<path fill-rule="evenodd" clip-rule="evenodd" d="M60.0956 16.8589L65.0564 20L63.7399 14.08L68.1228 10.0968L62.3512 9.58316L60.0956 4L57.8399 9.58316L52.0684 10.0968L56.4512 14.08L55.1348 20L60.0956 16.8589Z" fill="#FAA307"/>
<path fill-rule="evenodd" clip-rule="evenodd" d="M80.1634 16.8589L85.1243 20L83.8078 14.08L88.1907 10.0968L82.4191 9.58316L80.1634 4L77.9078 9.58316L72.1362 10.0968L76.5191 14.08L75.2026 20L80.1634 16.8589Z" fill="#FAA307"/>
<path fill-rule="evenodd" clip-rule="evenodd" d="M19 5V19H5V5H19ZM19 3H5C3.9 3 3 3.9 3 5V19C3 20.1 3.9 21 5 21H19C20.1 21 21 20.1 21 19V5C21 3.9 20.1 3 19 3Z" fill="#CCCCCC"/>
</svg>
