<svg width="148" height="24" viewBox="0 0 148 24" fill="none" xmlns="http://www.w3.org/2000/svg">
<path d="M104.007 19.716H105.673C104.511 17.672 104.021 15.558 104.021 13.164C104.021 10.77 104.511 8.656 105.673 6.612H104.007C102.915 8.278 102.299 10.588 102.299 13.164C102.299 15.74 102.915 18.022 104.007 19.716ZM109.07 15.46L111.688 12.968C113.046 11.694 113.312 10.826 113.312 9.874C113.312 8.138 111.94 7.06 109.812 7.06C108.202 7.06 106.844 7.662 106.088 8.684L107.362 9.664C107.908 8.964 108.706 8.642 109.658 8.642C110.862 8.642 111.478 9.16 111.478 10.056C111.478 10.602 111.31 11.176 110.358 12.086L106.466 15.782V17H113.69V15.46H109.07ZM118.788 17.14C121.126 17.14 122.89 15.32 122.89 12.1C122.89 8.88 121.126 7.06 118.788 7.06C116.464 7.06 114.7 8.88 114.7 12.1C114.7 15.32 116.464 17.14 118.788 17.14ZM118.788 15.558C117.458 15.558 116.534 14.466 116.534 12.1C116.534 9.734 117.458 8.642 118.788 8.642C120.132 8.642 121.056 9.734 121.056 12.1C121.056 14.466 120.132 15.558 118.788 15.558ZM132.856 13.234H131.12V11.26H129.412V13.234H126.206L130.756 7.2H128.81L123.98 13.514V14.774H129.356V17H131.12V14.774H132.856V13.234ZM136.857 7.06C134.855 7.06 133.273 8.292 133.273 10.238C133.273 12.072 134.715 13.248 136.647 13.248C137.739 13.248 138.677 12.912 139.265 12.226V12.24C139.265 14.466 138.103 15.614 136.255 15.614C135.569 15.614 134.925 15.488 134.393 15.138L133.721 16.51C134.379 16.93 135.317 17.14 136.297 17.14C139.139 17.14 141.099 15.292 141.099 11.932C141.099 8.782 139.531 7.06 136.857 7.06ZM136.997 11.82C135.807 11.82 135.037 11.176 135.037 10.154C135.037 9.132 135.821 8.488 136.955 8.488C138.257 8.488 138.985 9.216 138.985 10.14C138.985 11.106 138.173 11.82 136.997 11.82ZM143.689 19.716C144.795 18.022 145.397 15.74 145.397 13.164C145.397 10.588 144.795 8.278 143.689 6.612H142.023C143.185 8.656 143.689 10.77 143.689 13.164C143.689 15.558 143.185 17.672 142.023 19.716H143.689Z" fill="#808080"/>
<path d="M79.2168 15.46L81.8348 12.968C83.1928 11.694 83.4588 10.826 83.4588 9.874C83.4588 8.138 82.0868 7.06 79.9588 7.06C78.3488 7.06 76.9908 7.662 76.2348 8.684L77.5088 9.664C78.0548 8.964 78.8528 8.642 79.8048 8.642C81.0088 8.642 81.6248 9.16 81.6248 10.056C81.6248 10.602 81.4568 11.176 80.5048 12.086L76.6128 15.782V17H83.8368V15.46H79.2168ZM91.5669 11.4H89.0889V8.95H87.5909V11.4H85.1129V12.8H87.5909V15.25H89.0889V12.8H91.5669V11.4Z" fill="#1C3554"/>
<path fill-rule="evenodd" clip-rule="evenodd" d="M40.0272 16.8589L44.988 20L43.6716 14.08L48.0544 10.0968L42.2829 9.58316L40.0272 4L37.7716 9.58316L32 10.0968L36.3829 14.08L35.0664 20L40.0272 16.8589Z" fill="#FAA307"/>
<path fill-rule="evenodd" clip-rule="evenodd" d="M60.0956 16.8589L65.0564 20L63.7399 14.08L68.1228 10.0968L62.3512 9.58316L60.0956 4L57.8399 9.58316L52.0684 10.0968L56.4512 14.08L55.1348 20L60.0956 16.8589Z" fill="#FAA307"/>
<path fill-rule="evenodd" clip-rule="evenodd" d="M19 5V19H5V5H19ZM19 3H5C3.9 3 3 3.9 3 5V19C3 20.1 3.9 21 5 21H19C20.1 21 21 20.1 21 19V5C21 3.9 20.1 3 19 3Z" fill="#CCCCCC"/>
</svg>
