<svg width="195" height="24" viewBox="0 0 195 24" fill="none" xmlns="http://www.w3.org/2000/svg">
<path d="M156.211 19.716H157.877C156.715 17.672 156.225 15.558 156.225 13.164C156.225 10.77 156.715 8.656 157.877 6.612H156.211C155.119 8.278 154.503 10.588 154.503 13.164C154.503 15.74 155.119 18.022 156.211 19.716ZM158.429 7.2V8.726H160.501V17H162.321V7.2H158.429ZM166.743 15.46L169.361 12.968C170.719 11.694 170.985 10.826 170.985 9.874C170.985 8.138 169.613 7.06 167.485 7.06C165.875 7.06 164.517 7.662 163.761 8.684L165.035 9.664C165.581 8.964 166.379 8.642 167.331 8.642C168.535 8.642 169.151 9.16 169.151 10.056C169.151 10.602 168.983 11.176 168.031 12.086L164.139 15.782V17H171.363V15.46H166.743ZM180.945 13.234H179.209V11.26H177.501V13.234H174.295L178.845 7.2H176.899L172.069 13.514V14.774H177.445V17H179.209V14.774H180.945V13.234ZM184.147 15.46L186.765 12.968C188.123 11.694 188.389 10.826 188.389 9.874C188.389 8.138 187.017 7.06 184.889 7.06C183.279 7.06 181.921 7.662 181.165 8.684L182.439 9.664C182.985 8.964 183.783 8.642 184.735 8.642C185.939 8.642 186.555 9.16 186.555 10.056C186.555 10.602 186.387 11.176 185.435 12.086L181.543 15.782V17H188.767V15.46H184.147ZM191.176 19.716C192.282 18.022 192.884 15.74 192.884 13.164C192.884 10.588 192.282 8.278 191.176 6.612H189.51C190.672 8.656 191.176 10.77 191.176 13.164C191.176 15.558 190.672 17.672 189.51 19.716H191.176Z" fill="#808080"/>
<path d="M140.009 10.994H139.071L139.281 8.726H143.495V7.2H137.741L137.237 12.534H139.603C141.633 12.534 142.235 13.122 142.235 14.06C142.235 14.984 141.465 15.558 140.163 15.558C139.057 15.558 137.993 15.18 137.279 14.592L136.509 16.006C137.405 16.72 138.805 17.14 140.191 17.14C142.823 17.14 144.069 15.712 144.069 13.99C144.069 12.254 142.907 10.994 140.009 10.994Z" fill="#1C3554"/>
<path fill-rule="evenodd" clip-rule="evenodd" d="M40.0272 16.8589L44.988 20L43.6716 14.08L48.0544 10.0968L42.2829 9.58316L40.0272 4L37.7716 9.58316L32 10.0968L36.3829 14.08L35.0664 20L40.0272 16.8589Z" fill="#FAA307"/>
<path fill-rule="evenodd" clip-rule="evenodd" d="M60.0956 16.8589L65.0564 20L63.7399 14.08L68.1228 10.0968L62.3512 9.58316L60.0956 4L57.8399 9.58316L52.0684 10.0968L56.4512 14.08L55.1348 20L60.0956 16.8589Z" fill="#FAA307"/>
<path fill-rule="evenodd" clip-rule="evenodd" d="M80.1634 16.8589L85.1243 20L83.8078 14.08L88.1907 10.0968L82.4191 9.58316L80.1634 4L77.9078 9.58316L72.1362 10.0968L76.5191 14.08L75.2026 20L80.1634 16.8589Z" fill="#FAA307"/>
<path fill-rule="evenodd" clip-rule="evenodd" d="M100.232 16.8589L105.192 20L103.876 14.08L108.259 10.0968L102.487 9.58316L100.232 4L97.9759 9.58316L92.2043 10.0968L96.5872 14.08L95.2707 20L100.232 16.8589Z" fill="#FAA307"/>
<path fill-rule="evenodd" clip-rule="evenodd" d="M120.3 16.8589L125.26 20L123.944 14.08L128.327 10.0968L122.555 9.58316L120.3 4L118.044 9.58316L112.272 10.0968L116.655 14.08L115.339 20L120.3 16.8589Z" fill="#FAA307"/>
<path fill-rule="evenodd" clip-rule="evenodd" d="M19 5V19H5V5H19ZM19 3H5C3.9 3 3 3.9 3 5V19C3 20.1 3.9 21 5 21H19C20.1 21 21 20.1 21 19V5C21 3.9 20.1 3 19 3Z" fill="#CCCCCC"/>
</svg>
