<svg width="296" height="350" viewBox="0 0 296 350" fill="none" xmlns="http://www.w3.org/2000/svg">
<rect width="296" height="350" rx="8" fill="#CCCCCC"/>
<rect opacity="0.5" width="296" height="350" rx="8" fill="black"/>
<path d="M82.8618 302C82.3978 302 82.0938 301.776 81.9498 301.328L76.8138 285.92L76.7658 285.704C76.7658 285.56 76.8138 285.44 76.9098 285.344C77.0058 285.248 77.1258 285.2 77.2698 285.2H79.3818C79.5898 285.2 79.7498 285.256 79.8618 285.368C79.9898 285.464 80.0778 285.584 80.1258 285.728L84.1818 298.088L88.2378 285.728C88.2698 285.6 88.3498 285.48 88.4778 285.368C88.6058 285.256 88.7738 285.2 88.9818 285.2H91.0938C91.2218 285.2 91.3338 285.248 91.4298 285.344C91.5418 285.44 91.5978 285.56 91.5978 285.704L91.5498 285.92L86.4138 301.328C86.2698 301.776 85.9658 302 85.5018 302H82.8618ZM94.3296 287.456C94.1696 287.456 94.0336 287.4 93.9216 287.288C93.8096 287.176 93.7536 287.04 93.7536 286.88V285.152C93.7536 284.992 93.8096 284.856 93.9216 284.744C94.0336 284.632 94.1696 284.576 94.3296 284.576H96.5136C96.6736 284.576 96.8096 284.632 96.9216 284.744C97.0496 284.856 97.1136 284.992 97.1136 285.152V286.88C97.1136 287.04 97.0576 287.176 96.9456 287.288C96.8336 287.4 96.6896 287.456 96.5136 287.456H94.3296ZM94.4256 302C94.2656 302 94.1296 301.944 94.0176 301.832C93.9056 301.72 93.8496 301.584 93.8496 301.424V290.096C93.8496 289.936 93.9056 289.8 94.0176 289.688C94.1296 289.576 94.2656 289.52 94.4256 289.52H96.4176C96.5936 289.52 96.7296 289.576 96.8256 289.688C96.9376 289.784 96.9936 289.92 96.9936 290.096V301.424C96.9936 301.584 96.9376 301.72 96.8256 301.832C96.7296 301.944 96.5936 302 96.4176 302H94.4256ZM104.81 302.24C103.194 302.24 101.954 301.72 101.09 300.68C100.226 299.64 99.7618 298.256 99.6978 296.528L99.6738 295.736L99.6978 294.968C99.7458 293.288 100.202 291.92 101.066 290.864C101.946 289.808 103.194 289.28 104.81 289.28C106.362 289.28 107.594 289.808 108.506 290.864V285.536C108.506 285.36 108.562 285.224 108.674 285.128C108.786 285.016 108.922 284.96 109.082 284.96H111.122C111.298 284.96 111.434 285.016 111.53 285.128C111.642 285.224 111.698 285.36 111.698 285.536V301.424C111.698 301.584 111.642 301.72 111.53 301.832C111.434 301.944 111.298 302 111.122 302H109.226C109.066 302 108.93 301.944 108.818 301.832C108.706 301.72 108.65 301.584 108.65 301.424V300.536C107.738 301.672 106.458 302.24 104.81 302.24ZM105.698 299.672C106.626 299.672 107.314 299.376 107.762 298.784C108.21 298.192 108.458 297.464 108.506 296.6C108.522 296.408 108.53 296.096 108.53 295.664C108.53 295.248 108.522 294.944 108.506 294.752C108.474 293.952 108.218 293.272 107.738 292.712C107.274 292.136 106.594 291.848 105.698 291.848C103.97 291.848 103.05 292.912 102.938 295.04L102.914 295.76L102.938 296.48C103.05 298.608 103.97 299.672 105.698 299.672ZM120.273 302.24C118.497 302.24 117.081 301.728 116.025 300.704C114.985 299.664 114.433 298.208 114.369 296.336L114.345 295.736L114.369 295.136C114.449 293.312 115.009 291.88 116.049 290.84C117.105 289.8 118.513 289.28 120.273 289.28C122.161 289.28 123.617 289.856 124.641 291.008C125.681 292.16 126.201 293.696 126.201 295.616V296.12C126.201 296.28 126.145 296.416 126.033 296.528C125.921 296.64 125.777 296.696 125.601 296.696H117.633V296.888C117.665 297.768 117.905 298.512 118.353 299.12C118.817 299.712 119.449 300.008 120.249 300.008C121.193 300.008 121.953 299.64 122.529 298.904C122.673 298.728 122.785 298.616 122.865 298.568C122.961 298.52 123.097 298.496 123.273 298.496H125.337C125.481 298.496 125.601 298.544 125.697 298.64C125.809 298.72 125.865 298.824 125.865 298.952C125.865 299.336 125.633 299.792 125.169 300.32C124.721 300.832 124.073 301.28 123.225 301.664C122.377 302.048 121.393 302.24 120.273 302.24ZM122.937 294.68V294.608C122.937 293.664 122.697 292.904 122.217 292.328C121.753 291.752 121.105 291.464 120.273 291.464C119.441 291.464 118.793 291.752 118.329 292.328C117.865 292.904 117.633 293.664 117.633 294.608V294.68H122.937ZM134.268 302.24C132.396 302.24 130.948 301.76 129.924 300.8C128.9 299.824 128.348 298.496 128.268 296.816L128.244 295.76L128.268 294.704C128.348 293.04 128.908 291.72 129.948 290.744C130.988 289.768 132.428 289.28 134.268 289.28C136.108 289.28 137.548 289.768 138.588 290.744C139.628 291.72 140.188 293.04 140.268 294.704C140.284 294.896 140.292 295.248 140.292 295.76C140.292 296.272 140.284 296.624 140.268 296.816C140.188 298.496 139.636 299.824 138.612 300.8C137.588 301.76 136.14 302.24 134.268 302.24ZM134.268 299.864C135.116 299.864 135.772 299.6 136.236 299.072C136.7 298.528 136.956 297.736 137.004 296.696C137.02 296.536 137.028 296.224 137.028 295.76C137.028 295.296 137.02 294.984 137.004 294.824C136.956 293.784 136.7 293 136.236 292.472C135.772 291.928 135.116 291.656 134.268 291.656C133.42 291.656 132.764 291.928 132.3 292.472C131.836 293 131.58 293.784 131.532 294.824L131.508 295.76L131.532 296.696C131.58 297.736 131.836 298.528 132.3 299.072C132.764 299.6 133.42 299.864 134.268 299.864ZM148.591 307.28C147.167 307.28 146.015 307.04 145.135 306.56C144.255 306.096 143.631 305.56 143.263 304.952C142.895 304.344 142.711 303.824 142.711 303.392C142.711 303.248 142.767 303.12 142.879 303.008C143.007 302.896 143.143 302.84 143.287 302.84H145.375C145.519 302.84 145.639 302.872 145.735 302.936C145.847 303.016 145.935 303.152 145.999 303.344C146.159 303.776 146.415 304.136 146.767 304.424C147.135 304.728 147.703 304.88 148.471 304.88C149.431 304.88 150.135 304.664 150.583 304.232C151.047 303.8 151.279 303.056 151.279 302V300.368C150.399 301.408 149.167 301.928 147.583 301.928C145.919 301.928 144.663 301.416 143.815 300.392C142.983 299.368 142.535 297.992 142.471 296.264L142.447 295.616L142.471 294.968C142.535 293.272 142.991 291.904 143.839 290.864C144.687 289.808 145.935 289.28 147.583 289.28C148.431 289.28 149.175 289.44 149.815 289.76C150.455 290.08 150.991 290.52 151.423 291.08V290.12C151.423 289.944 151.479 289.8 151.591 289.688C151.703 289.576 151.839 289.52 151.999 289.52H153.943C154.103 289.52 154.239 289.584 154.351 289.712C154.463 289.824 154.519 289.96 154.519 290.12L154.543 301.688C154.543 303.464 154.047 304.84 153.055 305.816C152.063 306.792 150.575 307.28 148.591 307.28ZM148.471 299.384C149.383 299.384 150.063 299.096 150.511 298.52C150.975 297.944 151.231 297.24 151.279 296.408C151.295 296.28 151.303 296.016 151.303 295.616C151.303 295.232 151.295 294.976 151.279 294.848C151.231 294 150.975 293.288 150.511 292.712C150.063 292.136 149.383 291.848 148.471 291.848C146.743 291.848 145.831 292.912 145.735 295.04L145.711 295.616C145.711 296.752 145.911 297.664 146.311 298.352C146.727 299.04 147.447 299.384 148.471 299.384ZM158.316 302C158.156 302 158.02 301.944 157.908 301.832C157.796 301.72 157.74 301.584 157.74 301.424V290.12C157.74 289.96 157.796 289.824 157.908 289.712C158.02 289.584 158.156 289.52 158.316 289.52H160.26C160.436 289.52 160.58 289.576 160.692 289.688C160.804 289.8 160.86 289.944 160.86 290.12V291.104C161.244 290.592 161.724 290.2 162.3 289.928C162.892 289.656 163.564 289.52 164.316 289.52H165.3C165.476 289.52 165.612 289.576 165.708 289.688C165.82 289.784 165.876 289.92 165.876 290.096V291.824C165.876 291.984 165.82 292.12 165.708 292.232C165.612 292.344 165.476 292.4 165.3 292.4H163.428C162.676 292.4 162.084 292.616 161.652 293.048C161.22 293.48 161.004 294.072 161.004 294.824V301.424C161.004 301.584 160.948 301.72 160.836 301.832C160.724 301.944 160.58 302 160.404 302H158.316ZM171.185 302.24C170.369 302.24 169.617 302.08 168.929 301.76C168.257 301.424 167.721 300.976 167.321 300.416C166.937 299.856 166.745 299.24 166.745 298.568C166.745 297.48 167.185 296.6 168.065 295.928C168.945 295.256 170.153 294.8 171.689 294.56L174.977 294.08V293.576C174.977 292.872 174.801 292.344 174.449 291.992C174.097 291.64 173.529 291.464 172.745 291.464C172.217 291.464 171.785 291.568 171.449 291.776C171.129 291.968 170.873 292.16 170.681 292.352C170.489 292.56 170.361 292.696 170.297 292.76C170.233 292.952 170.113 293.048 169.937 293.048H168.089C167.945 293.048 167.817 293 167.705 292.904C167.609 292.808 167.561 292.68 167.561 292.52C167.577 292.12 167.769 291.664 168.137 291.152C168.521 290.64 169.105 290.2 169.889 289.832C170.673 289.464 171.633 289.28 172.769 289.28C174.657 289.28 176.033 289.704 176.897 290.552C177.761 291.4 178.193 292.512 178.193 293.888V301.424C178.193 301.584 178.137 301.72 178.025 301.832C177.929 301.944 177.793 302 177.617 302H175.673C175.513 302 175.377 301.944 175.265 301.832C175.153 301.72 175.097 301.584 175.097 301.424V300.488C174.745 301 174.241 301.424 173.585 301.76C172.945 302.08 172.145 302.24 171.185 302.24ZM172.001 299.96C172.881 299.96 173.601 299.672 174.161 299.096C174.721 298.52 175.001 297.68 175.001 296.576V296.072L172.601 296.456C171.673 296.6 170.969 296.832 170.489 297.152C170.025 297.472 169.793 297.864 169.793 298.328C169.793 298.84 170.009 299.24 170.441 299.528C170.873 299.816 171.393 299.96 172.001 299.96ZM181.872 306.56C181.712 306.56 181.576 306.504 181.464 306.392C181.352 306.296 181.296 306.16 181.296 305.984V290.096C181.296 289.92 181.352 289.784 181.464 289.688C181.576 289.576 181.712 289.52 181.872 289.52H183.768C183.944 289.52 184.08 289.576 184.176 289.688C184.288 289.784 184.344 289.92 184.344 290.096V291.056C185.24 289.872 186.52 289.28 188.184 289.28C189.8 289.28 191.04 289.792 191.904 290.816C192.768 291.824 193.232 293.192 193.296 294.92C193.312 295.112 193.32 295.392 193.32 295.76C193.32 296.144 193.312 296.432 193.296 296.624C193.232 298.304 192.768 299.664 191.904 300.704C191.04 301.728 189.8 302.24 188.184 302.24C186.568 302.24 185.336 301.672 184.488 300.536V305.984C184.488 306.16 184.432 306.296 184.32 306.392C184.224 306.504 184.088 306.56 183.912 306.56H181.872ZM187.296 299.672C189.024 299.672 189.944 298.608 190.056 296.48C190.072 296.32 190.08 296.08 190.08 295.76C190.08 295.44 190.072 295.2 190.056 295.04C189.944 292.912 189.024 291.848 187.296 291.848C186.368 291.848 185.68 292.144 185.232 292.736C184.784 293.328 184.536 294.056 184.488 294.92L184.464 295.832L184.488 296.768C184.52 297.568 184.768 298.256 185.232 298.832C185.712 299.392 186.4 299.672 187.296 299.672ZM196.614 302C196.454 302 196.318 301.944 196.206 301.832C196.094 301.72 196.038 301.584 196.038 301.424V285.536C196.038 285.36 196.094 285.224 196.206 285.128C196.318 285.016 196.454 284.96 196.614 284.96H198.75C198.926 284.96 199.062 285.016 199.158 285.128C199.27 285.224 199.326 285.36 199.326 285.536V291.008C200.286 289.856 201.582 289.28 203.214 289.28C204.686 289.28 205.862 289.768 206.742 290.744C207.622 291.704 208.062 293.016 208.062 294.68V301.424C208.062 301.584 208.006 301.72 207.894 301.832C207.798 301.944 207.662 302 207.486 302H205.326C205.166 302 205.03 301.944 204.918 301.832C204.806 301.72 204.75 301.584 204.75 301.424V294.824C204.75 293.88 204.518 293.152 204.054 292.64C203.606 292.112 202.95 291.848 202.086 291.848C201.238 291.848 200.566 292.112 200.07 292.64C199.574 293.168 199.326 293.896 199.326 294.824V301.424C199.326 301.584 199.27 301.72 199.158 301.832C199.062 301.944 198.926 302 198.75 302H196.614ZM212.965 306.56C212.837 306.56 212.725 306.512 212.629 306.416C212.533 306.32 212.485 306.208 212.485 306.08C212.485 305.936 212.517 305.808 212.581 305.696L214.453 301.256L209.845 290.384C209.781 290.24 209.749 290.128 209.749 290.048C209.765 289.904 209.821 289.784 209.917 289.688C210.013 289.576 210.133 289.52 210.277 289.52H212.221C212.525 289.52 212.741 289.672 212.869 289.976L216.061 297.824L219.349 289.976C219.477 289.672 219.693 289.52 219.997 289.52H221.917C222.045 289.52 222.157 289.568 222.253 289.664C222.365 289.76 222.421 289.872 222.421 290C222.421 290.112 222.389 290.24 222.325 290.384L215.533 306.104C215.389 306.408 215.165 306.56 214.861 306.56H212.965Z" fill="white"/>
</svg>
