<svg width="296" height="391" viewBox="0 0 296 391" fill="none" xmlns="http://www.w3.org/2000/svg">
<rect width="296" height="391" fill="#CCCCCC"/>
<rect opacity="0.2" width="296" height="391" fill="black"/>
<path d="M46.368 343C46.096 343 45.88 342.92 45.72 342.76C45.56 342.6 45.464 342.416 45.432 342.208L42.816 326.872C42.8 326.824 42.792 326.792 42.792 326.776C42.792 326.744 42.792 326.72 42.792 326.704C42.792 326.576 42.84 326.464 42.936 326.368C43.048 326.256 43.168 326.2 43.296 326.2H46.272C46.72 326.2 46.968 326.376 47.016 326.728L48.576 336.088L50.304 330.568C50.352 330.44 50.432 330.304 50.544 330.16C50.656 330 50.84 329.92 51.096 329.92H52.824C53.096 329.92 53.288 330 53.4 330.16C53.512 330.304 53.584 330.44 53.616 330.568L55.344 336.088L56.904 326.728C56.952 326.376 57.2 326.2 57.648 326.2H60.624C60.768 326.2 60.888 326.256 60.984 326.368C61.096 326.464 61.152 326.576 61.152 326.704C61.152 326.72 61.144 326.744 61.128 326.776C61.128 326.792 61.128 326.824 61.128 326.872L58.512 342.208C58.48 342.416 58.384 342.6 58.224 342.76C58.064 342.92 57.848 343 57.576 343H55.296C55.024 343 54.816 342.928 54.672 342.784C54.528 342.64 54.432 342.504 54.384 342.376L51.96 335.512L49.536 342.376C49.488 342.504 49.392 342.64 49.248 342.784C49.12 342.928 48.92 343 48.648 343H46.368ZM68.6994 343.24C66.8114 343.24 65.3074 342.728 64.1874 341.704C63.0674 340.68 62.4834 339.16 62.4354 337.144C62.4354 337.032 62.4354 336.888 62.4354 336.712C62.4354 336.536 62.4354 336.4 62.4354 336.304C62.4834 335.04 62.7634 333.96 63.2754 333.064C63.8034 332.152 64.5234 331.464 65.4354 331C66.3634 330.52 67.4434 330.28 68.6754 330.28C70.0834 330.28 71.2434 330.56 72.1554 331.12C73.0834 331.68 73.7794 332.44 74.2434 333.4C74.7074 334.36 74.9394 335.456 74.9394 336.688V337.264C74.9394 337.44 74.8834 337.584 74.7714 337.696C74.6594 337.808 74.5154 337.864 74.3394 337.864H66.6594C66.6594 337.88 66.6594 337.904 66.6594 337.936C66.6594 337.968 66.6594 338 66.6594 338.032C66.6754 338.496 66.7554 338.92 66.8994 339.304C67.0594 339.688 67.2834 339.992 67.5714 340.216C67.8754 340.44 68.2434 340.552 68.6754 340.552C68.9954 340.552 69.2594 340.504 69.4674 340.408C69.6914 340.296 69.8754 340.176 70.0194 340.048C70.1634 339.904 70.2754 339.784 70.3554 339.688C70.4994 339.512 70.6114 339.408 70.6914 339.376C70.7874 339.328 70.9314 339.304 71.1234 339.304H74.0994C74.2594 339.304 74.3874 339.352 74.4834 339.448C74.5954 339.544 74.6434 339.672 74.6274 339.832C74.6114 340.104 74.4754 340.432 74.2194 340.816C73.9634 341.2 73.5874 341.584 73.0914 341.968C72.6114 342.336 72.0034 342.64 71.2674 342.88C70.5314 343.12 69.6754 343.24 68.6994 343.24ZM66.6594 335.488H70.7154V335.44C70.7154 334.912 70.6354 334.464 70.4754 334.096C70.3314 333.712 70.0994 333.416 69.7794 333.208C69.4754 333 69.1074 332.896 68.6754 332.896C68.2594 332.896 67.8994 333 67.5954 333.208C67.2914 333.416 67.0594 333.712 66.8994 334.096C66.7394 334.464 66.6594 334.912 66.6594 335.44V335.488ZM84.8214 343.24C83.9414 343.24 83.1974 343.088 82.5894 342.784C81.9814 342.48 81.4854 342.096 81.1014 341.632V342.4C81.1014 342.56 81.0374 342.704 80.9094 342.832C80.7974 342.944 80.6614 343 80.5014 343H77.7894C77.6134 343 77.4694 342.944 77.3574 342.832C77.2454 342.704 77.1894 342.56 77.1894 342.4V326.56C77.1894 326.384 77.2454 326.24 77.3574 326.128C77.4694 326.016 77.6134 325.96 77.7894 325.96H80.7174C80.8934 325.96 81.0374 326.016 81.1494 326.128C81.2614 326.24 81.3174 326.384 81.3174 326.56V331.696C81.7174 331.28 82.2054 330.944 82.7814 330.688C83.3574 330.416 84.0374 330.28 84.8214 330.28C85.6214 330.28 86.3254 330.416 86.9334 330.688C87.5574 330.944 88.0854 331.32 88.5174 331.816C88.9494 332.296 89.2854 332.888 89.5254 333.592C89.7654 334.28 89.9014 335.048 89.9334 335.896C89.9494 336.216 89.9574 336.504 89.9574 336.76C89.9574 337 89.9494 337.28 89.9334 337.6C89.9014 338.496 89.7654 339.296 89.5254 340C89.2854 340.688 88.9414 341.28 88.4934 341.776C88.0614 342.256 87.5414 342.624 86.9334 342.88C86.3254 343.12 85.6214 343.24 84.8214 343.24ZM83.5254 340.024C84.0694 340.024 84.4934 339.912 84.7974 339.688C85.1014 339.464 85.3174 339.16 85.4454 338.776C85.5894 338.392 85.6774 337.968 85.7094 337.504C85.7414 337.008 85.7414 336.512 85.7094 336.016C85.6774 335.552 85.5894 335.128 85.4454 334.744C85.3174 334.36 85.1014 334.056 84.7974 333.832C84.4934 333.608 84.0694 333.496 83.5254 333.496C83.0294 333.496 82.6214 333.608 82.3014 333.832C81.9814 334.04 81.7414 334.32 81.5814 334.672C81.4214 335.008 81.3334 335.376 81.3174 335.776C81.3014 336.08 81.2934 336.376 81.2934 336.664C81.2934 336.952 81.3014 337.256 81.3174 337.576C81.3494 338.008 81.4374 338.408 81.5814 338.776C81.7254 339.144 81.9574 339.448 82.2774 339.688C82.5974 339.912 83.0134 340.024 83.5254 340.024ZM98.3034 343C98.1274 343 97.9834 342.944 97.8714 342.832C97.7594 342.704 97.7034 342.56 97.7034 342.4V326.8C97.7034 326.624 97.7594 326.48 97.8714 326.368C97.9834 326.256 98.1274 326.2 98.3034 326.2H104.543C106.111 326.2 107.447 326.456 108.551 326.968C109.655 327.464 110.503 328.2 111.095 329.176C111.687 330.136 112.007 331.328 112.055 332.752C112.071 333.456 112.079 334.072 112.079 334.6C112.079 335.128 112.071 335.736 112.055 336.424C111.991 337.912 111.671 339.144 111.095 340.12C110.535 341.096 109.711 341.824 108.623 342.304C107.551 342.768 106.231 343 104.663 343H98.3034ZM102.023 339.544H104.543C105.231 339.544 105.799 339.44 106.247 339.232C106.711 339.008 107.055 338.664 107.279 338.2C107.519 337.736 107.647 337.128 107.663 336.376C107.695 335.912 107.711 335.496 107.711 335.128C107.727 334.76 107.727 334.392 107.711 334.024C107.711 333.656 107.695 333.248 107.663 332.8C107.631 331.712 107.343 330.92 106.799 330.424C106.271 329.912 105.479 329.656 104.423 329.656H102.023V339.544ZM120.379 343.24C118.491 343.24 116.987 342.728 115.867 341.704C114.747 340.68 114.163 339.16 114.115 337.144C114.115 337.032 114.115 336.888 114.115 336.712C114.115 336.536 114.115 336.4 114.115 336.304C114.163 335.04 114.443 333.96 114.955 333.064C115.483 332.152 116.203 331.464 117.115 331C118.043 330.52 119.123 330.28 120.355 330.28C121.763 330.28 122.923 330.56 123.835 331.12C124.763 331.68 125.459 332.44 125.923 333.4C126.387 334.36 126.619 335.456 126.619 336.688V337.264C126.619 337.44 126.563 337.584 126.451 337.696C126.339 337.808 126.195 337.864 126.019 337.864H118.339C118.339 337.88 118.339 337.904 118.339 337.936C118.339 337.968 118.339 338 118.339 338.032C118.355 338.496 118.435 338.92 118.579 339.304C118.739 339.688 118.963 339.992 119.251 340.216C119.555 340.44 119.923 340.552 120.355 340.552C120.675 340.552 120.939 340.504 121.147 340.408C121.371 340.296 121.555 340.176 121.699 340.048C121.843 339.904 121.955 339.784 122.035 339.688C122.179 339.512 122.291 339.408 122.371 339.376C122.467 339.328 122.611 339.304 122.803 339.304H125.779C125.939 339.304 126.067 339.352 126.163 339.448C126.275 339.544 126.323 339.672 126.307 339.832C126.291 340.104 126.155 340.432 125.899 340.816C125.643 341.2 125.267 341.584 124.771 341.968C124.291 342.336 123.683 342.64 122.947 342.88C122.211 343.12 121.355 343.24 120.379 343.24ZM118.339 335.488H122.395V335.44C122.395 334.912 122.315 334.464 122.155 334.096C122.011 333.712 121.779 333.416 121.459 333.208C121.155 333 120.787 332.896 120.355 332.896C119.939 332.896 119.579 333 119.275 333.208C118.971 333.416 118.739 333.712 118.579 334.096C118.419 334.464 118.339 334.912 118.339 335.44V335.488ZM132.84 343C132.6 343 132.424 342.944 132.312 342.832C132.2 342.704 132.104 342.56 132.024 342.4L127.488 331.264C127.456 331.2 127.44 331.128 127.44 331.048C127.44 330.904 127.488 330.784 127.584 330.688C127.696 330.576 127.832 330.52 127.992 330.52H130.704C130.912 330.52 131.072 330.576 131.184 330.688C131.296 330.8 131.368 330.912 131.4 331.024L134.112 338.392L136.848 331.024C136.88 330.912 136.952 330.8 137.064 330.688C137.176 330.576 137.336 330.52 137.544 330.52H140.256C140.4 330.52 140.528 330.576 140.64 330.688C140.752 330.784 140.808 330.904 140.808 331.048C140.808 331.128 140.792 331.2 140.76 331.264L136.224 342.4C136.16 342.56 136.064 342.704 135.936 342.832C135.824 342.944 135.64 343 135.384 343H132.84ZM147.965 343.24C146.077 343.24 144.573 342.728 143.453 341.704C142.333 340.68 141.749 339.16 141.701 337.144C141.701 337.032 141.701 336.888 141.701 336.712C141.701 336.536 141.701 336.4 141.701 336.304C141.749 335.04 142.029 333.96 142.541 333.064C143.069 332.152 143.789 331.464 144.701 331C145.629 330.52 146.709 330.28 147.941 330.28C149.349 330.28 150.509 330.56 151.421 331.12C152.349 331.68 153.045 332.44 153.509 333.4C153.973 334.36 154.205 335.456 154.205 336.688V337.264C154.205 337.44 154.149 337.584 154.037 337.696C153.925 337.808 153.781 337.864 153.605 337.864H145.925C145.925 337.88 145.925 337.904 145.925 337.936C145.925 337.968 145.925 338 145.925 338.032C145.941 338.496 146.021 338.92 146.165 339.304C146.325 339.688 146.549 339.992 146.837 340.216C147.141 340.44 147.509 340.552 147.941 340.552C148.261 340.552 148.525 340.504 148.733 340.408C148.957 340.296 149.141 340.176 149.285 340.048C149.429 339.904 149.541 339.784 149.621 339.688C149.765 339.512 149.877 339.408 149.957 339.376C150.053 339.328 150.197 339.304 150.389 339.304H153.365C153.525 339.304 153.653 339.352 153.749 339.448C153.861 339.544 153.909 339.672 153.893 339.832C153.877 340.104 153.741 340.432 153.485 340.816C153.229 341.2 152.853 341.584 152.357 341.968C151.877 342.336 151.269 342.64 150.533 342.88C149.797 343.12 148.941 343.24 147.965 343.24ZM145.925 335.488H149.981V335.44C149.981 334.912 149.901 334.464 149.741 334.096C149.597 333.712 149.365 333.416 149.045 333.208C148.741 333 148.373 332.896 147.941 332.896C147.525 332.896 147.165 333 146.861 333.208C146.557 333.416 146.325 333.712 146.165 334.096C146.005 334.464 145.925 334.912 145.925 335.44V335.488ZM157.055 343C156.879 343 156.735 342.944 156.623 342.832C156.511 342.704 156.455 342.56 156.455 342.4V326.56C156.455 326.384 156.511 326.24 156.623 326.128C156.735 326.016 156.879 325.96 157.055 325.96H159.887C160.063 325.96 160.207 326.016 160.319 326.128C160.431 326.24 160.487 326.384 160.487 326.56V342.4C160.487 342.56 160.431 342.704 160.319 342.832C160.207 342.944 160.063 343 159.887 343H157.055ZM169.226 343.24C167.882 343.24 166.746 343.024 165.818 342.592C164.906 342.16 164.202 341.544 163.706 340.744C163.226 339.928 162.954 338.96 162.89 337.84C162.874 337.52 162.866 337.16 162.866 336.76C162.866 336.344 162.874 335.984 162.89 335.68C162.954 334.544 163.242 333.576 163.754 332.776C164.266 331.976 164.978 331.36 165.89 330.928C166.818 330.496 167.93 330.28 169.226 330.28C170.538 330.28 171.65 330.496 172.562 330.928C173.49 331.36 174.21 331.976 174.722 332.776C175.234 333.576 175.522 334.544 175.586 335.68C175.602 335.984 175.61 336.344 175.61 336.76C175.61 337.16 175.602 337.52 175.586 337.84C175.522 338.96 175.242 339.928 174.746 340.744C174.266 341.544 173.562 342.16 172.634 342.592C171.722 343.024 170.586 343.24 169.226 343.24ZM169.226 340.312C169.946 340.312 170.466 340.096 170.786 339.664C171.122 339.232 171.314 338.584 171.362 337.72C171.378 337.48 171.386 337.16 171.386 336.76C171.386 336.36 171.378 336.04 171.362 335.8C171.314 334.952 171.122 334.312 170.786 333.88C170.466 333.432 169.946 333.208 169.226 333.208C168.538 333.208 168.018 333.432 167.666 333.88C167.33 334.312 167.146 334.952 167.114 335.8C167.098 336.04 167.09 336.36 167.09 336.76C167.09 337.16 167.098 337.48 167.114 337.72C167.146 338.584 167.33 339.232 167.666 339.664C168.018 340.096 168.538 340.312 169.226 340.312ZM178.594 347.56C178.418 347.56 178.274 347.496 178.162 347.368C178.05 347.256 177.994 347.12 177.994 346.96V331.12C177.994 330.944 178.05 330.8 178.162 330.688C178.274 330.576 178.418 330.52 178.594 330.52H181.306C181.466 330.52 181.602 330.576 181.714 330.688C181.842 330.8 181.906 330.944 181.906 331.12V331.984C182.29 331.504 182.786 331.104 183.394 330.784C184.002 330.448 184.746 330.28 185.626 330.28C186.426 330.28 187.13 330.408 187.738 330.664C188.346 330.904 188.866 331.264 189.298 331.744C189.746 332.224 190.09 332.808 190.33 333.496C190.57 334.184 190.706 334.976 190.738 335.872C190.754 336.192 190.762 336.488 190.762 336.76C190.762 337.032 190.754 337.328 190.738 337.648C190.706 338.512 190.57 339.288 190.33 339.976C190.09 340.664 189.754 341.248 189.322 341.728C188.89 342.208 188.362 342.584 187.738 342.856C187.13 343.112 186.426 343.24 185.626 343.24C184.842 343.24 184.154 343.104 183.562 342.832C182.986 342.544 182.506 342.144 182.122 341.632V346.96C182.122 347.12 182.066 347.256 181.954 347.368C181.842 347.496 181.698 347.56 181.522 347.56H178.594ZM184.33 340.024C184.874 340.024 185.298 339.912 185.602 339.688C185.906 339.464 186.122 339.16 186.25 338.776C186.394 338.392 186.482 337.968 186.514 337.504C186.546 337.008 186.546 336.512 186.514 336.016C186.482 335.552 186.394 335.128 186.25 334.744C186.122 334.36 185.906 334.056 185.602 333.832C185.298 333.608 184.874 333.496 184.33 333.496C183.818 333.496 183.402 333.616 183.082 333.856C182.762 334.08 182.53 334.376 182.386 334.744C182.242 335.112 182.154 335.512 182.122 335.944C182.106 336.248 182.098 336.544 182.098 336.832C182.098 337.12 182.106 337.424 182.122 337.744C182.138 338.144 182.226 338.52 182.386 338.872C182.546 339.208 182.786 339.488 183.106 339.712C183.426 339.92 183.834 340.024 184.33 340.024ZM193.735 343C193.559 343 193.415 342.944 193.303 342.832C193.191 342.704 193.135 342.56 193.135 342.4V331.12C193.135 330.944 193.191 330.8 193.303 330.688C193.415 330.576 193.559 330.52 193.735 330.52H196.351C196.527 330.52 196.671 330.576 196.783 330.688C196.895 330.8 196.951 330.944 196.951 331.12V331.936C197.271 331.504 197.719 331.128 198.295 330.808C198.871 330.472 199.551 330.296 200.335 330.28C202.191 330.232 203.463 330.92 204.151 332.344C204.519 331.736 205.039 331.24 205.711 330.856C206.399 330.472 207.151 330.28 207.967 330.28C208.799 330.28 209.543 330.472 210.199 330.856C210.871 331.224 211.407 331.8 211.807 332.584C212.207 333.352 212.407 334.352 212.407 335.584V342.4C212.407 342.56 212.351 342.704 212.239 342.832C212.127 342.944 211.983 343 211.807 343H209.023C208.847 343 208.695 342.944 208.567 342.832C208.455 342.704 208.399 342.56 208.399 342.4V335.752C208.399 335.192 208.319 334.752 208.159 334.432C207.999 334.096 207.783 333.856 207.511 333.712C207.239 333.568 206.927 333.496 206.575 333.496C206.287 333.496 205.999 333.568 205.711 333.712C205.439 333.856 205.215 334.096 205.039 334.432C204.879 334.752 204.799 335.192 204.799 335.752V342.4C204.799 342.56 204.743 342.704 204.631 342.832C204.519 342.944 204.375 343 204.199 343H201.415C201.239 343 201.095 342.944 200.983 342.832C200.871 342.704 200.815 342.56 200.815 342.4V335.752C200.815 335.192 200.727 334.752 200.551 334.432C200.375 334.096 200.151 333.856 199.879 333.712C199.607 333.568 199.311 333.496 198.991 333.496C198.687 333.496 198.391 333.568 198.103 333.712C197.831 333.856 197.607 334.096 197.431 334.432C197.271 334.752 197.191 335.184 197.191 335.728V342.4C197.191 342.56 197.127 342.704 196.999 342.832C196.887 342.944 196.751 343 196.591 343H193.735ZM220.879 343.24C218.991 343.24 217.487 342.728 216.367 341.704C215.247 340.68 214.663 339.16 214.615 337.144C214.615 337.032 214.615 336.888 214.615 336.712C214.615 336.536 214.615 336.4 214.615 336.304C214.663 335.04 214.943 333.96 215.455 333.064C215.983 332.152 216.703 331.464 217.615 331C218.543 330.52 219.623 330.28 220.855 330.28C222.263 330.28 223.423 330.56 224.335 331.12C225.263 331.68 225.959 332.44 226.423 333.4C226.887 334.36 227.119 335.456 227.119 336.688V337.264C227.119 337.44 227.063 337.584 226.951 337.696C226.839 337.808 226.695 337.864 226.519 337.864H218.839C218.839 337.88 218.839 337.904 218.839 337.936C218.839 337.968 218.839 338 218.839 338.032C218.855 338.496 218.935 338.92 219.079 339.304C219.239 339.688 219.463 339.992 219.751 340.216C220.055 340.44 220.423 340.552 220.855 340.552C221.175 340.552 221.439 340.504 221.647 340.408C221.871 340.296 222.055 340.176 222.199 340.048C222.343 339.904 222.455 339.784 222.535 339.688C222.679 339.512 222.791 339.408 222.871 339.376C222.967 339.328 223.111 339.304 223.303 339.304H226.279C226.439 339.304 226.567 339.352 226.663 339.448C226.775 339.544 226.823 339.672 226.807 339.832C226.791 340.104 226.655 340.432 226.399 340.816C226.143 341.2 225.767 341.584 225.271 341.968C224.791 342.336 224.183 342.64 223.447 342.88C222.711 343.12 221.855 343.24 220.879 343.24ZM218.839 335.488H222.895V335.44C222.895 334.912 222.815 334.464 222.655 334.096C222.511 333.712 222.279 333.416 221.959 333.208C221.655 333 221.287 332.896 220.855 332.896C220.439 332.896 220.079 333 219.775 333.208C219.471 333.416 219.239 333.712 219.079 334.096C218.919 334.464 218.839 334.912 218.839 335.44V335.488ZM229.969 343C229.793 343 229.649 342.944 229.537 342.832C229.425 342.704 229.369 342.56 229.369 342.4V331.12C229.369 330.944 229.425 330.8 229.537 330.688C229.649 330.576 229.793 330.52 229.969 330.52H232.729C232.905 330.52 233.049 330.576 233.161 330.688C233.289 330.8 233.353 330.944 233.353 331.12V332.032C233.753 331.536 234.289 331.12 234.961 330.784C235.633 330.448 236.425 330.28 237.337 330.28C238.265 330.28 239.081 330.488 239.785 330.904C240.505 331.32 241.065 331.928 241.465 332.728C241.881 333.528 242.089 334.52 242.089 335.704V342.4C242.089 342.56 242.033 342.704 241.921 342.832C241.809 342.944 241.665 343 241.489 343H238.465C238.305 343 238.161 342.944 238.033 342.832C237.921 342.704 237.865 342.56 237.865 342.4V335.848C237.865 335.096 237.681 334.52 237.313 334.12C236.961 333.704 236.433 333.496 235.729 333.496C235.073 333.496 234.545 333.704 234.145 334.12C233.761 334.52 233.569 335.096 233.569 335.848V342.4C233.569 342.56 233.505 342.704 233.377 342.832C233.265 342.944 233.129 343 232.969 343H229.969ZM251.058 343C250.034 343 249.146 342.84 248.394 342.52C247.658 342.184 247.09 341.672 246.69 340.984C246.29 340.28 246.09 339.376 246.09 338.272V333.664H244.218C244.042 333.664 243.89 333.608 243.762 333.496C243.65 333.384 243.594 333.24 243.594 333.064V331.12C243.594 330.944 243.65 330.8 243.762 330.688C243.89 330.576 244.042 330.52 244.218 330.52H246.09V326.56C246.09 326.384 246.146 326.24 246.258 326.128C246.386 326.016 246.53 325.96 246.69 325.96H249.474C249.65 325.96 249.794 326.016 249.906 326.128C250.018 326.24 250.074 326.384 250.074 326.56V330.52H253.074C253.25 330.52 253.394 330.576 253.506 330.688C253.634 330.8 253.698 330.944 253.698 331.12V333.064C253.698 333.24 253.634 333.384 253.506 333.496C253.394 333.608 253.25 333.664 253.074 333.664H250.074V337.936C250.074 338.48 250.178 338.912 250.386 339.232C250.594 339.552 250.946 339.712 251.442 339.712H253.29C253.466 339.712 253.61 339.768 253.722 339.88C253.834 339.992 253.89 340.136 253.89 340.312V342.4C253.89 342.56 253.834 342.704 253.722 342.832C253.61 342.944 253.466 343 253.29 343H251.058Z" fill="white"/>
</svg>
